RedHatDisplay-Medium.ufo
<glyph name="exclam" format="2">
  <advance width="216"/>
  <unicode hex="0021"/>
  <outline>
    <contour>
      <point x="68" y="200" type="line"/>
      <point x="147" y="200" type="line"/>
      <point x="159" y="705" type="line"/>
      <point x="56" y="705" type="line"/>
    </contour>
    <contour>
      <point x="108" y="-7" type="curve" smooth="yes"/>
      <point x="143" y="-7"/>
      <point x="171" y="21"/>
      <point x="171" y="56" type="curve" smooth="yes"/>
      <point x="171" y="91"/>
      <point x="143" y="119"/>
      <point x="108" y="119" type="curve" smooth="yes"/>
      <point x="73" y="119"/>
      <point x="44" y="91"/>
      <point x="44" y="56" type="curve" smooth="yes"/>
      <point x="44" y="21"/>
      <point x="73" y="-7"/>
    </contour>
  </outline>
</glyph>
<glyph name="numbersign" format="2">
  <advance width="711"/>
  <unicode hex="0023"/>
  <outline>
    <contour>
      <point x="75" y="0" type="line"/>
      <point x="166" y="0" type="line"/>
      <point x="226" y="209" type="line"/>
      <point x="405" y="209" type="line"/>
      <point x="345" y="0" type="line"/>
      <point x="435" y="0" type="line"/>
      <point x="495" y="209" type="line"/>
      <point x="631" y="209" type="line"/>
      <point x="631" y="283" type="line"/>
      <point x="516" y="283" type="line"/>
      <point x="555" y="417" type="line"/>
      <point x="681" y="417" type="line"/>
      <point x="681" y="491" type="line"/>
      <point x="575" y="491" type="line"/>
      <point x="635" y="700" type="line"/>
      <point x="545" y="700" type="line"/>
      <point x="485" y="491" type="line"/>
      <point x="306" y="491" type="line"/>
      <point x="366" y="700" type="line"/>
      <point x="275" y="700" type="line"/>
      <point x="215" y="491" type="line"/>
      <point x="80" y="491" type="line"/>
      <point x="80" y="417" type="line"/>
      <point x="195" y="417" type="line"/>
      <point x="156" y="283" type="line"/>
      <point x="30" y="283" type="line"/>
      <point x="30" y="209" type="line"/>
      <point x="136" y="209" type="line"/>
    </contour>
    <contour>
      <point x="247" y="283" type="line"/>
      <point x="285" y="417" type="line"/>
      <point x="464" y="417" type="line"/>
      <point x="426" y="283" type="line"/>
    </contour>
  </outline>
</glyph>
<glyph name="dollar" format="2">
  <advance width="581"/>
  <unicode hex="0024"/>
  <outline>
    <contour>
      <point x="257" y="-67" type="line"/>
      <point x="314" y="-67" type="line"/>
      <point x="314" y="19" type="line"/>
      <point x="458" y="25"/>
      <point x="553" y="100"/>
      <point x="553" y="212" type="curve" smooth="yes"/>
      <point x="553" y="309"/>
      <point x="498" y="357"/>
      <point x="356" y="387" type="curve" smooth="yes"/>
      <point x="314" y="394" type="line"/>
      <point x="314" y="596" type="line"/>
      <point x="371" y="587"/>
      <point x="429" y="563"/>
      <point x="491" y="522" type="curve"/>
      <point x="537" y="598" type="line"/>
      <point x="471" y="644"/>
      <point x="393" y="672"/>
      <point x="314" y="681" type="curve"/>
      <point x="314" y="767" type="line"/>
      <point x="257" y="767" type="line"/>
      <point x="257" y="683" type="line" smooth="yes"/>
      <point x="121" y="681"/>
      <point x="30" y="608"/>
      <point x="30" y="496" type="curve" smooth="yes"/>
      <point x="30" y="397"/>
      <point x="81" y="349"/>
      <point x="214" y="322" type="curve" smooth="yes"/>
      <point x="257" y="313" type="line"/>
      <point x="257" y="102" type="line"/>
      <point x="187" y="113"/>
      <point x="123" y="146"/>
      <point x="72" y="199" type="curve"/>
      <point x="16" y="131" type="line"/>
      <point x="78" y="66"/>
      <point x="162" y="28"/>
      <point x="257" y="20" type="curve"/>
    </contour>
    <contour>
      <point x="257" y="404" type="line"/>
      <point x="241" y="406" type="line" smooth="yes"/>
      <point x="152" y="423"/>
      <point x="123" y="447"/>
      <point x="123" y="504" type="curve" smooth="yes"/>
      <point x="123" y="561"/>
      <point x="176" y="599"/>
      <point x="257" y="600" type="curve" smooth="yes"/>
    </contour>
    <contour>
      <point x="314" y="99" type="curve"/>
      <point x="314" y="305" type="line"/>
      <point x="329" y="302" type="line" smooth="yes"/>
      <point x="428" y="283"/>
      <point x="457" y="261"/>
      <point x="457" y="205" type="curve" smooth="yes"/>
      <point x="457" y="146"/>
      <point x="398" y="104"/>
    </contour>
  </outline>
</glyph>
<glyph name="ampersand" format="2">
  <advance width="666"/>
  <unicode hex="0026"/>
  <outline>
    <contour>
      <point x="263" y="-11" type="curve" smooth="yes"/>
      <point x="347" y="-11"/>
      <point x="422" y="19"/>
      <point x="480" y="73" type="curve"/>
      <point x="518" y="41"/>
      <point x="556" y="11"/>
      <point x="591" y="-16" type="curve"/>
      <point x="651" y="55" type="line"/>
      <point x="614" y="83"/>
      <point x="576" y="113"/>
      <point x="537" y="147" type="curve"/>
      <point x="577" y="207"/>
      <point x="605" y="280"/>
      <point x="623" y="366" type="curve"/>
      <point x="534" y="381" type="line"/>
      <point x="521" y="315"/>
      <point x="501" y="254"/>
      <point x="471" y="205" type="curve"/>
      <point x="412" y="259"/>
      <point x="353" y="317"/>
      <point x="305" y="370" type="curve"/>
      <point x="355" y="401" type="line" smooth="yes"/>
      <point x="428" y="444"/>
      <point x="462" y="494"/>
      <point x="462" y="558" type="curve" smooth="yes"/>
      <point x="462" y="647"/>
      <point x="390" y="711"/>
      <point x="291" y="711" type="curve" smooth="yes"/>
      <point x="187" y="711"/>
      <point x="111" y="638"/>
      <point x="111" y="541" type="curve" smooth="yes"/>
      <point x="111" y="487"/>
      <point x="127" y="443"/>
      <point x="172" y="386" type="curve"/>
      <point x="63" y="325"/>
      <point x="25" y="273"/>
      <point x="25" y="188" type="curve" smooth="yes"/>
      <point x="25" y="69"/>
      <point x="120" y="-11"/>
    </contour>
    <contour>
      <point x="254" y="429" type="line"/>
      <point x="216" y="476"/>
      <point x="203" y="507"/>
      <point x="203" y="543" type="curve" smooth="yes"/>
      <point x="203" y="596"/>
      <point x="239" y="634"/>
      <point x="288" y="634" type="curve" smooth="yes"/>
      <point x="333" y="634"/>
      <point x="370" y="599"/>
      <point x="370" y="555" type="curve" smooth="yes"/>
      <point x="370" y="515"/>
      <point x="348" y="485"/>
      <point x="305" y="459" type="curve" smooth="yes"/>
    </contour>
    <contour>
      <point x="269" y="71" type="curve" smooth="yes"/>
      <point x="178" y="71"/>
      <point x="119" y="119"/>
      <point x="119" y="194" type="curve" smooth="yes"/>
      <point x="119" y="246"/>
      <point x="144" y="281"/>
      <point x="222" y="324" type="curve"/>
      <point x="277" y="262"/>
      <point x="345" y="194"/>
      <point x="415" y="130" type="curve"/>
      <point x="376" y="91"/>
      <point x="325" y="71"/>
    </contour>
  </outline>
</glyph>
<glyph name="quotesingle" format="2">
  <advance width="216"/>
  <unicode hex="0027"/>
  <outline>
    <contour>
      <point x="72" y="467" type="line"/>
      <point x="144" y="467" type="line"/>
      <point x="157" y="702" type="line"/>
      <point x="59" y="702" type="line"/>
    </contour>
  </outline>
</glyph>
<glyph name="parenleft" format="2">
  <advance width="398"/>
  <unicode hex="0028"/>
  <outline>
    <contour>
      <point x="313" y="-215" type="curve"/>
      <point x="367" y="-150" type="line"/>
      <point x="229" y="-69"/>
      <point x="154" y="73"/>
      <point x="154" y="248" type="curve" smooth="yes"/>
      <point x="154" y="423"/>
      <point x="229" y="565"/>
      <point x="367" y="647" type="curve"/>
      <point x="313" y="711" type="line"/>
      <point x="149" y="616"/>
      <point x="59" y="452"/>
      <point x="59" y="248" type="curve" smooth="yes"/>
      <point x="59" y="44"/>
      <point x="149" y="-119"/>
    </contour>
  </outline>
</glyph>
<glyph name="asterisk" format="2">
  <advance width="458"/>
  <unicode hex="002A"/>
  <outline>
    <contour>
      <point x="195" y="331" type="line"/>
      <point x="264" y="331" type="line"/>
      <point x="262" y="459" type="line"/>
      <point x="373" y="390" type="line"/>
      <point x="412" y="447" type="line"/>
      <point x="292" y="517" type="line"/>
      <point x="409" y="587" type="line"/>
      <point x="371" y="644" type="line"/>
      <point x="262" y="576" type="line"/>
      <point x="264" y="700" type="line"/>
      <point x="195" y="700" type="line"/>
      <point x="196" y="575" type="line"/>
      <point x="87" y="644" type="line"/>
      <point x="49" y="587" type="line"/>
      <point x="167" y="517" type="line"/>
      <point x="47" y="447" type="line"/>
      <point x="84" y="390" type="line"/>
      <point x="197" y="460" type="line"/>
    </contour>
  </outline>
</glyph>
<glyph name="plus" format="2">
  <advance width="600"/>
  <unicode hex="002B"/>
  <outline>
    <contour>
      <point x="260" y="139" type="line"/>
      <point x="340" y="139" type="line"/>
      <point x="340" y="317" type="line"/>
      <point x="506" y="317" type="line"/>
      <point x="506" y="395" type="line"/>
      <point x="340" y="395" type="line"/>
      <point x="340" y="574" type="line"/>
      <point x="260" y="574" type="line"/>
      <point x="260" y="395" type="line"/>
      <point x="94" y="395" type="line"/>
      <point x="94" y="317" type="line"/>
      <point x="260" y="317" type="line"/>
    </contour>
  </outline>
</glyph>
<glyph name="period" format="2">
  <advance width="250"/>
  <unicode hex="002E"/>
  <outline>
    <contour>
      <point x="125" y="-7" type="curve" smooth="yes"/>
      <point x="160" y="-7"/>
      <point x="188" y="21"/>
      <point x="188" y="56" type="curve" smooth="yes"/>
      <point x="188" y="91"/>
      <point x="160" y="119"/>
      <point x="125" y="119" type="curve" smooth="yes"/>
      <point x="90" y="119"/>
      <point x="62" y="91"/>
      <point x="62" y="56" type="curve" smooth="yes"/>
      <point x="62" y="21"/>
      <point x="90" y="-7"/>
    </contour>
  </outline>
</glyph>
<glyph name="slash" format="2">
  <advance width="480"/>
  <unicode hex="002F"/>
  <outline>
    <contour>
      <point x="-63" y="-205" type="line"/>
      <point x="35" y="-205" type="line"/>
      <point x="451" y="700" type="line"/>
      <point x="353" y="700" type="line"/>
    </contour>
  </outline>
</glyph>
<glyph name="zero" format="2">
  <advance width="671"/>
  <unicode hex="0030"/>
  <outline>
    <contour>
      <point x="336" y="-11" type="curve" smooth="yes"/>
      <point x="509" y="-11"/>
      <point x="630" y="137"/>
      <point x="630" y="350" type="curve" smooth="yes"/>
      <point x="630" y="563"/>
      <point x="509" y="711"/>
      <point x="336" y="711" type="curve" smooth="yes"/>
      <point x="162" y="711"/>
      <point x="41" y="563"/>
      <point x="41" y="350" type="curve" smooth="yes"/>
      <point x="41" y="137"/>
      <point x="162" y="-11"/>
    </contour>
    <contour>
      <point x="336" y="76" type="curve" smooth="yes"/>
      <point x="216" y="76"/>
      <point x="139" y="183"/>
      <point x="139" y="350" type="curve" smooth="yes"/>
      <point x="139" y="517"/>
      <point x="216" y="624"/>
      <point x="336" y="624" type="curve" smooth="yes"/>
      <point x="456" y="624"/>
      <point x="532" y="517"/>
      <point x="532" y="350" type="curve" smooth="yes"/>
      <point x="532" y="183"/>
      <point x="456" y="76"/>
    </contour>
  </outline>
</glyph>
<glyph name="one" format="2">
  <advance width="314"/>
  <unicode hex="0031"/>
  <outline>
    <contour>
      <point x="151" y="0" type="line"/>
      <point x="250" y="0" type="line"/>
      <point x="250" y="700" type="line"/>
      <point x="187" y="700" type="line"/>
      <point x="25" y="632" type="line"/>
      <point x="25" y="544" type="line"/>
      <point x="151" y="597" type="line"/>
    </contour>
  </outline>
</glyph>
<glyph name="four" format="2">
  <advance width="641"/>
  <unicode hex="0034"/>
  <outline>
    <contour>
      <point x="424" y="0" type="line"/>
      <point x="523" y="0" type="line"/>
      <point x="523" y="178" type="line"/>
      <point x="608" y="178" type="line"/>
      <point x="608" y="262" type="line"/>
      <point x="523" y="262" type="line"/>
      <point x="523" y="700" type="line"/>
      <point x="412" y="700" type="line"/>
      <point x="27" y="257" type="line"/>
      <point x="27" y="178" type="line"/>
      <point x="424" y="178" type="line"/>
    </contour>
    <contour>
      <point x="145" y="262" type="line"/>
      <point x="424" y="583" type="line"/>
      <point x="424" y="262" type="line"/>
    </contour>
  </outline>
</glyph>
<glyph name="nine" format="2">
  <advance width="622"/>
  <unicode hex="0039"/>
  <outline>
    <contour>
      <point x="287" y="711" type="curve" smooth="yes"/>
      <point x="147" y="711"/>
      <point x="43" y="613"/>
      <point x="43" y="480" type="curve" smooth="yes"/>
      <point x="43" y="355"/>
      <point x="141" y="264"/>
      <point x="278" y="264" type="curve" smooth="yes"/>
      <point x="353" y="264"/>
      <point x="425" y="302"/>
      <point x="475" y="368" type="curve"/>
      <point x="473" y="185"/>
      <point x="392" y="77"/>
      <point x="257" y="77" type="curve" smooth="yes"/>
      <point x="208" y="77"/>
      <point x="163" y="91"/>
      <point x="122" y="117" type="curve"/>
      <point x="71" y="46" type="line"/>
      <point x="117" y="11"/>
      <point x="185" y="-10"/>
      <point x="249" y="-10" type="curve" smooth="yes"/>
      <point x="443" y="-10"/>
      <point x="571" y="142"/>
      <point x="571" y="371" type="curve" smooth="yes"/>
      <point x="571" y="572"/>
      <point x="455" y="711"/>
    </contour>
    <contour>
      <point x="292" y="341" type="curve" smooth="yes"/>
      <point x="202" y="341"/>
      <point x="139" y="399"/>
      <point x="139" y="482" type="curve" smooth="yes"/>
      <point x="139" y="566"/>
      <point x="203" y="628"/>
      <point x="290" y="628" type="curve" smooth="yes"/>
      <point x="385" y="628"/>
      <point x="454" y="550"/>
      <point x="471" y="431" type="curve"/>
      <point x="425" y="375"/>
      <point x="361" y="341"/>
    </contour>
  </outline>
</glyph>
<glyph name="less" format="2">
  <advance width="600"/>
  <unicode hex="003C"/>
  <outline>
    <contour>
      <point x="421" y="85" type="line"/>
      <point x="473" y="147" type="line"/>
      <point x="215" y="350" type="line"/>
      <point x="473" y="551" type="line"/>
      <point x="423" y="611" type="line"/>
      <point x="94" y="348" type="line"/>
    </contour>
  </outline>
</glyph>
<glyph name="question" format="2">
  <advance width="514"/>
  <unicode hex="003F"/>
  <outline>
    <contour>
      <point x="184" y="205" type="curve"/>
      <point x="269" y="205" type="line"/>
      <point x="266" y="266"/>
      <point x="283" y="304"/>
      <point x="329" y="335" type="curve" smooth="yes"/>
      <point x="360" y="357" type="line" smooth="yes"/>
      <point x="451" y="419"/>
      <point x="480" y="462"/>
      <point x="480" y="532" type="curve" smooth="yes"/>
      <point x="480" y="634"/>
      <point x="384" y="711"/>
      <point x="257" y="711" type="curve"/>
      <point x="156" y="711"/>
      <point x="67" y="662"/>
      <point x="15" y="578" type="curve"/>
      <point x="95" y="537" type="line"/>
      <point x="132" y="593"/>
      <point x="189" y="625"/>
      <point x="252" y="625" type="curve" smooth="yes"/>
      <point x="325" y="625"/>
      <point x="382" y="583"/>
      <point x="382" y="529" type="curve" smooth="yes"/>
      <point x="382" y="491"/>
      <point x="362" y="462"/>
      <point x="311" y="425" type="curve" smooth="yes"/>
      <point x="264" y="392" type="line" smooth="yes"/>
      <point x="200" y="345"/>
      <point x="179" y="296"/>
    </contour>
    <contour>
      <point x="227" y="-7" type="curve" smooth="yes"/>
      <point x="262" y="-7"/>
      <point x="290" y="21"/>
      <point x="290" y="56" type="curve" smooth="yes"/>
      <point x="290" y="91"/>
      <point x="262" y="119"/>
      <point x="227" y="119" type="curve" smooth="yes"/>
      <point x="192" y="119"/>
      <point x="164" y="91"/>
      <point x="164" y="56" type="curve" smooth="yes"/>
      <point x="164" y="21"/>
      <point x="192" y="-7"/>
    </contour>
  </outline>
</glyph>
<glyph name="at" format="2">
  <advance width="781"/>
  <unicode hex="0040"/>
  <outline>
    <contour>
      <point x="406" y="-144" type="curve" smooth="yes"/>
      <point x="473" y="-144"/>
      <point x="538" y="-129"/>
      <point x="597" y="-100" type="curve"/>
      <point x="576" y="-52" type="line"/>
      <point x="526" y="-78"/>
      <point x="469" y="-92"/>
      <point x="408" y="-92" type="curve" smooth="yes"/>
      <point x="228" y="-92"/>
      <point x="99" y="35"/>
      <point x="99" y="210" type="curve" smooth="yes"/>
      <point x="99" y="390"/>
      <point x="231" y="528"/>
      <point x="402" y="528" type="curve"/>
      <point x="562" y="528"/>
      <point x="683" y="417"/>
      <point x="683" y="268" type="curve" smooth="yes"/>
      <point x="683" y="175"/>
      <point x="633" y="105"/>
      <point x="566" y="105" type="curve" smooth="yes"/>
      <point x="525" y="105"/>
      <point x="506" y="129"/>
      <point x="515" y="172" type="curve" smooth="yes"/>
      <point x="556" y="369" type="line"/>
      <point x="486" y="369" type="line"/>
      <point x="481" y="345" type="line"/>
      <point x="456" y="369"/>
      <point x="421" y="382"/>
      <point x="383" y="382" type="curve" smooth="yes"/>
      <point x="287" y="382"/>
      <point x="211" y="302"/>
      <point x="211" y="202" type="curve" smooth="yes"/>
      <point x="211" y="116"/>
      <point x="273" y="50"/>
      <point x="355" y="50" type="curve" smooth="yes"/>
      <point x="391" y="50"/>
      <point x="429" y="65"/>
      <point x="460" y="93" type="curve"/>
      <point x="479" y="67"/>
      <point x="512" y="52"/>
      <point x="557" y="52" type="curve" smooth="yes"/>
      <point x="662" y="52"/>
      <point x="739" y="145"/>
      <point x="739" y="272" type="curve" smooth="yes"/>
      <point x="739" y="445"/>
      <point x="593" y="578"/>
      <point x="404" y="578" type="curve"/>
      <point x="198" y="578"/>
      <point x="43" y="419"/>
      <point x="43" y="207" type="curve" smooth="yes"/>
      <point x="43" y="5"/>
      <point x="198" y="-144"/>
    </contour>
    <contour>
      <point x="371" y="108" type="curve" smooth="yes"/>
      <point x="317" y="108"/>
      <point x="279" y="149"/>
      <point x="279" y="208" type="curve" smooth="yes"/>
      <point x="279" y="270"/>
      <point x="326" y="322"/>
      <point x="384" y="322" type="curve" smooth="yes"/>
      <point x="419" y="322"/>
      <point x="450" y="307"/>
      <point x="468" y="280" type="curve"/>
      <point x="448" y="180" type="line" smooth="yes"/>
      <point x="445" y="165"/>
      <point x="444" y="152"/>
      <point x="446" y="139" type="curve"/>
      <point x="424" y="118"/>
      <point x="398" y="108"/>
    </contour>
  </outline>
</glyph>
<glyph name="A" format="2">
  <advance width="701"/>
  <unicode hex="0041"/>
  <anchor x="351" y="700" name="top"/>
  <anchor x="700" y="0" name="bottom"/>
  <outline>
    <contour>
      <point x="1" y="0" type="line"/>
      <point x="110" y="0" type="line"/>
      <point x="192" y="205" type="line"/>
      <point x="505" y="205" type="line"/>
      <point x="586" y="0" type="line"/>
      <point x="700" y="0" type="line"/>
      <point x="414" y="700" type="line"/>
      <point x="290" y="700" type="line"/>
    </contour>
    <contour>
      <point x="226" y="292" type="line"/>
      <point x="349" y="600" type="line"/>
      <point x="471" y="292" type="line"/>
    </contour>
  </outline>
</glyph>
<glyph name="B" format="2">
  <advance width="671"/>
  <unicode hex="0042"/>
  <outline>
    <contour>
      <point x="71" y="0" type="line"/>
      <point x="387" y="0" type="line" smooth="yes"/>
      <point x="533" y="0"/>
      <point x="628" y="79"/>
      <point x="628" y="200" type="curve" smooth="yes"/>
      <point x="628" y="276"/>
      <point x="580" y="335"/>
      <point x="502" y="363" type="curve"/>
      <point x="564" y="393"/>
      <point x="601" y="447"/>
      <point x="601" y="515" type="curve" smooth="yes"/>
      <point x="601" y="627"/>
      <point x="511" y="700"/>
      <point x="374" y="700" type="curve" smooth="yes"/>
      <point x="71" y="700" type="line"/>
    </contour>
    <contour>
      <point x="176" y="403" type="line"/>
      <point x="176" y="611" type="line"/>
      <point x="368" y="611" type="line" smooth="yes"/>
      <point x="447" y="611"/>
      <point x="497" y="571"/>
      <point x="497" y="507" type="curve" smooth="yes"/>
      <point x="497" y="443"/>
      <point x="447" y="403"/>
      <point x="368" y="403" type="curve" smooth="yes"/>
    </contour>
    <contour>
      <point x="176" y="89" type="line"/>
      <point x="176" y="319" type="line"/>
      <point x="379" y="319" type="line" smooth="yes"/>
      <point x="466" y="319"/>
      <point x="522" y="273"/>
      <point x="522" y="204" type="curve" smooth="yes"/>
      <point x="522" y="134"/>
      <point x="466" y="89"/>
      <point x="379" y="89" type="curve" smooth="yes"/>
    </contour>
  </outline>
</glyph>
<glyph name="C" format="2">
  <advance width="720"/>
  <unicode hex="0043"/>
  <anchor x="404" y="700" name="top"/>
  <anchor x="408" y="0" name="bottom"/>
  <outline>
    <contour>
      <point x="408" y="-11" type="curve" smooth="yes"/>
      <point x="515" y="-11"/>
      <point x="619" y="35"/>
      <point x="688" y="110" type="curve"/>
      <point x="619" y="180" type="line"/>
      <point x="568" y="120"/>
      <point x="492" y="86"/>
      <point x="411" y="86" type="curve" smooth="yes"/>
      <point x="261" y="86"/>
      <point x="148" y="201"/>
      <point x="148" y="350" type="curve" smooth="yes"/>
      <point x="148" y="500"/>
      <point x="260" y="614"/>
      <point x="408" y="614" type="curve" smooth="yes"/>
      <point x="489" y="614"/>
      <point x="567" y="580"/>
      <point x="620" y="518" type="curve"/>
      <point x="690" y="590" type="line"/>
      <point x="624" y="665"/>
      <point x="519" y="711"/>
      <point x="408" y="711" type="curve" smooth="yes"/>
      <point x="201" y="711"/>
      <point x="41" y="553"/>
      <point x="41" y="350" type="curve" smooth="yes"/>
      <point x="41" y="148"/>
      <point x="201" y="-11"/>
    </contour>
  </outline>
</glyph>
<glyph name="D" format="2">
  <advance width="727"/>
  <unicode hex="0044"/>
  <anchor x="364" y="700" name="top"/>
  <outline>
    <contour>
      <point x="176" y="94" type="line"/>
      <point x="176" y="606" type="line"/>
      <point x="320" y="606" type="line" smooth="yes"/>
      <point x="466" y="606"/>
      <point x="579" y="495"/>
      <point x="579" y="349" type="curve" smooth="yes"/>
      <point x="579" y="205"/>
      <point x="466" y="94"/>
      <point x="320" y="94" type="curve" smooth="yes"/>
    </contour>
    <contour>
      <point x="71" y="0" type="line"/>
      <point x="318" y="0" type="line" smooth="yes"/>
      <point x="530" y="0"/>
      <point x="687" y="149"/>
      <point x="687" y="349" type="curve" smooth="yes"/>
      <point x="687" y="551"/>
      <point x="529" y="700"/>
      <point x="318" y="700" type="curve" smooth="yes"/>
      <point x="71" y="700" type="line"/>
    </contour>
  </outline>
</glyph>
<glyph name="E" format="2">
  <advance width="628"/>
  <unicode hex="0045"/>
  <anchor x="342" y="700" name="top"/>
  <anchor x="591" y="0" name="bottom"/>
  <outline>
    <contour>
      <point x="71" y="0" type="line"/>
      <point x="591" y="0" type="line"/>
      <point x="591" y="92" type="line"/>
      <point x="176" y="92" type="line"/>
      <point x="176" y="309" type="line"/>
      <point x="446" y="309" type="line"/>
      <point x="446" y="398" type="line"/>
      <point x="176" y="398" type="line"/>
      <point x="176" y="608" type="line"/>
      <point x="587" y="608" type="line"/>
      <point x="587" y="700" type="line"/>
      <point x="71" y="700" type="line"/>
    </contour>
  </outline>
</glyph>
<glyph name="F" format="2">
  <advance width="620"/>
  <unicode hex="0046"/>
  <outline>
    <contour>
      <point x="71" y="0" type="line"/>
      <point x="176" y="0" type="line"/>
      <point x="176" y="304" type="line"/>
      <point x="448" y="304" type="line"/>
      <point x="448" y="393" type="line"/>
      <point x="176" y="393" type="line"/>
      <point x="176" y="608" type="line"/>
      <point x="589" y="608" type="line"/>
      <point x="589" y="700" type="line"/>
      <point x="71" y="700" type="line"/>
    </contour>
  </outline>
</glyph>
<glyph name="G" format="2">
  <advance width="790"/>
  <unicode hex="0047"/>
  <anchor x="405" y="700" name="top"/>
  <anchor x="409" y="0" name="bottom"/>
  <outline>
    <contour>
      <point x="407" y="-11" type="curve" smooth="yes"/>
      <point x="602" y="-11"/>
      <point x="751" y="141"/>
      <point x="751" y="341" type="curve" smooth="yes"/>
      <point x="751" y="377" type="line"/>
      <point x="408" y="377" type="line"/>
      <point x="408" y="285" type="line"/>
      <point x="641" y="285" type="line"/>
      <point x="627" y="170"/>
      <point x="531" y="85"/>
      <point x="407" y="85" type="curve" smooth="yes"/>
      <point x="260" y="85"/>
      <point x="148" y="200"/>
      <point x="148" y="350" type="curve" smooth="yes"/>
      <point x="148" y="500"/>
      <point x="259" y="614"/>
      <point x="405" y="614" type="curve" smooth="yes"/>
      <point x="486" y="614"/>
      <point x="563" y="580"/>
      <point x="615" y="520" type="curve"/>
      <point x="687" y="590" type="line"/>
      <point x="619" y="666"/>
      <point x="516" y="711"/>
      <point x="405" y="711" type="curve" smooth="yes"/>
      <point x="201" y="711"/>
      <point x="41" y="552"/>
      <point x="41" y="350" type="curve" smooth="yes"/>
      <point x="41" y="148"/>
      <point x="202" y="-11"/>
    </contour>
  </outline>
</glyph>
<glyph name="H" format="2">
  <advance width="725"/>
  <unicode hex="0048"/>
  <anchor x="362" y="700" name="top"/>
  <outline>
    <contour>
      <point x="71" y="0" type="line"/>
      <point x="176" y="0" type="line"/>
      <point x="176" y="305" type="line"/>
      <point x="548" y="305" type="line"/>
      <point x="548" y="0" type="line"/>
      <point x="653" y="0" type="line"/>
      <point x="653" y="700" type="line"/>
      <point x="548" y="700" type="line"/>
      <point x="548" y="400" type="line"/>
      <point x="176" y="400" type="line"/>
      <point x="176" y="700" type="line"/>
      <point x="71" y="700" type="line"/>
    </contour>
  </outline>
</glyph>
<glyph name="J" format="2">
  <advance width="617"/>
  <unicode hex="004A"/>
  <anchor x="507" y="700" name="top"/>
  <outline>
    <contour>
      <point x="283" y="-11" type="curve" smooth="yes"/>
      <point x="451" y="-11"/>
      <point x="559" y="99"/>
      <point x="559" y="267" type="curve" smooth="yes"/>
      <point x="559" y="700" type="line"/>
      <point x="454" y="700" type="line"/>
      <point x="454" y="269" type="line" smooth="yes"/>
      <point x="454" y="158"/>
      <point x="386" y="85"/>
      <point x="284" y="85" type="curve" smooth="yes"/>
      <point x="203" y="85"/>
      <point x="146" y="128"/>
      <point x="113" y="217" type="curve"/>
      <point x="17" y="179" type="line"/>
      <point x="58" y="58"/>
      <point x="155" y="-11"/>
    </contour>
  </outline>
</glyph>
<glyph name="K" format="2">
  <advance width="650"/>
  <unicode hex="004B"/>
  <anchor x="342" y="0" name="bottom"/>
  <outline>
    <contour>
      <point x="71" y="0" type="line"/>
      <point x="176" y="0" type="line"/>
      <point x="176" y="332" type="line"/>
      <point x="515" y="0" type="line"/>
      <point x="659" y="0" type="line"/>
      <point x="284" y="361" type="line"/>
      <point x="648" y="700" type="line"/>
      <point x="515" y="700" type="line"/>
      <point x="176" y="376" type="line"/>
      <point x="176" y="700" type="line"/>
      <point x="71" y="700" type="line"/>
    </contour>
  </outline>
</glyph>
<glyph name="L" format="2">
  <advance width="614"/>
  <unicode hex="004C"/>
  <anchor x="123" y="700" name="top"/>
  <anchor x="346" y="0" name="bottom"/>
  <outline>
    <contour>
      <point x="71" y="0" type="line"/>
      <point x="579" y="0" type="line"/>
      <point x="579" y="93" type="line"/>
      <point x="176" y="93" type="line"/>
      <point x="176" y="700" type="line"/>
      <point x="71" y="700" type="line"/>
    </contour>
  </outline>
</glyph>
<glyph name="M" format="2">
  <advance width="861"/>
  <unicode hex="004D"/>
  <outline>
    <contour>
      <point x="71" y="0" type="line"/>
      <point x="169" y="0" type="line"/>
      <point x="169" y="572" type="line"/>
      <point x="430" y="50" type="line"/>
      <point x="691" y="572" type="line"/>
      <point x="691" y="0" type="line"/>
      <point x="790" y="0" type="line"/>
      <point x="790" y="700" type="line"/>
      <point x="650" y="700" type="line"/>
      <point x="431" y="252" type="line"/>
      <point x="212" y="700" type="line"/>
      <point x="71" y="700" type="line"/>
    </contour>
  </outline>
</glyph>
<glyph name="N" format="2">
  <advance width="735"/>
  <unicode hex="004E"/>
  <anchor x="367" y="700" name="top"/>
  <anchor x="367" y="0" name="bottom"/>
  <outline>
    <contour>
      <point x="71" y="0" type="line"/>
      <point x="171" y="0" type="line"/>
      <point x="171" y="536" type="line"/>
      <point x="571" y="0" type="line"/>
      <point x="663" y="0" type="line"/>
      <point x="663" y="700" type="line"/>
      <point x="564" y="700" type="line"/>
      <point x="564" y="180" type="line"/>
      <point x="173" y="700" type="line"/>
      <point x="71" y="700" type="line"/>
    </contour>
  </outline>
</glyph>
<glyph name="O" format="2">
  <advance width="810"/>
  <unicode hex="004F"/>
  <anchor x="406" y="700" name="top"/>
  <outline>
    <contour>
      <point x="406" y="-11" type="curve" smooth="yes"/>
      <point x="609" y="-11"/>
      <point x="770" y="148"/>
      <point x="770" y="350" type="curve" smooth="yes"/>
      <point x="770" y="552"/>
      <point x="609" y="711"/>
      <point x="406" y="711" type="curve" smooth="yes"/>
      <point x="201" y="711"/>
      <point x="41" y="552"/>
      <point x="41" y="350" type="curve" smooth="yes"/>
      <point x="41" y="148"/>
      <point x="201" y="-11"/>
    </contour>
    <contour>
      <point x="406" y="86" type="curve" smooth="yes"/>
      <point x="260" y="86"/>
      <point x="148" y="201"/>
      <point x="148" y="350" type="curve" smooth="yes"/>
      <point x="148" y="500"/>
      <point x="260" y="614"/>
      <point x="406" y="614" type="curve" smooth="yes"/>
      <point x="551" y="614"/>
      <point x="663" y="500"/>
      <point x="663" y="350" type="curve" smooth="yes"/>
      <point x="663" y="201"/>
      <point x="551" y="86"/>
    </contour>
  </outline>
</glyph>
<glyph name="P" format="2">
  <advance width="661"/>
  <unicode hex="0050"/>
  <outline>
    <contour>
      <point x="71" y="0" type="line"/>
      <point x="176" y="0" type="line"/>
      <point x="176" y="282" type="line"/>
      <point x="395" y="282" type="line" smooth="yes"/>
      <point x="531" y="282"/>
      <point x="624" y="367"/>
      <point x="624" y="491" type="curve" smooth="yes"/>
      <point x="624" y="615"/>
      <point x="532" y="700"/>
      <point x="395" y="700" type="curve" smooth="yes"/>
      <point x="71" y="700" type="line"/>
    </contour>
    <contour>
      <point x="176" y="371" type="line"/>
      <point x="176" y="608" type="line"/>
      <point x="384" y="608" type="line" smooth="yes"/>
      <point x="466" y="608"/>
      <point x="519" y="562"/>
      <point x="519" y="490" type="curve" smooth="yes"/>
      <point x="519" y="417"/>
      <point x="466" y="371"/>
      <point x="384" y="371" type="curve" smooth="yes"/>
    </contour>
  </outline>
</glyph>
<glyph name="Q" format="2">
  <advance width="810"/>
  <unicode hex="0051"/>
  <outline>
    <contour>
      <point x="632" y="-23" type="line"/>
      <point x="730" y="0" type="line"/>
      <point x="658" y="88" type="line"/>
      <point x="727" y="153"/>
      <point x="770" y="246"/>
      <point x="770" y="350" type="curve" smooth="yes"/>
      <point x="770" y="552"/>
      <point x="609" y="711"/>
      <point x="406" y="711" type="curve" smooth="yes"/>
      <point x="201" y="711"/>
      <point x="41" y="552"/>
      <point x="41" y="350" type="curve" smooth="yes"/>
      <point x="41" y="148"/>
      <point x="201" y="-11"/>
      <point x="406" y="-11" type="curve" smooth="yes"/>
      <point x="471" y="-11"/>
      <point x="532" y="6"/>
      <point x="584" y="35" type="curve"/>
    </contour>
    <contour>
      <point x="406" y="86" type="curve" smooth="yes"/>
      <point x="260" y="86"/>
      <point x="148" y="201"/>
      <point x="148" y="350" type="curve" smooth="yes"/>
      <point x="148" y="500"/>
      <point x="260" y="614"/>
      <point x="406" y="614" type="curve" smooth="yes"/>
      <point x="551" y="614"/>
      <point x="663" y="500"/>
      <point x="663" y="350" type="curve" smooth="yes"/>
      <point x="663" y="279"/>
      <point x="636" y="215"/>
      <point x="593" y="168" type="curve"/>
      <point x="528" y="247" type="line"/>
      <point x="429" y="223" type="line"/>
      <point x="519" y="114" type="line"/>
      <point x="486" y="96"/>
      <point x="447" y="86"/>
    </contour>
  </outline>
</glyph>
<glyph name="R" format="2">
  <advance width="659"/>
  <unicode hex="0052"/>
  <anchor x="326" y="700" name="top"/>
  <anchor x="330" y="0" name="bottom"/>
  <outline>
    <contour>
      <point x="71" y="0" type="line"/>
      <point x="176" y="0" type="line"/>
      <point x="176" y="287" type="line"/>
      <point x="373" y="287" type="line"/>
      <point x="518" y="0" type="line"/>
      <point x="634" y="0" type="line"/>
      <point x="478" y="302" type="line"/>
      <point x="566" y="331"/>
      <point x="622" y="402"/>
      <point x="622" y="493" type="curve" smooth="yes"/>
      <point x="622" y="616"/>
      <point x="528" y="700"/>
      <point x="388" y="700" type="curve" smooth="yes"/>
      <point x="71" y="700" type="line"/>
    </contour>
    <contour>
      <point x="176" y="375" type="line"/>
      <point x="176" y="608" type="line"/>
      <point x="380" y="608" type="line" smooth="yes"/>
      <point x="462" y="608"/>
      <point x="517" y="562"/>
      <point x="517" y="492" type="curve" smooth="yes"/>
      <point x="517" y="421"/>
      <point x="462" y="375"/>
      <point x="380" y="375" type="curve" smooth="yes"/>
    </contour>
  </outline>
</glyph>
<glyph name="S" format="2">
  <advance width="613"/>
  <unicode hex="0053"/>
  <note>
Version created Fri Aug  3 17:49:29 2018
</note>
  <anchor x="289" y="701" name="top"/>
  <anchor x="297" y="1" name="bottom"/>
  <outline>
    <contour>
      <point x="308" y="-10" type="curve" smooth="yes"/>
      <point x="475" y="-10"/>
      <point x="587" y="77"/>
      <point x="587" y="205" type="curve" smooth="yes"/>
      <point x="587" y="314"/>
      <point x="520" y="375"/>
      <point x="372" y="399" type="curve" smooth="yes"/>
      <point x="259" y="418" type="line" smooth="yes"/>
      <point x="169" y="432"/>
      <point x="134" y="459"/>
      <point x="134" y="516" type="curve" smooth="yes"/>
      <point x="134" y="578"/>
      <point x="195" y="620"/>
      <point x="286" y="620" type="curve" smooth="yes"/>
      <point x="364" y="620"/>
      <point x="439" y="592"/>
      <point x="515" y="534" type="curve"/>
      <point x="573" y="614" type="line"/>
      <point x="494" y="675"/>
      <point x="391" y="709"/>
      <point x="291" y="709" type="curve" smooth="yes"/>
      <point x="135" y="709"/>
      <point x="33" y="629"/>
      <point x="33" y="508" type="curve" smooth="yes"/>
      <point x="33" y="407"/>
      <point x="96" y="348"/>
      <point x="224" y="326" type="curve" smooth="yes"/>
      <point x="341" y="307" type="line" smooth="yes"/>
      <point x="443" y="290"/>
      <point x="483" y="260"/>
      <point x="483" y="197" type="curve" smooth="yes"/>
      <point x="483" y="128"/>
      <point x="414" y="80"/>
      <point x="313" y="80" type="curve" smooth="yes"/>
      <point x="225" y="80"/>
      <point x="148" y="116"/>
      <point x="72" y="190" type="curve"/>
      <point x="8" y="116" type="line"/>
      <point x="88" y="35"/>
      <point x="196" y="-10"/>
    </contour>
  </outline>
</glyph>
<glyph name="T" format="2">
  <advance width="631"/>
  <unicode hex="0054"/>
  <anchor x="315" y="700" name="top"/>
  <anchor x="315" y="0" name="bottom"/>
  <outline>
    <contour>
      <point x="263" y="0" type="line"/>
      <point x="368" y="0" type="line"/>
      <point x="368" y="607" type="line"/>
      <point x="614" y="607" type="line"/>
      <point x="614" y="700" type="line"/>
      <point x="17" y="700" type="line"/>
      <point x="17" y="607" type="line"/>
      <point x="263" y="607" type="line"/>
    </contour>
  </outline>
</glyph>
<glyph name="U" format="2">
  <advance width="713"/>
  <unicode hex="0055"/>
  <anchor x="356" y="700" name="top"/>
  <anchor x="438" y="0" name="bottom"/>
  <outline>
    <contour>
      <point x="356" y="-11" type="curve" smooth="yes"/>
      <point x="538" y="-11"/>
      <point x="654" y="110"/>
      <point x="654" y="299" type="curve" smooth="yes"/>
      <point x="654" y="700" type="line"/>
      <point x="549" y="700" type="line"/>
      <point x="549" y="299" type="line" smooth="yes"/>
      <point x="549" y="169"/>
      <point x="474" y="86"/>
      <point x="356" y="86" type="curve" smooth="yes"/>
      <point x="239" y="86"/>
      <point x="164" y="169"/>
      <point x="164" y="299" type="curve" smooth="yes"/>
      <point x="164" y="700" type="line"/>
      <point x="59" y="700" type="line"/>
      <point x="59" y="299" type="line" smooth="yes"/>
      <point x="59" y="108"/>
      <point x="173" y="-11"/>
    </contour>
  </outline>
</glyph>
<glyph name="V" format="2">
  <advance width="701"/>
  <unicode hex="0056"/>
  <outline>
    <contour>
      <point x="287" y="0" type="line"/>
      <point x="410" y="0" type="line"/>
      <point x="700" y="700" type="line"/>
      <point x="592" y="700" type="line"/>
      <point x="351" y="104" type="line"/>
      <point x="114" y="700" type="line"/>
      <point x="1" y="700" type="line"/>
    </contour>
  </outline>
</glyph>
<glyph name="W" format="2">
  <advance width="908"/>
  <unicode hex="0057"/>
  <anchor x="452" y="700" name="top"/>
  <outline>
    <contour>
      <point x="184" y="0" type="line"/>
      <point x="293" y="0" type="line"/>
      <point x="455" y="550" type="line"/>
      <point x="616" y="0" type="line"/>
      <point x="724" y="0" type="line"/>
      <point x="877" y="700" type="line"/>
      <point x="774" y="700" type="line"/>
      <point x="664" y="166" type="line"/>
      <point x="506" y="700" type="line"/>
      <point x="406" y="700" type="line"/>
      <point x="248" y="165" type="line"/>
      <point x="139" y="700" type="line"/>
      <point x="31" y="700" type="line"/>
    </contour>
  </outline>
</glyph>
<glyph name="X" format="2">
  <advance width="663"/>
  <unicode hex="0058"/>
  <outline>
    <contour>
      <point x="1" y="0" type="line"/>
      <point x="122" y="0" type="line"/>
      <point x="330" y="284" type="line"/>
      <point x="537" y="0" type="line"/>
      <point x="663" y="0" type="line"/>
      <point x="392" y="363" type="line"/>
      <point x="642" y="700" type="line"/>
      <point x="520" y="700" type="line"/>
      <point x="332" y="442" type="line"/>
      <point x="143" y="700" type="line"/>
      <point x="16" y="700" type="line"/>
      <point x="269" y="362" type="line"/>
    </contour>
  </outline>
</glyph>
<glyph name="Y" format="2">
  <advance width="666"/>
  <unicode hex="0059"/>
  <anchor x="334" y="700" name="top"/>
  <outline>
    <contour>
      <point x="281" y="0" type="line"/>
      <point x="386" y="0" type="line"/>
      <point x="386" y="276" type="line"/>
      <point x="668" y="700" type="line"/>
      <point x="551" y="700" type="line"/>
      <point x="336" y="371" type="line"/>
      <point x="121" y="700" type="line"/>
      <point x="-1" y="700" type="line"/>
      <point x="281" y="278" type="line"/>
    </contour>
  </outline>
</glyph>
<glyph name="Z" format="2">
  <advance width="609"/>
  <unicode hex="005A"/>
  <anchor x="312" y="700" name="top"/>
  <outline>
    <contour>
      <point x="23" y="0" type="line"/>
      <point x="587" y="0" type="line"/>
      <point x="587" y="92" type="line"/>
      <point x="159" y="92" type="line"/>
      <point x="581" y="627" type="line"/>
      <point x="581" y="700" type="line"/>
      <point x="27" y="700" type="line"/>
      <point x="27" y="608" type="line"/>
      <point x="443" y="608" type="line"/>
      <point x="23" y="73" type="line"/>
    </contour>
  </outline>
</glyph>
<glyph name="bracketleft" format="2">
  <advance width="366"/>
  <unicode hex="005B"/>
  <outline>
    <contour>
      <point x="57" y="-209" type="line"/>
      <point x="328" y="-209" type="line"/>
      <point x="328" y="-130" type="line"/>
      <point x="152" y="-130" type="line"/>
      <point x="152" y="621" type="line"/>
      <point x="328" y="621" type="line"/>
      <point x="328" y="700" type="line"/>
      <point x="57" y="700" type="line"/>
    </contour>
  </outline>
</glyph>
<glyph name="backslash" format="2">
  <advance width="486"/>
  <unicode hex="005C"/>
  <outline>
    <contour>
      <point x="446" y="-205" type="line"/>
      <point x="549" y="-205" type="line"/>
      <point x="133" y="700" type="line"/>
      <point x="30" y="700" type="line"/>
    </contour>
  </outline>
</glyph>
<glyph name="asciicircum" format="2">
  <advance width="555"/>
  <unicode hex="005E"/>
  <outline>
    <contour>
      <point x="52" y="350" type="line"/>
      <point x="137" y="350" type="line"/>
      <point x="277" y="620" type="line"/>
      <point x="418" y="350" type="line"/>
      <point x="503" y="350" type="line"/>
      <point x="320" y="700" type="line"/>
      <point x="235" y="700" type="line"/>
    </contour>
  </outline>
</glyph>
<glyph name="underscore" format="2">
  <advance width="487"/>
  <unicode hex="005F"/>
  <outline>
    <contour>
      <point x="-1" y="-153" type="line"/>
      <point x="488" y="-153" type="line"/>
      <point x="488" y="-80" type="line"/>
      <point x="-1" y="-80" type="line"/>
    </contour>
  </outline>
</glyph>
<glyph name="grave" format="2">
  <advance width="600"/>
  <unicode hex="0060"/>
  <outline>
    <contour>
      <point x="278" y="603" type="line"/>
      <point x="362" y="603" type="line"/>
      <point x="272" y="725" type="line"/>
      <point x="150" y="725" type="line"/>
    </contour>
  </outline>
</glyph>
<glyph name="a" format="2">
  <advance width="532"/>
  <unicode hex="0061"/>
  <note>
Version created Mon Aug  6 16:22:34 2018
</note>
  <anchor x="258" y="509" name="top"/>
  <anchor x="476" y="0" name="bottom"/>
  <outline>
    <contour>
      <point x="220" y="-9" type="curve" smooth="yes"/>
      <point x="282" y="-9"/>
      <point x="333" y="8"/>
      <point x="378" y="44" type="curve"/>
      <point x="378" y="0" type="line"/>
      <point x="476" y="0" type="line"/>
      <point x="476" y="338" type="line" smooth="yes"/>
      <point x="476" y="454"/>
      <point x="401" y="519"/>
      <point x="268" y="519" type="curve" smooth="yes"/>
      <point x="201" y="519"/>
      <point x="136" y="503"/>
      <point x="59" y="467" type="curve"/>
      <point x="96" y="392" type="line"/>
      <point x="159" y="422"/>
      <point x="207" y="435"/>
      <point x="254" y="435" type="curve" smooth="yes"/>
      <point x="335" y="435"/>
      <point x="378" y="398"/>
      <point x="378" y="326" type="curve" smooth="yes"/>
      <point x="378" y="272" type="line"/>
      <point x="336" y="291"/>
      <point x="288" y="301"/>
      <point x="239" y="301" type="curve" smooth="yes"/>
      <point x="111" y="301"/>
      <point x="33" y="242"/>
      <point x="33" y="146" type="curve" smooth="yes"/>
      <point x="33" y="54"/>
      <point x="110" y="-9"/>
    </contour>
    <contour>
      <point x="129" y="148" type="curve" smooth="yes"/>
      <point x="129" y="199"/>
      <point x="174" y="232"/>
      <point x="247" y="232" type="curve" smooth="yes"/>
      <point x="298" y="232"/>
      <point x="340" y="222"/>
      <point x="378" y="200" type="curve"/>
      <point x="378" y="114" type="line"/>
      <point x="341" y="81"/>
      <point x="297" y="66"/>
      <point x="243" y="66" type="curve" smooth="yes"/>
      <point x="175" y="66"/>
      <point x="129" y="99"/>
    </contour>
  </outline>
</glyph>
<glyph name="c" format="2">
  <advance width="521"/>
  <unicode hex="0063"/>
  <anchor x="297" y="509" name="top"/>
  <anchor x="300" y="0" name="bottom"/>
  <outline>
    <contour>
      <point x="298" y="-9" type="curve" smooth="yes"/>
      <point x="374" y="-9"/>
      <point x="446" y="22"/>
      <point x="500" y="76" type="curve"/>
      <point x="439" y="140" type="line"/>
      <point x="398" y="99"/>
      <point x="353" y="79"/>
      <point x="302" y="79" type="curve" smooth="yes"/>
      <point x="208" y="79"/>
      <point x="135" y="155"/>
      <point x="135" y="255" type="curve" smooth="yes"/>
      <point x="135" y="353"/>
      <point x="207" y="430"/>
      <point x="300" y="430" type="curve" smooth="yes"/>
      <point x="352" y="430"/>
      <point x="401" y="408"/>
      <point x="440" y="366" type="curve"/>
      <point x="502" y="435" type="line"/>
      <point x="450" y="488"/>
      <point x="375" y="519"/>
      <point x="298" y="519" type="curve" smooth="yes"/>
      <point x="151" y="519"/>
      <point x="36" y="403"/>
      <point x="36" y="255" type="curve" smooth="yes"/>
      <point x="36" y="106"/>
      <point x="151" y="-9"/>
    </contour>
  </outline>
</glyph>
<glyph name="e" format="2">
  <advance width="573"/>
  <unicode hex="0065"/>
  <anchor x="290" y="509" name="top"/>
  <anchor x="382" y="0" name="bottom"/>
  <outline>
    <contour>
      <point x="303" y="-9" type="curve" smooth="yes"/>
      <point x="379" y="-9"/>
      <point x="440" y="12"/>
      <point x="500" y="58" type="curve"/>
      <point x="436" y="121" type="line"/>
      <point x="404" y="92"/>
      <point x="357" y="76"/>
      <point x="307" y="76" type="curve" smooth="yes"/>
      <point x="219" y="76"/>
      <point x="150" y="138"/>
      <point x="136" y="222" type="curve"/>
      <point x="537" y="222" type="line"/>
      <point x="537" y="250" type="line" smooth="yes"/>
      <point x="537" y="401"/>
      <point x="431" y="518"/>
      <point x="291" y="518" type="curve" smooth="yes"/>
      <point x="148" y="518"/>
      <point x="36" y="402"/>
      <point x="36" y="255" type="curve" smooth="yes"/>
      <point x="36" y="106"/>
      <point x="153" y="-9"/>
    </contour>
    <contour>
      <point x="137" y="297" type="line"/>
      <point x="151" y="378"/>
      <point x="212" y="433"/>
      <point x="289" y="433" type="curve" smooth="yes"/>
      <point x="363" y="433"/>
      <point x="424" y="375"/>
      <point x="438" y="297" type="curve"/>
    </contour>
  </outline>
</glyph>
<glyph name="f" format="2">
  <advance width="397"/>
  <unicode hex="0066"/>
  <outline>
    <contour>
      <point x="135" y="0" type="line"/>
      <point x="234" y="0" type="line"/>
      <point x="234" y="425" type="line"/>
      <point x="380" y="425" type="line"/>
      <point x="380" y="509" type="line"/>
      <point x="234" y="509" type="line"/>
      <point x="234" y="583" type="line" smooth="yes"/>
      <point x="234" y="638"/>
      <point x="261" y="664"/>
      <point x="317" y="664" type="curve" smooth="yes"/>
      <point x="340" y="664"/>
      <point x="356" y="661"/>
      <point x="380" y="654" type="curve"/>
      <point x="380" y="740" type="line"/>
      <point x="359" y="747"/>
      <point x="335" y="750"/>
      <point x="307" y="750" type="curve" smooth="yes"/>
      <point x="196" y="750"/>
      <point x="135" y="692"/>
      <point x="135" y="586" type="curve" smooth="yes"/>
      <point x="135" y="509" type="line"/>
      <point x="17" y="509" type="line"/>
      <point x="17" y="425" type="line"/>
      <point x="135" y="425" type="line"/>
    </contour>
  </outline>
</glyph>
<glyph name="g" format="2">
  <advance width="603"/>
  <unicode hex="0067"/>
  <note>
Version created Sun Jan 13 16:53:00 2019
</note>
  <anchor x="300" y="509" name="top"/>
  <outline>
    <contour>
      <point x="311" y="-214" type="curve" smooth="yes"/>
      <point x="461" y="-214"/>
      <point x="544" y="-141"/>
      <point x="544" y="-8" type="curve" smooth="yes"/>
      <point x="544" y="509" type="line"/>
      <point x="445" y="509" type="line"/>
      <point x="445" y="466" type="line"/>
      <point x="401" y="499"/>
      <point x="349" y="518"/>
      <point x="295" y="518" type="curve" smooth="yes"/>
      <point x="149" y="518"/>
      <point x="36" y="403"/>
      <point x="36" y="257" type="curve" smooth="yes"/>
      <point x="36" y="111"/>
      <point x="149" y="-3"/>
      <point x="291" y="-3" type="curve" smooth="yes"/>
      <point x="348" y="-3"/>
      <point x="400" y="15"/>
      <point x="444" y="50" type="curve"/>
      <point x="444" y="-8" type="line" smooth="yes"/>
      <point x="444" y="-88"/>
      <point x="397" y="-130"/>
      <point x="308" y="-130" type="curve" smooth="yes"/>
      <point x="255" y="-130"/>
      <point x="204" y="-116"/>
      <point x="144" y="-86" type="curve"/>
      <point x="106" y="-164" type="line"/>
      <point x="164" y="-196"/>
      <point x="236" y="-214"/>
    </contour>
    <contour>
      <point x="304" y="83" type="curve" smooth="yes"/>
      <point x="208" y="83"/>
      <point x="134" y="159"/>
      <point x="134" y="257" type="curve" smooth="yes"/>
      <point x="134" y="355"/>
      <point x="208" y="431"/>
      <point x="304" y="431" type="curve" smooth="yes"/>
      <point x="361" y="431"/>
      <point x="412" y="409"/>
      <point x="444" y="371" type="curve"/>
      <point x="444" y="143" type="line"/>
      <point x="412" y="104"/>
      <point x="362" y="83"/>
    </contour>
  </outline>
</glyph>
<glyph name="h" format="2">
  <advance width="567"/>
  <unicode hex="0068"/>
  <anchor x="108" y="700" name="top"/>
  <outline>
    <contour>
      <point x="59" y="0" type="line"/>
      <point x="159" y="0" type="line"/>
      <point x="159" y="366" type="line"/>
      <point x="187" y="408"/>
      <point x="230" y="432"/>
      <point x="284" y="432" type="curve" smooth="yes"/>
      <point x="362" y="432"/>
      <point x="411" y="382"/>
      <point x="411" y="303" type="curve" smooth="yes"/>
      <point x="411" y="0" type="line"/>
      <point x="511" y="0" type="line"/>
      <point x="511" y="320" type="line" smooth="yes"/>
      <point x="511" y="438"/>
      <point x="429" y="519"/>
      <point x="312" y="519" type="curve" smooth="yes"/>
      <point x="251" y="519"/>
      <point x="198" y="498"/>
      <point x="159" y="457" type="curve"/>
      <point x="159" y="722" type="line"/>
      <point x="59" y="700" type="line"/>
    </contour>
  </outline>
</glyph>
<glyph name="i" format="2">
  <advance width="218"/>
  <unicode hex="0069"/>
  <anchor x="109" y="509" name="top"/>
  <anchor x="159" y="0" name="bottom"/>
  <outline>
    <contour>
      <point x="59" y="0" type="line"/>
      <point x="159" y="0" type="line"/>
      <point x="159" y="509" type="line"/>
      <point x="59" y="509" type="line"/>
    </contour>
    <contour>
      <point x="109" y="591" type="curve" smooth="yes"/>
      <point x="143" y="591"/>
      <point x="171" y="619"/>
      <point x="171" y="653" type="curve" smooth="yes"/>
      <point x="171" y="687"/>
      <point x="143" y="714"/>
      <point x="109" y="714" type="curve" smooth="yes"/>
      <point x="76" y="714"/>
      <point x="48" y="687"/>
      <point x="48" y="653" type="curve" smooth="yes"/>
      <point x="48" y="619"/>
      <point x="76" y="591"/>
    </contour>
  </outline>
</glyph>
<glyph name="j" format="2">
  <advance width="218"/>
  <unicode hex="006A"/>
  <outline>
    <contour>
      <point x="109" y="591" type="curve" smooth="yes"/>
      <point x="143" y="591"/>
      <point x="171" y="619"/>
      <point x="171" y="653" type="curve" smooth="yes"/>
      <point x="171" y="687"/>
      <point x="143" y="714"/>
      <point x="109" y="714" type="curve" smooth="yes"/>
      <point x="76" y="714"/>
      <point x="48" y="687"/>
      <point x="48" y="653" type="curve" smooth="yes"/>
      <point x="48" y="619"/>
      <point x="76" y="591"/>
    </contour>
    <contour>
      <point x="14" y="-214" type="curve" smooth="yes"/>
      <point x="106" y="-214"/>
      <point x="159" y="-164"/>
      <point x="159" y="-76" type="curve" smooth="yes"/>
      <point x="159" y="509" type="line"/>
      <point x="59" y="509" type="line"/>
      <point x="59" y="-69" type="line" smooth="yes"/>
      <point x="59" y="-113"/>
      <point x="41" y="-131"/>
      <point x="-3" y="-131" type="curve" smooth="yes"/>
      <point x="-19" y="-131"/>
      <point x="-30" y="-130"/>
      <point x="-43" y="-127" type="curve"/>
      <point x="-43" y="-207" type="line"/>
      <point x="-30" y="-211"/>
      <point x="-8" y="-214"/>
    </contour>
  </outline>
</glyph>
<glyph name="k" format="2">
  <advance width="524"/>
  <unicode hex="006B"/>
  <anchor x="264" y="0" name="bottom"/>
  <outline>
    <contour>
      <point x="59" y="0" type="line"/>
      <point x="159" y="0" type="line"/>
      <point x="159" y="239" type="line"/>
      <point x="405" y="0" type="line"/>
      <point x="537" y="0" type="line"/>
      <point x="260" y="271" type="line"/>
      <point x="523" y="509" type="line"/>
      <point x="406" y="509" type="line"/>
      <point x="159" y="286" type="line"/>
      <point x="159" y="719" type="line"/>
      <point x="59" y="700" type="line"/>
    </contour>
  </outline>
</glyph>
<glyph name="l" format="2">
  <advance width="218"/>
  <unicode hex="006C"/>
  <anchor x="109" y="700" name="top"/>
  <anchor x="109" y="0" name="bottom"/>
  <outline>
    <contour>
      <point x="59" y="0" type="line"/>
      <point x="159" y="0" type="line"/>
      <point x="159" y="719" type="line"/>
      <point x="59" y="700" type="line"/>
    </contour>
  </outline>
</glyph>
<glyph name="m" format="2">
  <advance width="878"/>
  <unicode hex="006D"/>
  <outline>
    <contour>
      <point x="59" y="0" type="line"/>
      <point x="159" y="0" type="line"/>
      <point x="159" y="370" type="line"/>
      <point x="187" y="411"/>
      <point x="226" y="432"/>
      <point x="274" y="432" type="curve" smooth="yes"/>
      <point x="345" y="432"/>
      <point x="391" y="382"/>
      <point x="391" y="303" type="curve" smooth="yes"/>
      <point x="391" y="0" type="line"/>
      <point x="490" y="0" type="line"/>
      <point x="490" y="320" type="line" smooth="yes"/>
      <point x="490" y="335"/>
      <point x="488" y="349"/>
      <point x="486" y="363" type="curve"/>
      <point x="515" y="409"/>
      <point x="556" y="432"/>
      <point x="605" y="432" type="curve" smooth="yes"/>
      <point x="677" y="432"/>
      <point x="722" y="382"/>
      <point x="722" y="303" type="curve" smooth="yes"/>
      <point x="722" y="0" type="line"/>
      <point x="822" y="0" type="line"/>
      <point x="822" y="320" type="line" smooth="yes"/>
      <point x="822" y="438"/>
      <point x="744" y="519"/>
      <point x="631" y="519" type="curve" smooth="yes"/>
      <point x="559" y="519"/>
      <point x="501" y="490"/>
      <point x="459" y="434" type="curve"/>
      <point x="427" y="487"/>
      <point x="371" y="519"/>
      <point x="302" y="519" type="curve" smooth="yes"/>
      <point x="245" y="519"/>
      <point x="197" y="499"/>
      <point x="159" y="460" type="curve"/>
      <point x="159" y="509" type="line"/>
      <point x="59" y="509" type="line"/>
    </contour>
  </outline>
</glyph>
<glyph name="n" format="2">
  <advance width="567"/>
  <unicode hex="006E"/>
  <anchor x="285" y="509" name="top"/>
  <anchor x="285" y="0" name="bottom"/>
  <outline>
    <contour>
      <point x="59" y="0" type="line"/>
      <point x="159" y="0" type="line"/>
      <point x="159" y="366" type="line"/>
      <point x="187" y="408"/>
      <point x="230" y="432"/>
      <point x="284" y="432" type="curve" smooth="yes"/>
      <point x="362" y="432"/>
      <point x="411" y="382"/>
      <point x="411" y="303" type="curve"/>
      <point x="411" y="0" type="line"/>
      <point x="511" y="0" type="line"/>
      <point x="511" y="320" type="line" smooth="yes"/>
      <point x="511" y="438"/>
      <point x="429" y="519"/>
      <point x="312" y="519" type="curve"/>
      <point x="251" y="519"/>
      <point x="198" y="498"/>
      <point x="159" y="457" type="curve"/>
      <point x="159" y="509" type="line"/>
      <point x="59" y="509" type="line"/>
    </contour>
  </outline>
</glyph>
<glyph name="o" format="2">
  <advance width="602"/>
  <unicode hex="006F"/>
  <anchor x="301" y="509" name="top"/>
  <outline>
    <contour>
      <point x="301" y="-10" type="curve" smooth="yes"/>
      <point x="449" y="-10"/>
      <point x="566" y="106"/>
      <point x="566" y="254" type="curve" smooth="yes"/>
      <point x="566" y="402"/>
      <point x="449" y="519"/>
      <point x="301" y="519" type="curve" smooth="yes"/>
      <point x="153" y="519"/>
      <point x="36" y="402"/>
      <point x="36" y="254" type="curve" smooth="yes"/>
      <point x="36" y="106"/>
      <point x="153" y="-10"/>
    </contour>
    <contour>
      <point x="301" y="78" type="curve" smooth="yes"/>
      <point x="208" y="78"/>
      <point x="134" y="155"/>
      <point x="134" y="254" type="curve" smooth="yes"/>
      <point x="134" y="353"/>
      <point x="208" y="431"/>
      <point x="301" y="431" type="curve" smooth="yes"/>
      <point x="394" y="431"/>
      <point x="468" y="353"/>
      <point x="468" y="254" type="curve" smooth="yes"/>
      <point x="468" y="155"/>
      <point x="394" y="78"/>
    </contour>
  </outline>
</glyph>
<glyph name="p" format="2">
  <advance width="607"/>
  <unicode hex="0070"/>
  <outline>
    <contour>
      <point x="59" y="-204" type="line"/>
      <point x="159" y="-204" type="line"/>
      <point x="159" y="44" type="line"/>
      <point x="203" y="11"/>
      <point x="256" y="-8"/>
      <point x="312" y="-8" type="curve" smooth="yes"/>
      <point x="458" y="-8"/>
      <point x="571" y="107"/>
      <point x="571" y="255" type="curve" smooth="yes"/>
      <point x="571" y="402"/>
      <point x="459" y="517"/>
      <point x="314" y="517" type="curve" smooth="yes"/>
      <point x="254" y="517"/>
      <point x="200" y="497"/>
      <point x="158" y="460" type="curve"/>
      <point x="158" y="509" type="line"/>
      <point x="59" y="509" type="line"/>
    </contour>
    <contour>
      <point x="301" y="79" type="curve" smooth="yes"/>
      <point x="244" y="79"/>
      <point x="192" y="101"/>
      <point x="159" y="139" type="curve"/>
      <point x="159" y="369" type="line"/>
      <point x="192" y="408"/>
      <point x="243" y="430"/>
      <point x="301" y="430" type="curve" smooth="yes"/>
      <point x="398" y="430"/>
      <point x="473" y="354"/>
      <point x="473" y="254" type="curve" smooth="yes"/>
      <point x="473" y="154"/>
      <point x="399" y="79"/>
    </contour>
  </outline>
</glyph>
<glyph name="q" format="2">
  <advance width="607"/>
  <unicode hex="0071"/>
  <outline>
    <contour>
      <point x="448" y="-204" type="line"/>
      <point x="548" y="-204" type="line"/>
      <point x="548" y="509" type="line"/>
      <point x="449" y="509" type="line"/>
      <point x="449" y="466" type="line"/>
      <point x="406" y="498"/>
      <point x="352" y="517"/>
      <point x="295" y="517" type="curve" smooth="yes"/>
      <point x="149" y="517"/>
      <point x="36" y="402"/>
      <point x="36" y="255" type="curve" smooth="yes"/>
      <point x="36" y="107"/>
      <point x="149" y="-8"/>
      <point x="293" y="-8" type="curve" smooth="yes"/>
      <point x="352" y="-8"/>
      <point x="406" y="12"/>
      <point x="448" y="48" type="curve"/>
    </contour>
    <contour>
      <point x="306" y="79" type="curve" smooth="yes"/>
      <point x="209" y="79"/>
      <point x="134" y="156"/>
      <point x="134" y="256" type="curve" smooth="yes"/>
      <point x="134" y="356"/>
      <point x="209" y="431"/>
      <point x="306" y="431" type="curve" smooth="yes"/>
      <point x="363" y="431"/>
      <point x="415" y="408"/>
      <point x="448" y="370" type="curve"/>
      <point x="448" y="141" type="line"/>
      <point x="415" y="101"/>
      <point x="364" y="79"/>
    </contour>
  </outline>
</glyph>
<glyph name="r" format="2">
  <advance width="371"/>
  <unicode hex="0072"/>
  <anchor x="202" y="509" name="top"/>
  <anchor x="108" y="0" name="bottom"/>
  <outline>
    <contour>
      <point x="59" y="0" type="line"/>
      <point x="159" y="0" type="line"/>
      <point x="159" y="341" type="line"/>
      <point x="185" y="401"/>
      <point x="232" y="433"/>
      <point x="291" y="433" type="curve" smooth="yes"/>
      <point x="311" y="433"/>
      <point x="331" y="429"/>
      <point x="350" y="422" type="curve"/>
      <point x="350" y="512" type="line"/>
      <point x="335" y="518"/>
      <point x="321" y="520"/>
      <point x="299" y="521" type="curve" smooth="yes"/>
      <point x="239" y="521"/>
      <point x="191" y="493"/>
      <point x="159" y="444" type="curve"/>
      <point x="159" y="509" type="line"/>
      <point x="59" y="509" type="line"/>
    </contour>
  </outline>
</glyph>
<glyph name="s" format="2">
  <advance width="465"/>
  <unicode hex="0073"/>
  <note>
Version created Fri Aug  3 17:49:29 2018
</note>
  <anchor x="230" y="509" name="top"/>
  <anchor x="235" y="0" name="bottom"/>
  <outline>
    <contour>
      <point x="234" y="-10" type="curve" smooth="yes"/>
      <point x="355" y="-10"/>
      <point x="447" y="59"/>
      <point x="447" y="151" type="curve" smooth="yes"/>
      <point x="447" y="230"/>
      <point x="394" y="279"/>
      <point x="293" y="293" type="curve" smooth="yes"/>
      <point x="201" y="306" type="line" smooth="yes"/>
      <point x="141" y="314"/>
      <point x="117" y="333"/>
      <point x="117" y="371" type="curve" smooth="yes"/>
      <point x="117" y="413"/>
      <point x="158" y="441"/>
      <point x="219" y="441" type="curve" smooth="yes"/>
      <point x="273" y="441"/>
      <point x="324" y="424"/>
      <point x="380" y="387" type="curve"/>
      <point x="431" y="453" type="line"/>
      <point x="368" y="497"/>
      <point x="301" y="519"/>
      <point x="227" y="519" type="curve" smooth="yes"/>
      <point x="107" y="519"/>
      <point x="27" y="456"/>
      <point x="27" y="365" type="curve" smooth="yes"/>
      <point x="27" y="285"/>
      <point x="77" y="236"/>
      <point x="179" y="222" type="curve" smooth="yes"/>
      <point x="271" y="209" type="line" smooth="yes"/>
      <point x="327" y="201"/>
      <point x="353" y="180"/>
      <point x="353" y="143" type="curve" smooth="yes"/>
      <point x="353" y="98"/>
      <point x="303" y="67"/>
      <point x="231" y="67" type="curve" smooth="yes"/>
      <point x="174" y="67"/>
      <point x="118" y="89"/>
      <point x="66" y="131" type="curve"/>
      <point x="11" y="65" type="line"/>
      <point x="67" y="17"/>
      <point x="146" y="-10"/>
    </contour>
  </outline>
</glyph>
<glyph name="t" format="2">
  <advance width="389"/>
  <unicode hex="0074"/>
  <anchor x="241" y="0" name="bottom"/>
  <outline>
    <contour>
      <point x="277" y="-9" type="curve" smooth="yes"/>
      <point x="306" y="-9"/>
      <point x="345" y="-4"/>
      <point x="372" y="5" type="curve"/>
      <point x="372" y="89" type="line"/>
      <point x="347" y="80"/>
      <point x="327" y="77"/>
      <point x="299" y="77" type="curve" smooth="yes"/>
      <point x="245" y="77"/>
      <point x="224" y="97"/>
      <point x="224" y="149" type="curve" smooth="yes"/>
      <point x="224" y="425" type="line"/>
      <point x="374" y="425" type="line"/>
      <point x="374" y="509" type="line"/>
      <point x="224" y="509" type="line"/>
      <point x="224" y="663" type="line"/>
      <point x="125" y="639" type="line"/>
      <point x="125" y="509" type="line"/>
      <point x="17" y="509" type="line"/>
      <point x="17" y="425" type="line"/>
      <point x="125" y="425" type="line"/>
      <point x="125" y="126" type="line" smooth="yes"/>
      <point x="125" y="37"/>
      <point x="178" y="-9"/>
    </contour>
  </outline>
</glyph>
<glyph name="u" format="2">
  <advance width="567"/>
  <unicode hex="0075"/>
  <anchor x="283" y="509" name="top"/>
  <anchor x="509" y="0" name="bottom"/>
  <outline>
    <contour>
      <point x="256" y="-10" type="curve" smooth="yes"/>
      <point x="317" y="-10"/>
      <point x="369" y="11"/>
      <point x="408" y="52" type="curve"/>
      <point x="408" y="0" type="line"/>
      <point x="508" y="0" type="line"/>
      <point x="508" y="509" type="line"/>
      <point x="408" y="509" type="line"/>
      <point x="408" y="144" type="line"/>
      <point x="381" y="101"/>
      <point x="337" y="77"/>
      <point x="283" y="77" type="curve" smooth="yes"/>
      <point x="205" y="77"/>
      <point x="156" y="127"/>
      <point x="156" y="207" type="curve" smooth="yes"/>
      <point x="156" y="509" type="line"/>
      <point x="57" y="509" type="line"/>
      <point x="57" y="190" type="line" smooth="yes"/>
      <point x="57" y="72"/>
      <point x="138" y="-10"/>
    </contour>
  </outline>
</glyph>
<glyph name="v" format="2">
  <advance width="540"/>
  <unicode hex="0076"/>
  <outline>
    <contour>
      <point x="223" y="0" type="line"/>
      <point x="319" y="0" type="line"/>
      <point x="537" y="509" type="line"/>
      <point x="431" y="509" type="line"/>
      <point x="272" y="128" type="line"/>
      <point x="113" y="509" type="line"/>
      <point x="3" y="509" type="line"/>
    </contour>
  </outline>
</glyph>
<glyph name="w" format="2">
  <advance width="731"/>
  <unicode hex="0077"/>
  <anchor x="366" y="509" name="top"/>
  <outline>
    <contour>
      <point x="154" y="0" type="line"/>
      <point x="251" y="0" type="line"/>
      <point x="366" y="373" type="line"/>
      <point x="480" y="0" type="line"/>
      <point x="576" y="0" type="line"/>
      <point x="719" y="509" type="line"/>
      <point x="625" y="509" type="line"/>
      <point x="526" y="135" type="line"/>
      <point x="410" y="509" type="line"/>
      <point x="324" y="509" type="line"/>
      <point x="208" y="135" type="line"/>
      <point x="109" y="509" type="line"/>
      <point x="12" y="509" type="line"/>
    </contour>
  </outline>
</glyph>
<glyph name="x" format="2">
  <advance width="517"/>
  <unicode hex="0078"/>
  <outline>
    <contour>
      <point x="2" y="0" type="line"/>
      <point x="115" y="0" type="line"/>
      <point x="256" y="188" type="line"/>
      <point x="397" y="0" type="line"/>
      <point x="514" y="0" type="line"/>
      <point x="314" y="262" type="line"/>
      <point x="502" y="509" type="line"/>
      <point x="389" y="509" type="line"/>
      <point x="258" y="335" type="line"/>
      <point x="127" y="509" type="line"/>
      <point x="10" y="509" type="line"/>
      <point x="200" y="261" type="line"/>
    </contour>
  </outline>
</glyph>
<glyph name="y" format="2">
  <advance width="537"/>
  <unicode hex="0079"/>
  <anchor x="265" y="509" name="top"/>
  <outline>
    <contour>
      <point x="93" y="-215" type="curve" smooth="yes"/>
      <point x="186" y="-215"/>
      <point x="241" y="-172"/>
      <point x="288" y="-63" type="curve" smooth="yes"/>
      <point x="534" y="509" type="line"/>
      <point x="426" y="509" type="line"/>
      <point x="262" y="121" type="line"/>
      <point x="114" y="509" type="line"/>
      <point x="3" y="509" type="line"/>
      <point x="207" y="-1" type="line"/>
      <point x="185" y="-50" type="line" smooth="yes"/>
      <point x="164" y="-101"/>
      <point x="131" y="-125"/>
      <point x="84" y="-125" type="curve" smooth="yes"/>
      <point x="65" y="-125"/>
      <point x="53" y="-124"/>
      <point x="40" y="-121" type="curve"/>
      <point x="40" y="-209" type="line"/>
      <point x="52" y="-213"/>
      <point x="71" y="-215"/>
    </contour>
  </outline>
</glyph>
<glyph name="z" format="2">
  <advance width="478"/>
  <unicode hex="007A"/>
  <anchor x="235" y="509" name="top"/>
  <outline>
    <contour>
      <point x="29" y="0" type="line"/>
      <point x="445" y="0" type="line"/>
      <point x="445" y="86" type="line"/>
      <point x="154" y="86" type="line"/>
      <point x="440" y="436" type="line"/>
      <point x="440" y="509" type="line"/>
      <point x="32" y="509" type="line"/>
      <point x="32" y="423" type="line"/>
      <point x="315" y="423" type="line"/>
      <point x="29" y="74" type="line"/>
    </contour>
  </outline>
</glyph>
<glyph name="braceleft" format="2">
  <advance width="401"/>
  <unicode hex="007B"/>
  <outline>
    <contour>
      <point x="273" y="-216" type="curve" smooth="yes"/>
      <point x="303" y="-216"/>
      <point x="330" y="-211"/>
      <point x="361" y="-200" type="curve"/>
      <point x="344" y="-126" type="line"/>
      <point x="322" y="-134"/>
      <point x="303" y="-137"/>
      <point x="282" y="-137" type="curve" smooth="yes"/>
      <point x="222" y="-137"/>
      <point x="198" y="-90"/>
      <point x="223" y="-26" type="curve" smooth="yes"/>
      <point x="266" y="88" type="line" smooth="yes"/>
      <point x="294" y="160"/>
      <point x="257" y="227"/>
      <point x="179" y="248" type="curve"/>
      <point x="256" y="267"/>
      <point x="294" y="334"/>
      <point x="266" y="408" type="curve" smooth="yes"/>
      <point x="223" y="521" type="line" smooth="yes"/>
      <point x="198" y="585"/>
      <point x="222" y="632"/>
      <point x="282" y="632" type="curve" smooth="yes"/>
      <point x="303" y="632"/>
      <point x="322" y="629"/>
      <point x="344" y="621" type="curve"/>
      <point x="361" y="695" type="line"/>
      <point x="330" y="706"/>
      <point x="303" y="711"/>
      <point x="273" y="711" type="curve" smooth="yes"/>
      <point x="150" y="711"/>
      <point x="90" y="622"/>
      <point x="136" y="508" type="curve" smooth="yes"/>
      <point x="174" y="412" type="line" smooth="yes"/>
      <point x="202" y="342"/>
      <point x="173" y="286"/>
      <point x="104" y="286" type="curve" smooth="yes"/>
      <point x="23" y="286" type="line"/>
      <point x="23" y="209" type="line"/>
      <point x="104" y="209" type="line" smooth="yes"/>
      <point x="173" y="209"/>
      <point x="202" y="154"/>
      <point x="174" y="84" type="curve" smooth="yes"/>
      <point x="136" y="-14" type="line" smooth="yes"/>
      <point x="91" y="-128"/>
      <point x="150" y="-216"/>
    </contour>
  </outline>
</glyph>
<glyph name="bar" format="2">
  <advance width="298"/>
  <unicode hex="007C"/>
  <outline>
    <contour>
      <point x="104" y="-205" type="line"/>
      <point x="194" y="-205" type="line"/>
      <point x="194" y="700" type="line"/>
      <point x="104" y="700" type="line"/>
    </contour>
  </outline>
</glyph>
<glyph name="asciitilde" format="2">
  <advance width="584"/>
  <unicode hex="007E"/>
  <outline>
    <contour>
      <point x="108" y="295" type="line"/>
      <point x="115" y="352"/>
      <point x="138" y="381"/>
      <point x="177" y="381" type="curve" smooth="yes"/>
      <point x="193" y="381"/>
      <point x="207" y="376"/>
      <point x="240" y="359" type="curve" smooth="yes"/>
      <point x="323" y="318" type="line" smooth="yes"/>
      <point x="358" y="300"/>
      <point x="388" y="292"/>
      <point x="415" y="292" type="curve" smooth="yes"/>
      <point x="488" y="292"/>
      <point x="536" y="348"/>
      <point x="548" y="448" type="curve"/>
      <point x="478" y="456" type="line"/>
      <point x="469" y="398"/>
      <point x="447" y="370"/>
      <point x="408" y="370" type="curve" smooth="yes"/>
      <point x="391" y="370"/>
      <point x="374" y="376"/>
      <point x="344" y="391" type="curve" smooth="yes"/>
      <point x="261" y="432" type="line" smooth="yes"/>
      <point x="226" y="451"/>
      <point x="197" y="459"/>
      <point x="169" y="459" type="curve" smooth="yes"/>
      <point x="96" y="459"/>
      <point x="48" y="403"/>
      <point x="36" y="303" type="curve"/>
    </contour>
  </outline>
</glyph>
<glyph name="cent" format="2">
  <advance width="522"/>
  <unicode hex="00A2"/>
  <outline>
    <contour>
      <point x="267" y="-116" type="line"/>
      <point x="322" y="-116" type="line"/>
      <point x="322" y="-8" type="line"/>
      <point x="389" y="-3"/>
      <point x="452" y="28"/>
      <point x="500" y="76" type="curve"/>
      <point x="439" y="140" type="line"/>
      <point x="404" y="105"/>
      <point x="365" y="85"/>
      <point x="322" y="81" type="curve"/>
      <point x="322" y="428" type="line"/>
      <point x="366" y="424"/>
      <point x="407" y="402"/>
      <point x="440" y="366" type="curve"/>
      <point x="502" y="435" type="line"/>
      <point x="455" y="483"/>
      <point x="390" y="512"/>
      <point x="322" y="518" type="curve"/>
      <point x="322" y="614" type="line"/>
      <point x="267" y="614" type="line"/>
      <point x="267" y="518" type="line"/>
      <point x="135" y="502"/>
      <point x="36" y="392"/>
      <point x="36" y="255" type="curve" smooth="yes"/>
      <point x="36" y="117"/>
      <point x="135" y="7"/>
      <point x="267" y="-8" type="curve"/>
    </contour>
    <contour>
      <point x="135" y="255" type="curve" smooth="yes"/>
      <point x="135" y="341"/>
      <point x="190" y="411"/>
      <point x="267" y="426" type="curve"/>
      <point x="267" y="83" type="line"/>
      <point x="191" y="99"/>
      <point x="135" y="168"/>
    </contour>
  </outline>
</glyph>
<glyph name="sterling" format="2">
  <advance width="629"/>
  <unicode hex="00A3"/>
  <outline>
    <contour>
      <point x="463" y="-23" type="curve" smooth="yes"/>
      <point x="531" y="-23"/>
      <point x="581" y="9"/>
      <point x="619" y="75" type="curve"/>
      <point x="545" y="120" type="line"/>
      <point x="524" y="79"/>
      <point x="496" y="61"/>
      <point x="455" y="61" type="curve" smooth="yes"/>
      <point x="442" y="61"/>
      <point x="428" y="62"/>
      <point x="414" y="66" type="curve" smooth="yes"/>
      <point x="229" y="105" type="line"/>
      <point x="247" y="125"/>
      <point x="256" y="151"/>
      <point x="256" y="184" type="curve" smooth="yes"/>
      <point x="256" y="195"/>
      <point x="254" y="208"/>
      <point x="238" y="301" type="curve"/>
      <point x="426" y="301" type="line"/>
      <point x="426" y="371" type="line"/>
      <point x="224" y="371" type="line"/>
      <point x="208" y="461"/>
      <point x="207" y="477"/>
      <point x="207" y="493" type="curve" smooth="yes"/>
      <point x="207" y="578"/>
      <point x="254" y="627"/>
      <point x="341" y="627" type="curve" smooth="yes"/>
      <point x="418" y="627"/>
      <point x="469" y="585"/>
      <point x="490" y="507" type="curve"/>
      <point x="575" y="533" type="line"/>
      <point x="544" y="650"/>
      <point x="463" y="711"/>
      <point x="338" y="711" type="curve" smooth="yes"/>
      <point x="199" y="711"/>
      <point x="112" y="624"/>
      <point x="112" y="491" type="curve" smooth="yes"/>
      <point x="112" y="472"/>
      <point x="115" y="450"/>
      <point x="129" y="371" type="curve"/>
      <point x="40" y="371" type="line"/>
      <point x="40" y="301" type="line"/>
      <point x="142" y="301" type="line"/>
      <point x="164" y="182"/>
      <point x="164" y="174"/>
      <point x="164" y="167" type="curve" smooth="yes"/>
      <point x="164" y="143"/>
      <point x="156" y="124"/>
      <point x="142" y="113" type="curve"/>
      <point x="81" y="107"/>
      <point x="35" y="74"/>
      <point x="1" y="11" type="curve"/>
      <point x="75" y="-36" type="line"/>
      <point x="98" y="10"/>
      <point x="126" y="31"/>
      <point x="170" y="31" type="curve" smooth="yes"/>
      <point x="182" y="31"/>
      <point x="195" y="29"/>
      <point x="209" y="26" type="curve" smooth="yes"/>
      <point x="399" y="-15" type="line" smooth="yes"/>
      <point x="422" y="-20"/>
      <point x="443" y="-23"/>
    </contour>
  </outline>
</glyph>
<glyph name="uni00A4" format="2">
  <advance width="684"/>
  <unicode hex="00A4"/>
  <outline>
    <contour>
      <point x="89" y="56" type="line"/>
      <point x="183" y="151" type="line"/>
      <point x="227" y="118"/>
      <point x="282" y="98"/>
      <point x="342" y="98" type="curve" smooth="yes"/>
      <point x="401" y="98"/>
      <point x="456" y="117"/>
      <point x="500" y="151" type="curve"/>
      <point x="595" y="55" type="line"/>
      <point x="646" y="106" type="line"/>
      <point x="551" y="202" type="line"/>
      <point x="584" y="246"/>
      <point x="603" y="301"/>
      <point x="603" y="362" type="curve" smooth="yes"/>
      <point x="603" y="423"/>
      <point x="583" y="479"/>
      <point x="549" y="523" type="curve"/>
      <point x="645" y="618" type="line"/>
      <point x="595" y="668" type="line"/>
      <point x="500" y="572" type="line"/>
      <point x="456" y="606"/>
      <point x="401" y="625"/>
      <point x="342" y="625" type="curve" smooth="yes"/>
      <point x="283" y="625"/>
      <point x="228" y="606"/>
      <point x="184" y="573" type="curve"/>
      <point x="89" y="669" type="line"/>
      <point x="38" y="617" type="line"/>
      <point x="133" y="522" type="line"/>
      <point x="99" y="478"/>
      <point x="80" y="423"/>
      <point x="80" y="362" type="curve" smooth="yes"/>
      <point x="80" y="301"/>
      <point x="99" y="245"/>
      <point x="132" y="202" type="curve"/>
      <point x="38" y="107" type="line"/>
    </contour>
    <contour>
      <point x="342" y="185" type="curve" smooth="yes"/>
      <point x="249" y="185"/>
      <point x="175" y="263"/>
      <point x="175" y="362" type="curve" smooth="yes"/>
      <point x="175" y="461"/>
      <point x="249" y="538"/>
      <point x="342" y="538" type="curve" smooth="yes"/>
      <point x="435" y="538"/>
      <point x="509" y="461"/>
      <point x="509" y="362" type="curve" smooth="yes"/>
      <point x="509" y="263"/>
      <point x="435" y="185"/>
    </contour>
  </outline>
</glyph>
<glyph name="yen" format="2">
  <advance width="670"/>
  <unicode hex="00A5"/>
  <outline>
    <contour>
      <point x="284" y="0" type="line"/>
      <point x="389" y="0" type="line"/>
      <point x="389" y="133" type="line"/>
      <point x="570" y="133" type="line"/>
      <point x="570" y="195" type="line"/>
      <point x="389" y="195" type="line"/>
      <point x="389" y="263" type="line"/>
      <point x="570" y="263" type="line"/>
      <point x="570" y="325" type="line"/>
      <point x="419" y="325" type="line"/>
      <point x="664" y="700" type="line"/>
      <point x="548" y="700" type="line"/>
      <point x="340" y="371" type="line"/>
      <point x="127" y="700" type="line"/>
      <point x="5" y="700" type="line"/>
      <point x="254" y="325" type="line"/>
      <point x="100" y="325" type="line"/>
      <point x="100" y="263" type="line"/>
      <point x="284" y="263" type="line"/>
      <point x="284" y="195" type="line"/>
      <point x="100" y="195" type="line"/>
      <point x="100" y="133" type="line"/>
      <point x="284" y="133" type="line"/>
    </contour>
  </outline>
</glyph>
<glyph name="uni00A6" format="2">
  <advance width="300"/>
  <unicode hex="00A6"/>
  <outline>
    <contour>
      <point x="104" y="288" type="line"/>
      <point x="196" y="288" type="line"/>
      <point x="196" y="700" type="line"/>
      <point x="104" y="700" type="line"/>
    </contour>
    <contour>
      <point x="104" y="-205" type="line"/>
      <point x="196" y="-205" type="line"/>
      <point x="196" y="207" type="line"/>
      <point x="104" y="207" type="line"/>
    </contour>
  </outline>
</glyph>
<glyph name="section" format="2">
  <advance width="571"/>
  <unicode hex="00A7"/>
  <outline>
    <contour>
      <point x="280" y="-51" type="curve" smooth="yes"/>
      <point x="390" y="-51"/>
      <point x="463" y="5"/>
      <point x="463" y="92" type="curve" smooth="yes"/>
      <point x="463" y="131"/>
      <point x="449" y="162"/>
      <point x="420" y="187" type="curve"/>
      <point x="483" y="208"/>
      <point x="521" y="255"/>
      <point x="521" y="317" type="curve" smooth="yes"/>
      <point x="521" y="391"/>
      <point x="482" y="430"/>
      <point x="376" y="465" type="curve" smooth="yes"/>
      <point x="269" y="500" type="line" smooth="yes"/>
      <point x="220" y="516"/>
      <point x="199" y="538"/>
      <point x="199" y="572" type="curve" smooth="yes"/>
      <point x="199" y="615"/>
      <point x="233" y="641"/>
      <point x="291" y="641" type="curve" smooth="yes"/>
      <point x="334" y="641"/>
      <point x="385" y="625"/>
      <point x="441" y="593" type="curve"/>
      <point x="480" y="658" type="line"/>
      <point x="419" y="691"/>
      <point x="354" y="710"/>
      <point x="292" y="710" type="curve" smooth="yes"/>
      <point x="181" y="710"/>
      <point x="108" y="652"/>
      <point x="108" y="565" type="curve" smooth="yes"/>
      <point x="108" y="526"/>
      <point x="122" y="494"/>
      <point x="151" y="470" type="curve"/>
      <point x="89" y="450"/>
      <point x="50" y="403"/>
      <point x="50" y="341" type="curve" smooth="yes"/>
      <point x="50" y="267"/>
      <point x="88" y="228"/>
      <point x="195" y="194" type="curve" smooth="yes"/>
      <point x="303" y="158" type="line" smooth="yes"/>
      <point x="352" y="142"/>
      <point x="372" y="120"/>
      <point x="372" y="87" type="curve" smooth="yes"/>
      <point x="372" y="44"/>
      <point x="338" y="17"/>
      <point x="280" y="17" type="curve" smooth="yes"/>
      <point x="237" y="17"/>
      <point x="188" y="33"/>
      <point x="130" y="65" type="curve"/>
      <point x="92" y="-1" type="line"/>
      <point x="150" y="-34"/>
      <point x="216" y="-51"/>
    </contour>
    <contour>
      <point x="347" y="227" type="curve"/>
      <point x="342" y="229"/>
      <point x="338" y="231"/>
      <point x="333" y="232" type="curve" smooth="yes"/>
      <point x="217" y="269" type="line" smooth="yes"/>
      <point x="159" y="289"/>
      <point x="135" y="313"/>
      <point x="135" y="350" type="curve" smooth="yes"/>
      <point x="135" y="393"/>
      <point x="169" y="424"/>
      <point x="225" y="430" type="curve"/>
      <point x="228" y="428"/>
      <point x="233" y="427"/>
      <point x="237" y="425" type="curve" smooth="yes"/>
      <point x="354" y="388" type="line" smooth="yes"/>
      <point x="411" y="369"/>
      <point x="436" y="345"/>
      <point x="436" y="307" type="curve" smooth="yes"/>
      <point x="436" y="264"/>
      <point x="402" y="234"/>
    </contour>
  </outline>
</glyph>
<glyph name="dieresis" format="2">
  <advance width="600"/>
  <unicode hex="00A8"/>
  <outline>
    <contour>
      <point x="203" y="608" type="curve" smooth="yes"/>
      <point x="236" y="608"/>
      <point x="262" y="633"/>
      <point x="262" y="666" type="curve" smooth="yes"/>
      <point x="262" y="700"/>
      <point x="236" y="724"/>
      <point x="203" y="724" type="curve" smooth="yes"/>
      <point x="169" y="724"/>
      <point x="144" y="700"/>
      <point x="144" y="666" type="curve" smooth="yes"/>
      <point x="144" y="633"/>
      <point x="169" y="608"/>
    </contour>
    <contour>
      <point x="397" y="608" type="curve" smooth="yes"/>
      <point x="431" y="608"/>
      <point x="456" y="633"/>
      <point x="456" y="666" type="curve" smooth="yes"/>
      <point x="456" y="700"/>
      <point x="431" y="724"/>
      <point x="397" y="724" type="curve" smooth="yes"/>
      <point x="364" y="724"/>
      <point x="338" y="700"/>
      <point x="338" y="666" type="curve" smooth="yes"/>
      <point x="338" y="633"/>
      <point x="364" y="608"/>
    </contour>
  </outline>
</glyph>
<glyph name="copyright" format="2">
  <advance width="798"/>
  <unicode hex="00A9"/>
  <outline>
    <contour>
      <point x="409" y="165" type="curve" smooth="yes"/>
      <point x="463" y="165"/>
      <point x="513" y="186"/>
      <point x="551" y="224" type="curve"/>
      <point x="506" y="273" type="line"/>
      <point x="478" y="243"/>
      <point x="447" y="230"/>
      <point x="411" y="230" type="curve" smooth="yes"/>
      <point x="347" y="230"/>
      <point x="297" y="282"/>
      <point x="297" y="350" type="curve" smooth="yes"/>
      <point x="297" y="419"/>
      <point x="346" y="472"/>
      <point x="410" y="472" type="curve" smooth="yes"/>
      <point x="446" y="472"/>
      <point x="480" y="457"/>
      <point x="508" y="427" type="curve"/>
      <point x="553" y="476" type="line"/>
      <point x="516" y="515"/>
      <point x="464" y="537"/>
      <point x="409" y="537" type="curve" smooth="yes"/>
      <point x="304" y="537"/>
      <point x="223" y="455"/>
      <point x="223" y="350" type="curve" smooth="yes"/>
      <point x="223" y="246"/>
      <point x="304" y="165"/>
    </contour>
    <contour>
      <point x="399" y="-11" type="curve" smooth="yes"/>
      <point x="600" y="-11"/>
      <point x="757" y="147"/>
      <point x="757" y="350" type="curve" smooth="yes"/>
      <point x="757" y="553"/>
      <point x="600" y="711"/>
      <point x="399" y="711" type="curve" smooth="yes"/>
      <point x="197" y="711"/>
      <point x="41" y="553"/>
      <point x="41" y="350" type="curve" smooth="yes"/>
      <point x="41" y="147"/>
      <point x="197" y="-11"/>
    </contour>
    <contour>
      <point x="399" y="39" type="curve" smooth="yes"/>
      <point x="230" y="39"/>
      <point x="96" y="177"/>
      <point x="96" y="350" type="curve" smooth="yes"/>
      <point x="96" y="523"/>
      <point x="230" y="661"/>
      <point x="399" y="661" type="curve" smooth="yes"/>
      <point x="568" y="661"/>
      <point x="703" y="523"/>
      <point x="703" y="350" type="curve" smooth="yes"/>
      <point x="703" y="177"/>
      <point x="568" y="39"/>
    </contour>
  </outline>
</glyph>
<glyph name="ordfeminine" format="2">
  <advance width="420"/>
  <unicode hex="00AA"/>
  <outline>
    <contour>
      <point x="173" y="313" type="curve" smooth="yes"/>
      <point x="218" y="313"/>
      <point x="256" y="325"/>
      <point x="289" y="351" type="curve"/>
      <point x="289" y="320" type="line"/>
      <point x="369" y="320" type="line"/>
      <point x="369" y="572" type="line" smooth="yes"/>
      <point x="369" y="661"/>
      <point x="312" y="711"/>
      <point x="211" y="711" type="curve" smooth="yes"/>
      <point x="160" y="711"/>
      <point x="109" y="698"/>
      <point x="51" y="671" type="curve"/>
      <point x="80" y="611" type="line"/>
      <point x="128" y="632"/>
      <point x="165" y="642"/>
      <point x="199" y="642" type="curve" smooth="yes"/>
      <point x="260" y="642"/>
      <point x="289" y="616"/>
      <point x="289" y="564" type="curve" smooth="yes"/>
      <point x="289" y="527" type="line"/>
      <point x="258" y="539"/>
      <point x="223" y="546"/>
      <point x="188" y="546" type="curve" smooth="yes"/>
      <point x="91" y="546"/>
      <point x="31" y="502"/>
      <point x="31" y="430" type="curve" smooth="yes"/>
      <point x="31" y="360"/>
      <point x="89" y="313"/>
    </contour>
    <contour>
      <point x="191" y="373" type="curve"/>
      <point x="142" y="373"/>
      <point x="109" y="396"/>
      <point x="109" y="432" type="curve" smooth="yes"/>
      <point x="109" y="468"/>
      <point x="142" y="491"/>
      <point x="195" y="491" type="curve" smooth="yes"/>
      <point x="231" y="491"/>
      <point x="261" y="485"/>
      <point x="289" y="470" type="curve"/>
      <point x="289" y="405" type="line"/>
      <point x="263" y="384"/>
      <point x="230" y="373"/>
    </contour>
  </outline>
</glyph>
<glyph name="uni00AC" format="2">
  <advance width="587"/>
  <unicode hex="00AC"/>
  <outline>
    <contour>
      <point x="449" y="0" type="line"/>
      <point x="529" y="0" type="line"/>
      <point x="529" y="326" type="line"/>
      <point x="64" y="326" type="line"/>
      <point x="64" y="248" type="line"/>
      <point x="449" y="248" type="line"/>
    </contour>
  </outline>
</glyph>
<glyph name="registered" format="2">
  <advance width="488"/>
  <unicode hex="00AE"/>
  <outline>
    <contour>
      <point x="244" y="309" type="curve" smooth="yes"/>
      <point x="357" y="309"/>
      <point x="446" y="398"/>
      <point x="446" y="512" type="curve" smooth="yes"/>
      <point x="446" y="626"/>
      <point x="357" y="716"/>
      <point x="244" y="716" type="curve" smooth="yes"/>
      <point x="131" y="716"/>
      <point x="42" y="626"/>
      <point x="42" y="512" type="curve" smooth="yes"/>
      <point x="42" y="398"/>
      <point x="131" y="309"/>
    </contour>
    <contour>
      <point x="243" y="347" type="curve" smooth="yes"/>
      <point x="152" y="347"/>
      <point x="84" y="418"/>
      <point x="84" y="512" type="curve" smooth="yes"/>
      <point x="84" y="607"/>
      <point x="152" y="677"/>
      <point x="243" y="677" type="curve" smooth="yes"/>
      <point x="337" y="677"/>
      <point x="404" y="607"/>
      <point x="404" y="512" type="curve" smooth="yes"/>
      <point x="404" y="417"/>
      <point x="337" y="347"/>
    </contour>
    <contour>
      <point x="175" y="419" type="line"/>
      <point x="215" y="419" type="line"/>
      <point x="215" y="489" type="line"/>
      <point x="246" y="489" type="line"/>
      <point x="286" y="419" type="line"/>
      <point x="329" y="419" type="line"/>
      <point x="284" y="497" type="line"/>
      <point x="304" y="507"/>
      <point x="318" y="527"/>
      <point x="318" y="549" type="curve" smooth="yes"/>
      <point x="318" y="585"/>
      <point x="293" y="607"/>
      <point x="254" y="607" type="curve" smooth="yes"/>
      <point x="175" y="607" type="line"/>
    </contour>
    <contour>
      <point x="247" y="576" type="line" smooth="yes"/>
      <point x="268" y="576"/>
      <point x="278" y="566"/>
      <point x="278" y="547" type="curve" smooth="yes"/>
      <point x="278" y="529"/>
      <point x="266" y="518"/>
      <point x="246" y="518" type="curve" smooth="yes"/>
      <point x="215" y="518" type="line"/>
      <point x="215" y="576" type="line"/>
    </contour>
  </outline>
</glyph>
<glyph name="macron" format="2">
  <advance width="600"/>
  <unicode hex="00AF"/>
  <outline>
    <contour>
      <point x="151" y="622" type="line"/>
      <point x="449" y="622" type="line"/>
      <point x="449" y="689" type="line"/>
      <point x="151" y="689" type="line"/>
    </contour>
  </outline>
</glyph>
<glyph name="degree" format="2">
  <advance width="403"/>
  <unicode hex="00B0"/>
  <outline>
    <contour>
      <point x="202" y="419" type="curve" smooth="yes"/>
      <point x="284" y="419"/>
      <point x="348" y="486"/>
      <point x="348" y="565" type="curve" smooth="yes"/>
      <point x="348" y="645"/>
      <point x="284" y="711"/>
      <point x="202" y="711" type="curve" smooth="yes"/>
      <point x="120" y="711"/>
      <point x="55" y="645"/>
      <point x="55" y="565" type="curve" smooth="yes"/>
      <point x="55" y="486"/>
      <point x="120" y="419"/>
    </contour>
    <contour>
      <point x="202" y="478" type="curve" smooth="yes"/>
      <point x="154" y="478"/>
      <point x="115" y="517"/>
      <point x="115" y="565" type="curve" smooth="yes"/>
      <point x="115" y="613"/>
      <point x="154" y="653"/>
      <point x="202" y="653" type="curve" smooth="yes"/>
      <point x="249" y="653"/>
      <point x="289" y="613"/>
      <point x="289" y="565" type="curve" smooth="yes"/>
      <point x="289" y="517"/>
      <point x="249" y="478"/>
    </contour>
  </outline>
</glyph>
<glyph name="plusminus" format="2">
  <advance width="600"/>
  <unicode hex="00B1"/>
  <outline>
    <contour>
      <point x="94" y="-1" type="line"/>
      <point x="506" y="-1" type="line"/>
      <point x="506" y="76" type="line"/>
      <point x="94" y="76" type="line"/>
    </contour>
    <contour>
      <point x="260" y="184" type="line"/>
      <point x="340" y="184" type="line"/>
      <point x="340" y="352" type="line"/>
      <point x="506" y="352" type="line"/>
      <point x="506" y="430" type="line"/>
      <point x="340" y="430" type="line"/>
      <point x="340" y="598" type="line"/>
      <point x="260" y="598" type="line"/>
      <point x="260" y="430" type="line"/>
      <point x="94" y="430" type="line"/>
      <point x="94" y="352" type="line"/>
      <point x="260" y="352" type="line"/>
    </contour>
  </outline>
</glyph>
<glyph name="twosuperior" format="2">
  <advance width="297"/>
  <unicode hex="00B2"/>
  <outline>
    <contour>
      <point x="26" y="350" type="line"/>
      <point x="277" y="350" type="line"/>
      <point x="277" y="405" type="line"/>
      <point x="119" y="405" type="line"/>
      <point x="205" y="482" type="line" smooth="yes"/>
      <point x="255" y="527"/>
      <point x="273" y="557"/>
      <point x="273" y="598" type="curve" smooth="yes"/>
      <point x="273" y="661"/>
      <point x="221" y="705"/>
      <point x="146" y="705" type="curve" smooth="yes"/>
      <point x="99" y="705"/>
      <point x="54" y="686"/>
      <point x="13" y="649" type="curve"/>
      <point x="50" y="606" type="line"/>
      <point x="85" y="637"/>
      <point x="111" y="649"/>
      <point x="144" y="649" type="curve" smooth="yes"/>
      <point x="182" y="649"/>
      <point x="209" y="626"/>
      <point x="209" y="594" type="curve" smooth="yes"/>
      <point x="209" y="570"/>
      <point x="196" y="551"/>
      <point x="164" y="520" type="curve" smooth="yes"/>
      <point x="26" y="397" type="line"/>
    </contour>
  </outline>
</glyph>
<glyph name="threesuperior" format="2">
  <advance width="319"/>
  <unicode hex="00B3"/>
  <outline>
    <contour>
      <point x="154" y="345" type="curve" smooth="yes"/>
      <point x="235" y="345"/>
      <point x="294" y="388"/>
      <point x="294" y="447" type="curve" smooth="yes"/>
      <point x="294" y="484"/>
      <point x="268" y="513"/>
      <point x="229" y="527" type="curve"/>
      <point x="262" y="543"/>
      <point x="283" y="573"/>
      <point x="282" y="608" type="curve" smooth="yes"/>
      <point x="283" y="665"/>
      <point x="229" y="706"/>
      <point x="155" y="706" type="curve" smooth="yes"/>
      <point x="103" y="706"/>
      <point x="55" y="684"/>
      <point x="20" y="648" type="curve"/>
      <point x="64" y="607" type="line"/>
      <point x="94" y="637"/>
      <point x="117" y="649"/>
      <point x="153" y="649" type="curve" smooth="yes"/>
      <point x="190" y="649"/>
      <point x="216" y="629"/>
      <point x="216" y="601" type="curve" smooth="yes"/>
      <point x="216" y="571"/>
      <point x="189" y="549"/>
      <point x="153" y="549" type="curve" smooth="yes"/>
      <point x="127" y="549" type="line"/>
      <point x="127" y="496" type="line"/>
      <point x="159" y="496" type="line" smooth="yes"/>
      <point x="200" y="496"/>
      <point x="227" y="479"/>
      <point x="227" y="452" type="curve" smooth="yes"/>
      <point x="227" y="422"/>
      <point x="198" y="401"/>
      <point x="154" y="401" type="curve" smooth="yes"/>
      <point x="114" y="401"/>
      <point x="89" y="411"/>
      <point x="61" y="440" type="curve"/>
      <point x="17" y="399" type="line"/>
      <point x="50" y="365"/>
      <point x="100" y="345"/>
    </contour>
  </outline>
</glyph>
<glyph name="acute" format="2">
  <advance width="600"/>
  <unicode hex="00B4"/>
  <outline>
    <contour>
      <point x="232" y="603" type="line"/>
      <point x="316" y="603" type="line"/>
      <point x="444" y="725" type="line"/>
      <point x="324" y="725" type="line"/>
    </contour>
  </outline>
</glyph>
<glyph name="uni00B5" format="2">
  <advance width="577"/>
  <unicode hex="00B5"/>
  <outline>
    <contour>
      <point x="63" y="-204" type="line"/>
      <point x="162" y="-204" type="line"/>
      <point x="162" y="18" type="line"/>
      <point x="188" y="0"/>
      <point x="222" y="-9"/>
      <point x="259" y="-9" type="curve" smooth="yes"/>
      <point x="324" y="-9"/>
      <point x="376" y="18"/>
      <point x="414" y="69" type="curve"/>
      <point x="414" y="0" type="line"/>
      <point x="514" y="0" type="line"/>
      <point x="514" y="509" type="line"/>
      <point x="414" y="509" type="line"/>
      <point x="414" y="145" type="line"/>
      <point x="386" y="99"/>
      <point x="343" y="74"/>
      <point x="289" y="74" type="curve" smooth="yes"/>
      <point x="212" y="74"/>
      <point x="162" y="124"/>
      <point x="162" y="204" type="curve"/>
      <point x="162" y="509" type="line"/>
      <point x="63" y="509" type="line"/>
    </contour>
  </outline>
</glyph>
<glyph name="paragraph" format="2">
  <advance width="671"/>
  <unicode hex="00B6"/>
  <outline>
    <contour>
      <point x="316" y="0" type="line"/>
      <point x="403" y="0" type="line"/>
      <point x="403" y="274" type="line"/>
      <point x="512" y="274" type="line"/>
      <point x="512" y="0" type="line"/>
      <point x="599" y="0" type="line"/>
      <point x="599" y="700" type="line"/>
      <point x="265" y="700" type="line" smooth="yes"/>
      <point x="127" y="700"/>
      <point x="34" y="614"/>
      <point x="34" y="485" type="curve" smooth="yes"/>
      <point x="34" y="361"/>
      <point x="129" y="274"/>
      <point x="266" y="274" type="curve" smooth="yes"/>
      <point x="316" y="274" type="line"/>
    </contour>
    <contour>
      <point x="403" y="356" type="line"/>
      <point x="403" y="617" type="line"/>
      <point x="512" y="617" type="line"/>
      <point x="512" y="356" type="line"/>
    </contour>
    <contour>
      <point x="264" y="356" type="line" smooth="yes"/>
      <point x="181" y="356"/>
      <point x="126" y="407"/>
      <point x="126" y="487" type="curve" smooth="yes"/>
      <point x="126" y="565"/>
      <point x="181" y="617"/>
      <point x="264" y="617" type="curve" smooth="yes"/>
      <point x="316" y="617" type="line"/>
      <point x="316" y="356" type="line"/>
    </contour>
  </outline>
</glyph>
<glyph name="periodcentered" format="2">
  <advance width="250"/>
  <unicode hex="00B7"/>
  <outline>
    <contour>
      <point x="125" y="221" type="curve" smooth="yes"/>
      <point x="160" y="221"/>
      <point x="188" y="249"/>
      <point x="188" y="284" type="curve" smooth="yes"/>
      <point x="188" y="319"/>
      <point x="160" y="347"/>
      <point x="125" y="347" type="curve" smooth="yes"/>
      <point x="90" y="347"/>
      <point x="62" y="319"/>
      <point x="62" y="284" type="curve" smooth="yes"/>
      <point x="62" y="249"/>
      <point x="90" y="221"/>
    </contour>
  </outline>
</glyph>
<glyph name="cedilla" format="2">
  <advance width="600"/>
  <unicode hex="00B8"/>
  <outline>
    <contour>
      <point x="290" y="-231" type="curve" smooth="yes"/>
      <point x="361" y="-231"/>
      <point x="412" y="-191"/>
      <point x="412" y="-136" type="curve" smooth="yes"/>
      <point x="412" y="-87"/>
      <point x="376" y="-55"/>
      <point x="317" y="-51" type="curve"/>
      <point x="332" y="0" type="line"/>
      <point x="279" y="0" type="line"/>
      <point x="252" y="-93" type="line"/>
      <point x="286" y="-93" type="line" smooth="yes"/>
      <point x="326" y="-93"/>
      <point x="350" y="-110"/>
      <point x="350" y="-136" type="curve" smooth="yes"/>
      <point x="350" y="-163"/>
      <point x="327" y="-181"/>
      <point x="289" y="-181" type="curve" smooth="yes"/>
      <point x="261" y="-181"/>
      <point x="233" y="-170"/>
      <point x="208" y="-150" type="curve"/>
      <point x="172" y="-188" type="line"/>
      <point x="203" y="-217"/>
      <point x="244" y="-231"/>
    </contour>
  </outline>
</glyph>
<glyph name="onesuperior" format="2">
  <advance width="177"/>
  <unicode hex="00B9"/>
  <outline>
    <contour>
      <point x="86" y="350" type="line"/>
      <point x="151" y="350" type="line"/>
      <point x="151" y="700" type="line"/>
      <point x="110" y="700" type="line"/>
      <point x="19" y="662" type="line"/>
      <point x="19" y="606" type="line"/>
      <point x="86" y="633" type="line"/>
    </contour>
  </outline>
</glyph>
<glyph name="ordmasculine" format="2">
  <advance width="472"/>
  <unicode hex="00BA"/>
  <outline>
    <contour>
      <point x="236" y="311" type="curve" smooth="yes"/>
      <point x="348" y="311"/>
      <point x="437" y="399"/>
      <point x="437" y="511" type="curve" smooth="yes"/>
      <point x="437" y="623"/>
      <point x="348" y="711"/>
      <point x="236" y="711" type="curve" smooth="yes"/>
      <point x="124" y="711"/>
      <point x="35" y="623"/>
      <point x="35" y="511" type="curve" smooth="yes"/>
      <point x="35" y="399"/>
      <point x="124" y="311"/>
    </contour>
    <contour>
      <point x="236" y="382" type="curve" smooth="yes"/>
      <point x="168" y="382"/>
      <point x="115" y="438"/>
      <point x="115" y="511" type="curve" smooth="yes"/>
      <point x="115" y="583"/>
      <point x="168" y="640"/>
      <point x="236" y="640" type="curve" smooth="yes"/>
      <point x="303" y="640"/>
      <point x="356" y="583"/>
      <point x="356" y="511" type="curve" smooth="yes"/>
      <point x="356" y="438"/>
      <point x="303" y="382"/>
    </contour>
  </outline>
</glyph>
<glyph name="AE" format="2">
  <advance width="965"/>
  <unicode hex="00C6"/>
  <outline>
    <contour>
      <point x="1" y="0" type="line"/>
      <point x="110" y="0" type="line"/>
      <point x="192" y="205" type="line"/>
      <point x="505" y="205" type="line"/>
      <point x="586" y="0" type="line"/>
      <point x="928" y="0" type="line"/>
      <point x="928" y="92" type="line"/>
      <point x="659" y="92" type="line"/>
      <point x="573" y="309" type="line"/>
      <point x="793" y="309" type="line"/>
      <point x="793" y="398" type="line"/>
      <point x="538" y="398" type="line"/>
      <point x="454" y="608" type="line"/>
      <point x="928" y="608" type="line"/>
      <point x="928" y="700" type="line"/>
      <point x="291" y="700" type="line"/>
    </contour>
    <contour>
      <point x="226" y="292" type="line"/>
      <point x="350" y="599" type="line"/>
      <point x="471" y="292" type="line"/>
    </contour>
  </outline>
</glyph>
<glyph name="Ccedilla" format="2">
  <advance width="720"/>
  <unicode hex="00C7"/>
  <outline>
    <contour>
      <point x="392" y="-231" type="curve" smooth="yes"/>
      <point x="462" y="-231"/>
      <point x="514" y="-191"/>
      <point x="514" y="-136" type="curve" smooth="yes"/>
      <point x="514" y="-87"/>
      <point x="477" y="-55"/>
      <point x="419" y="-51" type="curve"/>
      <point x="430" y="-10" type="line"/>
      <point x="530" y="-4"/>
      <point x="624" y="40"/>
      <point x="688" y="110" type="curve"/>
      <point x="619" y="180" type="line"/>
      <point x="568" y="120"/>
      <point x="492" y="86"/>
      <point x="411" y="86" type="curve" smooth="yes"/>
      <point x="261" y="86"/>
      <point x="148" y="201"/>
      <point x="148" y="350" type="curve" smooth="yes"/>
      <point x="148" y="500"/>
      <point x="260" y="614"/>
      <point x="408" y="614" type="curve" smooth="yes"/>
      <point x="489" y="614"/>
      <point x="567" y="580"/>
      <point x="620" y="518" type="curve"/>
      <point x="690" y="590" type="line"/>
      <point x="624" y="665"/>
      <point x="519" y="711"/>
      <point x="408" y="711" type="curve" smooth="yes"/>
      <point x="201" y="711"/>
      <point x="41" y="553"/>
      <point x="41" y="350" type="curve" smooth="yes"/>
      <point x="41" y="157"/>
      <point x="186" y="5"/>
      <point x="378" y="-9" type="curve"/>
      <point x="353" y="-93" type="line"/>
      <point x="388" y="-93" type="line" smooth="yes"/>
      <point x="427" y="-93"/>
      <point x="451" y="-110"/>
      <point x="451" y="-136" type="curve" smooth="yes"/>
      <point x="451" y="-163"/>
      <point x="429" y="-181"/>
      <point x="391" y="-181" type="curve" smooth="yes"/>
      <point x="362" y="-181"/>
      <point x="334" y="-170"/>
      <point x="310" y="-150" type="curve"/>
      <point x="274" y="-188" type="line"/>
      <point x="305" y="-217"/>
      <point x="345" y="-231"/>
    </contour>
  </outline>
</glyph>
<glyph name="multiply" format="2">
  <advance width="600"/>
  <unicode hex="00D7"/>
  <outline>
    <contour>
      <point x="154" y="153" type="line"/>
      <point x="299" y="307" type="line"/>
      <point x="444" y="152" type="line"/>
      <point x="494" y="204" type="line"/>
      <point x="348" y="360" type="line"/>
      <point x="494" y="515" type="line"/>
      <point x="446" y="565" type="line"/>
      <point x="300" y="410" type="line"/>
      <point x="154" y="566" type="line"/>
      <point x="106" y="514" type="line"/>
      <point x="251" y="358" type="line"/>
      <point x="107" y="204" type="line"/>
    </contour>
  </outline>
</glyph>
<glyph name="Oslash" format="2">
  <advance width="810"/>
  <unicode hex="00D8"/>
  <outline>
    <contour>
      <point x="406" y="-11" type="curve" smooth="yes"/>
      <point x="609" y="-11"/>
      <point x="770" y="148"/>
      <point x="770" y="350" type="curve" smooth="yes"/>
      <point x="770" y="451"/>
      <point x="730" y="541"/>
      <point x="664" y="606" type="curve"/>
      <point x="742" y="700" type="line"/>
      <point x="641" y="700" type="line"/>
      <point x="603" y="654" type="line"/>
      <point x="547" y="690"/>
      <point x="479" y="711"/>
      <point x="406" y="711" type="curve" smooth="yes"/>
      <point x="201" y="711"/>
      <point x="41" y="552"/>
      <point x="41" y="350" type="curve" smooth="yes"/>
      <point x="41" y="251"/>
      <point x="80" y="162"/>
      <point x="143" y="97" type="curve"/>
      <point x="63" y="0" type="line"/>
      <point x="162" y="0" type="line"/>
      <point x="202" y="49" type="line"/>
      <point x="260" y="11"/>
      <point x="330" y="-11"/>
    </contour>
    <contour>
      <point x="209" y="178" type="line"/>
      <point x="171" y="223"/>
      <point x="148" y="283"/>
      <point x="148" y="350" type="curve" smooth="yes"/>
      <point x="148" y="500"/>
      <point x="260" y="614"/>
      <point x="406" y="614" type="curve" smooth="yes"/>
      <point x="455" y="614"/>
      <point x="501" y="601"/>
      <point x="539" y="577" type="curve"/>
    </contour>
    <contour>
      <point x="406" y="86" type="curve" smooth="yes"/>
      <point x="354" y="86"/>
      <point x="306" y="101"/>
      <point x="267" y="126" type="curve"/>
      <point x="599" y="526" type="line"/>
      <point x="639" y="481"/>
      <point x="663" y="419"/>
      <point x="663" y="350" type="curve" smooth="yes"/>
      <point x="663" y="201"/>
      <point x="551" y="86"/>
    </contour>
  </outline>
</glyph>
<glyph name="Thorn" format="2">
  <advance width="654"/>
  <unicode hex="00DE"/>
  <outline>
    <contour>
      <point x="71" y="0" type="line"/>
      <point x="176" y="0" type="line"/>
      <point x="176" y="137" type="line"/>
      <point x="396" y="137" type="line" smooth="yes"/>
      <point x="523" y="137"/>
      <point x="618" y="228"/>
      <point x="618" y="349" type="curve" smooth="yes"/>
      <point x="618" y="473"/>
      <point x="523" y="563"/>
      <point x="396" y="564" type="curve" smooth="yes"/>
      <point x="176" y="564" type="line"/>
      <point x="176" y="700" type="line"/>
      <point x="71" y="700" type="line"/>
    </contour>
    <contour>
      <point x="176" y="226" type="line"/>
      <point x="176" y="472" type="line"/>
      <point x="384" y="472" type="line" smooth="yes"/>
      <point x="457" y="472"/>
      <point x="511" y="420"/>
      <point x="511" y="348" type="curve" smooth="yes"/>
      <point x="511" y="278"/>
      <point x="457" y="226"/>
      <point x="384" y="226" type="curve" smooth="yes"/>
    </contour>
  </outline>
</glyph>
<glyph name="germandbls" format="2">
  <advance width="652"/>
  <unicode hex="00DF"/>
  <outline>
    <contour>
      <point x="443" y="-11" type="curve" smooth="yes"/>
      <point x="558" y="-11"/>
      <point x="634" y="49"/>
      <point x="634" y="139" type="curve" smooth="yes"/>
      <point x="634" y="208"/>
      <point x="598" y="248"/>
      <point x="509" y="279" type="curve" smooth="yes"/>
      <point x="432" y="305" type="line" smooth="yes"/>
      <point x="384" y="322"/>
      <point x="372" y="333"/>
      <point x="372" y="357" type="curve" smooth="yes"/>
      <point x="372" y="420"/>
      <point x="557" y="424"/>
      <point x="557" y="558" type="curve" smooth="yes"/>
      <point x="557" y="655"/>
      <point x="462" y="718"/>
      <point x="316" y="718" type="curve" smooth="yes"/>
      <point x="155" y="718"/>
      <point x="59" y="627"/>
      <point x="59" y="471" type="curve" smooth="yes"/>
      <point x="59" y="0" type="line"/>
      <point x="158" y="0" type="line"/>
      <point x="158" y="471" type="line" smooth="yes"/>
      <point x="158" y="578"/>
      <point x="214" y="637"/>
      <point x="318" y="637" type="curve" smooth="yes"/>
      <point x="400" y="637"/>
      <point x="459" y="599"/>
      <point x="459" y="547" type="curve" smooth="yes"/>
      <point x="459" y="456"/>
      <point x="276" y="459"/>
      <point x="276" y="344" type="curve" smooth="yes"/>
      <point x="276" y="293"/>
      <point x="306" y="262"/>
      <point x="385" y="236" type="curve" smooth="yes"/>
      <point x="467" y="209" type="line" smooth="yes"/>
      <point x="522" y="191"/>
      <point x="542" y="170"/>
      <point x="542" y="131" type="curve" smooth="yes"/>
      <point x="542" y="89"/>
      <point x="502" y="61"/>
      <point x="440" y="61" type="curve" smooth="yes"/>
      <point x="387" y="61"/>
      <point x="340" y="82"/>
      <point x="295" y="126" type="curve"/>
      <point x="240" y="70" type="line"/>
      <point x="297" y="16"/>
      <point x="363" y="-11"/>
    </contour>
  </outline>
</glyph>
<glyph name="ae" format="2">
  <advance width="915"/>
  <unicode hex="00E6"/>
  <anchor x="258" y="509" name="top"/>
  <anchor x="476" y="0" name="bottom"/>
  <outline>
    <contour>
      <point x="220" y="-9" type="curve" smooth="yes"/>
      <point x="308" y="-9"/>
      <point x="379" y="23"/>
      <point x="437" y="87" type="curve"/>
      <point x="485" y="28"/>
      <point x="560" y="-9"/>
      <point x="645" y="-9" type="curve" smooth="yes"/>
      <point x="721" y="-9"/>
      <point x="782" y="12"/>
      <point x="842" y="58" type="curve"/>
      <point x="778" y="121" type="line"/>
      <point x="746" y="92"/>
      <point x="699" y="76"/>
      <point x="649" y="76" type="curve" smooth="yes"/>
      <point x="561" y="76"/>
      <point x="492" y="138"/>
      <point x="478" y="222" type="curve"/>
      <point x="879" y="222" type="line"/>
      <point x="879" y="250" type="line"/>
      <point x="879" y="401"/>
      <point x="773" y="518"/>
      <point x="633" y="518" type="curve" smooth="yes"/>
      <point x="559" y="518"/>
      <point x="494" y="486"/>
      <point x="449" y="432" type="curve"/>
      <point x="420" y="489"/>
      <point x="357" y="519"/>
      <point x="268" y="519" type="curve" smooth="yes"/>
      <point x="201" y="519"/>
      <point x="136" y="503"/>
      <point x="59" y="467" type="curve"/>
      <point x="96" y="392" type="line"/>
      <point x="159" y="422"/>
      <point x="207" y="435"/>
      <point x="254" y="435" type="curve" smooth="yes"/>
      <point x="335" y="435"/>
      <point x="378" y="398"/>
      <point x="378" y="326" type="curve" smooth="yes"/>
      <point x="378" y="274" type="line"/>
      <point x="337" y="291"/>
      <point x="290" y="301"/>
      <point x="241" y="301" type="curve" smooth="yes"/>
      <point x="114" y="301"/>
      <point x="36" y="241"/>
      <point x="36" y="146" type="curve" smooth="yes"/>
      <point x="36" y="54"/>
      <point x="110" y="-9"/>
    </contour>
    <contour>
      <point x="479" y="297" type="line"/>
      <point x="493" y="378"/>
      <point x="554" y="433"/>
      <point x="631" y="433" type="curve" smooth="yes"/>
      <point x="705" y="433"/>
      <point x="766" y="375"/>
      <point x="780" y="297" type="curve"/>
    </contour>
    <contour>
      <point x="243" y="66" type="curve" smooth="yes"/>
      <point x="176" y="66"/>
      <point x="131" y="99"/>
      <point x="131" y="148" type="curve" smooth="yes"/>
      <point x="131" y="199"/>
      <point x="177" y="232"/>
      <point x="249" y="232" type="curve" smooth="yes"/>
      <point x="301" y="232"/>
      <point x="344" y="222"/>
      <point x="383" y="199" type="curve"/>
      <point x="388" y="179"/>
      <point x="394" y="160"/>
      <point x="402" y="142" type="curve"/>
      <point x="358" y="91"/>
      <point x="305" y="66"/>
    </contour>
  </outline>
</glyph>
<glyph name="ccedilla" format="2">
  <advance width="521"/>
  <unicode hex="00E7"/>
  <outline>
    <contour>
      <point x="283" y="-231" type="curve" smooth="yes"/>
      <point x="354" y="-231"/>
      <point x="406" y="-191"/>
      <point x="406" y="-136" type="curve" smooth="yes"/>
      <point x="406" y="-87"/>
      <point x="369" y="-55"/>
      <point x="311" y="-51" type="curve"/>
      <point x="323" y="-8" type="line"/>
      <point x="390" y="-2"/>
      <point x="452" y="28"/>
      <point x="500" y="76" type="curve"/>
      <point x="439" y="140" type="line"/>
      <point x="398" y="99"/>
      <point x="353" y="79"/>
      <point x="302" y="79" type="curve" smooth="yes"/>
      <point x="208" y="79"/>
      <point x="135" y="155"/>
      <point x="135" y="255" type="curve" smooth="yes"/>
      <point x="135" y="353"/>
      <point x="207" y="430"/>
      <point x="300" y="430" type="curve" smooth="yes"/>
      <point x="352" y="430"/>
      <point x="401" y="408"/>
      <point x="440" y="366" type="curve"/>
      <point x="502" y="435" type="line"/>
      <point x="450" y="488"/>
      <point x="375" y="519"/>
      <point x="298" y="519" type="curve" smooth="yes"/>
      <point x="151" y="519"/>
      <point x="36" y="403"/>
      <point x="36" y="255" type="curve" smooth="yes"/>
      <point x="36" y="116"/>
      <point x="136" y="6"/>
      <point x="270" y="-8" type="curve"/>
      <point x="245" y="-93" type="line"/>
      <point x="280" y="-93" type="line" smooth="yes"/>
      <point x="319" y="-93"/>
      <point x="343" y="-110"/>
      <point x="343" y="-136" type="curve" smooth="yes"/>
      <point x="343" y="-163"/>
      <point x="321" y="-181"/>
      <point x="283" y="-181" type="curve" smooth="yes"/>
      <point x="254" y="-181"/>
      <point x="226" y="-170"/>
      <point x="202" y="-150" type="curve"/>
      <point x="165" y="-188" type="line"/>
      <point x="197" y="-217"/>
      <point x="237" y="-231"/>
    </contour>
  </outline>
</glyph>
<glyph name="eth" format="2">
  <advance width="600"/>
  <unicode hex="00F0"/>
  <outline>
    <contour>
      <point x="289" y="-10" type="curve" smooth="yes"/>
      <point x="450" y="-10"/>
      <point x="554" y="112"/>
      <point x="554" y="300" type="curve" smooth="yes"/>
      <point x="554" y="435"/>
      <point x="509" y="547"/>
      <point x="427" y="630" type="curve"/>
      <point x="518" y="686" type="line"/>
      <point x="478" y="743" type="line"/>
      <point x="373" y="676" type="line"/>
      <point x="336" y="704"/>
      <point x="292" y="726"/>
      <point x="245" y="743" type="curve"/>
      <point x="198" y="673" type="line"/>
      <point x="234" y="662"/>
      <point x="266" y="647"/>
      <point x="295" y="627" type="curve"/>
      <point x="216" y="578" type="line"/>
      <point x="255" y="522" type="line"/>
      <point x="351" y="582" type="line"/>
      <point x="401" y="534"/>
      <point x="435" y="472"/>
      <point x="448" y="403" type="curve"/>
      <point x="411" y="455"/>
      <point x="352" y="487"/>
      <point x="279" y="487" type="curve" smooth="yes"/>
      <point x="145" y="487"/>
      <point x="37" y="379"/>
      <point x="37" y="246" type="curve" smooth="yes"/>
      <point x="37" y="102"/>
      <point x="147" y="-10"/>
    </contour>
    <contour>
      <point x="292" y="79" type="curve" smooth="yes"/>
      <point x="203" y="79"/>
      <point x="133" y="150"/>
      <point x="133" y="242" type="curve" smooth="yes"/>
      <point x="133" y="332"/>
      <point x="203" y="403"/>
      <point x="292" y="403" type="curve" smooth="yes"/>
      <point x="380" y="403"/>
      <point x="449" y="332"/>
      <point x="449" y="242" type="curve" smooth="yes"/>
      <point x="449" y="150"/>
      <point x="380" y="79"/>
    </contour>
  </outline>
</glyph>
<glyph name="divide" format="2">
  <advance width="600"/>
  <unicode hex="00F7"/>
  <outline>
    <contour>
      <point x="300" y="492" type="curve" smooth="yes"/>
      <point x="335" y="492"/>
      <point x="364" y="521"/>
      <point x="364" y="556" type="curve" smooth="yes"/>
      <point x="364" y="591"/>
      <point x="335" y="621"/>
      <point x="300" y="621" type="curve" smooth="yes"/>
      <point x="265" y="621"/>
      <point x="236" y="591"/>
      <point x="236" y="556" type="curve" smooth="yes"/>
      <point x="236" y="521"/>
      <point x="265" y="492"/>
    </contour>
    <contour>
      <point x="300" y="96" type="curve" smooth="yes"/>
      <point x="335" y="96"/>
      <point x="364" y="125"/>
      <point x="364" y="160" type="curve" smooth="yes"/>
      <point x="364" y="196"/>
      <point x="335" y="225"/>
      <point x="300" y="225" type="curve" smooth="yes"/>
      <point x="265" y="225"/>
      <point x="236" y="196"/>
      <point x="236" y="160" type="curve" smooth="yes"/>
      <point x="236" y="125"/>
      <point x="265" y="96"/>
    </contour>
    <contour>
      <point x="94" y="319" type="line"/>
      <point x="506" y="319" type="line"/>
      <point x="506" y="397" type="line"/>
      <point x="94" y="397" type="line"/>
    </contour>
  </outline>
</glyph>
<glyph name="oslash" format="2">
  <advance width="602"/>
  <unicode hex="00F8"/>
  <outline>
    <contour>
      <point x="301" y="-10" type="curve" smooth="yes"/>
      <point x="449" y="-10"/>
      <point x="565" y="106"/>
      <point x="565" y="255" type="curve" smooth="yes"/>
      <point x="565" y="327"/>
      <point x="538" y="392"/>
      <point x="492" y="439" type="curve"/>
      <point x="551" y="509" type="line"/>
      <point x="473" y="509" type="line"/>
      <point x="446" y="477" type="line"/>
      <point x="404" y="503"/>
      <point x="355" y="519"/>
      <point x="301" y="519" type="curve" smooth="yes"/>
      <point x="153" y="519"/>
      <point x="36" y="403"/>
      <point x="36" y="255" type="curve" smooth="yes"/>
      <point x="36" y="182"/>
      <point x="63" y="118"/>
      <point x="109" y="70" type="curve"/>
      <point x="50" y="0" type="line"/>
      <point x="127" y="0" type="line"/>
      <point x="155" y="33" type="line"/>
      <point x="196" y="6"/>
      <point x="247" y="-10"/>
    </contour>
    <contour>
      <point x="170" y="145" type="line"/>
      <point x="147" y="175"/>
      <point x="134" y="213"/>
      <point x="134" y="255" type="curve" smooth="yes"/>
      <point x="134" y="354"/>
      <point x="208" y="431"/>
      <point x="301" y="431" type="curve" smooth="yes"/>
      <point x="333" y="431"/>
      <point x="363" y="422"/>
      <point x="388" y="406" type="curve"/>
    </contour>
    <contour>
      <point x="301" y="78" type="curve" smooth="yes"/>
      <point x="268" y="78"/>
      <point x="239" y="87"/>
      <point x="214" y="104" type="curve"/>
      <point x="431" y="365" type="line"/>
      <point x="454" y="335"/>
      <point x="467" y="297"/>
      <point x="467" y="255" type="curve" smooth="yes"/>
      <point x="467" y="156"/>
      <point x="394" y="78"/>
    </contour>
  </outline>
</glyph>
<glyph name="thorn" format="2">
  <advance width="609"/>
  <unicode hex="00FE"/>
  <outline>
    <contour>
      <point x="59" y="-206" type="line"/>
      <point x="159" y="-206" type="line"/>
      <point x="159" y="44" type="line"/>
      <point x="203" y="11"/>
      <point x="256" y="-8"/>
      <point x="312" y="-8" type="curve" smooth="yes"/>
      <point x="458" y="-8"/>
      <point x="571" y="107"/>
      <point x="571" y="255" type="curve" smooth="yes"/>
      <point x="571" y="402"/>
      <point x="459" y="517"/>
      <point x="314" y="517" type="curve" smooth="yes"/>
      <point x="254" y="517"/>
      <point x="201" y="498"/>
      <point x="159" y="461" type="curve"/>
      <point x="159" y="722" type="line"/>
      <point x="59" y="700" type="line"/>
    </contour>
    <contour>
      <point x="301" y="430" type="curve" smooth="yes"/>
      <point x="398" y="430"/>
      <point x="473" y="354"/>
      <point x="473" y="254" type="curve" smooth="yes"/>
      <point x="473" y="154"/>
      <point x="399" y="79"/>
      <point x="301" y="79" type="curve" smooth="yes"/>
      <point x="244" y="79"/>
      <point x="192" y="101"/>
      <point x="159" y="139" type="curve"/>
      <point x="159" y="369" type="line"/>
      <point x="192" y="408"/>
      <point x="243" y="430"/>
    </contour>
  </outline>
</glyph>
<glyph name="Aogonek" format="2">
  <advance width="701"/>
  <unicode hex="0104"/>
  <outline>
    <contour>
      <point x="639" y="-221" type="curve" smooth="yes"/>
      <point x="669" y="-221"/>
      <point x="695" y="-213"/>
      <point x="717" y="-199" type="curve"/>
      <point x="700" y="-151" type="line"/>
      <point x="688" y="-160"/>
      <point x="672" y="-164"/>
      <point x="656" y="-164" type="curve" smooth="yes"/>
      <point x="621" y="-164"/>
      <point x="601" y="-147"/>
      <point x="601" y="-116" type="curve" smooth="yes"/>
      <point x="601" y="-78"/>
      <point x="632" y="-42"/>
      <point x="701" y="0" type="curve"/>
      <point x="414" y="700" type="line"/>
      <point x="291" y="700" type="line"/>
      <point x="1" y="0" type="line"/>
      <point x="110" y="0" type="line"/>
      <point x="192" y="205" type="line"/>
      <point x="505" y="205" type="line"/>
      <point x="586" y="0" type="line"/>
      <point x="634" y="0" type="line"/>
      <point x="567" y="-45"/>
      <point x="538" y="-85"/>
      <point x="538" y="-133" type="curve" smooth="yes"/>
      <point x="538" y="-186"/>
      <point x="579" y="-221"/>
    </contour>
    <contour>
      <point x="226" y="292" type="line"/>
      <point x="350" y="599" type="line"/>
      <point x="471" y="292" type="line"/>
    </contour>
  </outline>
</glyph>
<glyph name="aogonek" format="2">
  <advance width="532"/>
  <unicode hex="0105"/>
  <outline>
    <contour>
      <point x="415" y="-221" type="curve" smooth="yes"/>
      <point x="444" y="-221"/>
      <point x="471" y="-213"/>
      <point x="493" y="-199" type="curve"/>
      <point x="476" y="-151" type="line"/>
      <point x="463" y="-160"/>
      <point x="447" y="-164"/>
      <point x="432" y="-164" type="curve" smooth="yes"/>
      <point x="397" y="-164"/>
      <point x="377" y="-147"/>
      <point x="377" y="-116" type="curve" smooth="yes"/>
      <point x="377" y="-78"/>
      <point x="407" y="-42"/>
      <point x="476" y="0" type="curve"/>
      <point x="476" y="338" type="line" smooth="yes"/>
      <point x="476" y="454"/>
      <point x="401" y="519"/>
      <point x="268" y="519" type="curve" smooth="yes"/>
      <point x="201" y="519"/>
      <point x="136" y="503"/>
      <point x="59" y="467" type="curve"/>
      <point x="96" y="392" type="line"/>
      <point x="159" y="422"/>
      <point x="207" y="435"/>
      <point x="254" y="435" type="curve" smooth="yes"/>
      <point x="335" y="435"/>
      <point x="378" y="398"/>
      <point x="378" y="326" type="curve" smooth="yes"/>
      <point x="378" y="272" type="line"/>
      <point x="336" y="291"/>
      <point x="288" y="301"/>
      <point x="239" y="301" type="curve" smooth="yes"/>
      <point x="111" y="301"/>
      <point x="33" y="242"/>
      <point x="33" y="146" type="curve" smooth="yes"/>
      <point x="33" y="54"/>
      <point x="110" y="-9"/>
      <point x="220" y="-9" type="curve" smooth="yes"/>
      <point x="282" y="-9"/>
      <point x="333" y="8"/>
      <point x="378" y="44" type="curve"/>
      <point x="378" y="0" type="line"/>
      <point x="409" y="0" type="line"/>
      <point x="342" y="-45"/>
      <point x="314" y="-85"/>
      <point x="314" y="-133" type="curve" smooth="yes"/>
      <point x="314" y="-186"/>
      <point x="354" y="-221"/>
    </contour>
    <contour>
      <point x="243" y="66" type="curve" smooth="yes"/>
      <point x="175" y="66"/>
      <point x="129" y="99"/>
      <point x="129" y="148" type="curve" smooth="yes"/>
      <point x="129" y="199"/>
      <point x="174" y="232"/>
      <point x="247" y="232" type="curve" smooth="yes"/>
      <point x="298" y="232"/>
      <point x="340" y="222"/>
      <point x="378" y="200" type="curve"/>
      <point x="378" y="114" type="line"/>
      <point x="341" y="81"/>
      <point x="297" y="66"/>
    </contour>
  </outline>
</glyph>
<glyph name="Dcroat" format="2">
  <advance width="755"/>
  <unicode hex="0110"/>
  <outline>
    <contour>
      <point x="98" y="0" type="line"/>
      <point x="345" y="0" type="line" smooth="yes"/>
      <point x="556" y="0"/>
      <point x="713" y="149"/>
      <point x="713" y="349" type="curve" smooth="yes"/>
      <point x="713" y="551"/>
      <point x="556" y="700"/>
      <point x="345" y="700" type="curve" smooth="yes"/>
      <point x="98" y="700" type="line"/>
      <point x="98" y="393" type="line"/>
      <point x="14" y="393" type="line"/>
      <point x="14" y="307" type="line"/>
      <point x="98" y="307" type="line"/>
    </contour>
    <contour>
      <point x="203" y="94" type="line"/>
      <point x="203" y="307" type="line"/>
      <point x="382" y="307" type="line"/>
      <point x="382" y="393" type="line"/>
      <point x="203" y="393" type="line"/>
      <point x="203" y="606" type="line"/>
      <point x="346" y="606" type="line" smooth="yes"/>
      <point x="493" y="606"/>
      <point x="606" y="495"/>
      <point x="606" y="349" type="curve" smooth="yes"/>
      <point x="606" y="205"/>
      <point x="493" y="94"/>
      <point x="346" y="94" type="curve" smooth="yes"/>
    </contour>
  </outline>
</glyph>
<glyph name="Eogonek" format="2">
  <advance width="628"/>
  <unicode hex="0118"/>
  <outline>
    <contour>
      <point x="608" y="-199" type="curve"/>
      <point x="591" y="-151" type="line"/>
      <point x="578" y="-160"/>
      <point x="562" y="-164"/>
      <point x="547" y="-164" type="curve" smooth="yes"/>
      <point x="512" y="-164"/>
      <point x="492" y="-147"/>
      <point x="492" y="-116" type="curve" smooth="yes"/>
      <point x="492" y="-78"/>
      <point x="523" y="-42"/>
      <point x="591" y="0" type="curve"/>
      <point x="591" y="92" type="line"/>
      <point x="176" y="92" type="line"/>
      <point x="176" y="309" type="line"/>
      <point x="446" y="309" type="line"/>
      <point x="446" y="398" type="line"/>
      <point x="176" y="398" type="line"/>
      <point x="176" y="608" type="line"/>
      <point x="587" y="608" type="line"/>
      <point x="587" y="700" type="line"/>
      <point x="71" y="700" type="line"/>
      <point x="71" y="0" type="line"/>
      <point x="525" y="0" type="line"/>
      <point x="458" y="-45"/>
      <point x="429" y="-85"/>
      <point x="429" y="-133" type="curve" smooth="yes"/>
      <point x="429" y="-186"/>
      <point x="469" y="-221"/>
      <point x="530" y="-221" type="curve" smooth="yes"/>
      <point x="559" y="-221"/>
      <point x="586" y="-213"/>
    </contour>
  </outline>
</glyph>
<glyph name="eogonek" format="2">
  <advance width="573"/>
  <unicode hex="0119"/>
  <outline>
    <contour>
      <point x="321" y="-221" type="curve" smooth="yes"/>
      <point x="350" y="-221"/>
      <point x="376" y="-213"/>
      <point x="399" y="-199" type="curve"/>
      <point x="382" y="-151" type="line"/>
      <point x="369" y="-160"/>
      <point x="353" y="-164"/>
      <point x="337" y="-164" type="curve" smooth="yes"/>
      <point x="303" y="-164"/>
      <point x="283" y="-147"/>
      <point x="283" y="-116" type="curve" smooth="yes"/>
      <point x="283" y="-78"/>
      <point x="314" y="-42"/>
      <point x="381" y="-1" type="curve"/>
      <point x="424" y="10"/>
      <point x="462" y="28"/>
      <point x="500" y="58" type="curve"/>
      <point x="436" y="121" type="line"/>
      <point x="404" y="92"/>
      <point x="357" y="76"/>
      <point x="307" y="76" type="curve" smooth="yes"/>
      <point x="219" y="76"/>
      <point x="150" y="138"/>
      <point x="136" y="222" type="curve"/>
      <point x="537" y="222" type="line"/>
      <point x="537" y="250" type="line" smooth="yes"/>
      <point x="537" y="401"/>
      <point x="431" y="518"/>
      <point x="291" y="518" type="curve" smooth="yes"/>
      <point x="148" y="518"/>
      <point x="36" y="402"/>
      <point x="36" y="255" type="curve" smooth="yes"/>
      <point x="36" y="107"/>
      <point x="151" y="-7"/>
      <point x="302" y="-9" type="curve"/>
      <point x="245" y="-51"/>
      <point x="220" y="-88"/>
      <point x="220" y="-133" type="curve" smooth="yes"/>
      <point x="220" y="-186"/>
      <point x="260" y="-221"/>
    </contour>
    <contour>
      <point x="137" y="297" type="line"/>
      <point x="151" y="378"/>
      <point x="212" y="433"/>
      <point x="289" y="433" type="curve" smooth="yes"/>
      <point x="363" y="433"/>
      <point x="424" y="375"/>
      <point x="438" y="297" type="curve"/>
    </contour>
  </outline>
</glyph>
<glyph name="hcircumflex" format="2">
  <advance width="567"/>
  <unicode hex="0125"/>
  <outline>
    <contour>
      <point x="59" y="0" type="line"/>
      <point x="159" y="0" type="line"/>
      <point x="159" y="366" type="line"/>
      <point x="187" y="408"/>
      <point x="230" y="432"/>
      <point x="284" y="432" type="curve" smooth="yes"/>
      <point x="362" y="432"/>
      <point x="411" y="382"/>
      <point x="411" y="303" type="curve" smooth="yes"/>
      <point x="411" y="0" type="line"/>
      <point x="511" y="0" type="line"/>
      <point x="511" y="320" type="line" smooth="yes"/>
      <point x="511" y="438"/>
      <point x="429" y="519"/>
      <point x="312" y="519" type="curve" smooth="yes"/>
      <point x="251" y="519"/>
      <point x="198" y="498"/>
      <point x="159" y="457" type="curve"/>
      <point x="159" y="705" type="line"/>
      <point x="59" y="705" type="line"/>
    </contour>
    <contour>
      <point x="-52" y="791" type="line"/>
      <point x="29" y="791" type="line"/>
      <point x="108" y="868" type="line"/>
      <point x="188" y="791" type="line"/>
      <point x="270" y="791" type="line"/>
      <point x="162" y="917" type="line"/>
      <point x="57" y="917" type="line"/>
    </contour>
  </outline>
</glyph>
<glyph name="Hbar" format="2">
  <advance width="739"/>
  <unicode hex="0126"/>
  <outline>
    <contour>
      <point x="79" y="0" type="line"/>
      <point x="184" y="0" type="line"/>
      <point x="184" y="305" type="line"/>
      <point x="556" y="305" type="line"/>
      <point x="556" y="0" type="line"/>
      <point x="661" y="0" type="line"/>
      <point x="661" y="512" type="line"/>
      <point x="726" y="512" type="line"/>
      <point x="726" y="594" type="line"/>
      <point x="661" y="594" type="line"/>
      <point x="661" y="700" type="line"/>
      <point x="556" y="700" type="line"/>
      <point x="556" y="594" type="line"/>
      <point x="184" y="594" type="line"/>
      <point x="184" y="700" type="line"/>
      <point x="79" y="700" type="line"/>
      <point x="79" y="594" type="line"/>
      <point x="13" y="594" type="line"/>
      <point x="13" y="512" type="line"/>
      <point x="79" y="512" type="line"/>
    </contour>
    <contour>
      <point x="184" y="399" type="line"/>
      <point x="184" y="512" type="line"/>
      <point x="556" y="512" type="line"/>
      <point x="556" y="399" type="line"/>
    </contour>
  </outline>
</glyph>
<glyph name="hbar" format="2">
  <advance width="567"/>
  <unicode hex="0127"/>
  <outline>
    <contour>
      <point x="59" y="0" type="line"/>
      <point x="159" y="0" type="line"/>
      <point x="159" y="366" type="line"/>
      <point x="187" y="408"/>
      <point x="230" y="432"/>
      <point x="284" y="432" type="curve" smooth="yes"/>
      <point x="362" y="432"/>
      <point x="411" y="382"/>
      <point x="411" y="303" type="curve" smooth="yes"/>
      <point x="411" y="0" type="line"/>
      <point x="511" y="0" type="line"/>
      <point x="511" y="320" type="line" smooth="yes"/>
      <point x="511" y="438"/>
      <point x="429" y="519"/>
      <point x="312" y="519" type="curve" smooth="yes"/>
      <point x="251" y="519"/>
      <point x="198" y="498"/>
      <point x="159" y="457" type="curve"/>
      <point x="159" y="583" type="line"/>
      <point x="312" y="583" type="line"/>
      <point x="312" y="652" type="line"/>
      <point x="159" y="652" type="line"/>
      <point x="159" y="722" type="line"/>
      <point x="59" y="700" type="line"/>
      <point x="59" y="652" type="line"/>
      <point x="-1" y="652" type="line"/>
      <point x="-1" y="583" type="line"/>
      <point x="59" y="583" type="line"/>
    </contour>
  </outline>
</glyph>
<glyph name="Iogonek" format="2">
  <advance width="248"/>
  <unicode hex="012E"/>
  <outline>
    <contour>
      <point x="115" y="-221" type="curve" smooth="yes"/>
      <point x="144" y="-221"/>
      <point x="171" y="-213"/>
      <point x="193" y="-199" type="curve"/>
      <point x="176" y="-151" type="line"/>
      <point x="163" y="-160"/>
      <point x="147" y="-164"/>
      <point x="132" y="-164" type="curve" smooth="yes"/>
      <point x="97" y="-164"/>
      <point x="77" y="-147"/>
      <point x="77" y="-116" type="curve" smooth="yes"/>
      <point x="77" y="-78"/>
      <point x="108" y="-42"/>
      <point x="176" y="0" type="curve"/>
      <point x="176" y="700" type="line"/>
      <point x="71" y="700" type="line"/>
      <point x="71" y="0" type="line"/>
      <point x="110" y="0" type="line"/>
      <point x="43" y="-45"/>
      <point x="14" y="-85"/>
      <point x="14" y="-133" type="curve" smooth="yes"/>
      <point x="14" y="-186"/>
      <point x="54" y="-221"/>
    </contour>
  </outline>
</glyph>
<glyph name="iogonek" format="2">
  <advance width="218"/>
  <unicode hex="012F"/>
  <outline>
    <contour>
      <point x="109" y="591" type="curve" smooth="yes"/>
      <point x="143" y="591"/>
      <point x="171" y="619"/>
      <point x="171" y="653" type="curve" smooth="yes"/>
      <point x="171" y="687"/>
      <point x="143" y="714"/>
      <point x="109" y="714" type="curve" smooth="yes"/>
      <point x="76" y="714"/>
      <point x="48" y="687"/>
      <point x="48" y="653" type="curve" smooth="yes"/>
      <point x="48" y="619"/>
      <point x="76" y="591"/>
    </contour>
    <contour>
      <point x="98" y="-221" type="curve" smooth="yes"/>
      <point x="127" y="-221"/>
      <point x="153" y="-213"/>
      <point x="176" y="-199" type="curve"/>
      <point x="159" y="-151" type="line"/>
      <point x="146" y="-160"/>
      <point x="130" y="-164"/>
      <point x="114" y="-164" type="curve" smooth="yes"/>
      <point x="80" y="-164"/>
      <point x="60" y="-147"/>
      <point x="60" y="-116" type="curve" smooth="yes"/>
      <point x="60" y="-78"/>
      <point x="91" y="-42"/>
      <point x="159" y="0" type="curve"/>
      <point x="159" y="509" type="line"/>
      <point x="59" y="509" type="line"/>
      <point x="59" y="0" type="line"/>
      <point x="92" y="0" type="line"/>
      <point x="25" y="-45"/>
      <point x="-3" y="-85"/>
      <point x="-3" y="-133" type="curve" smooth="yes"/>
      <point x="-3" y="-186"/>
      <point x="37" y="-221"/>
    </contour>
  </outline>
</glyph>
<glyph name="dotlessi" format="2">
  <advance width="218"/>
  <unicode hex="0131"/>
  <anchor x="109" y="509" name="top"/>
  <anchor x="123" y="0" name="bottom"/>
  <outline>
    <contour>
      <point x="59" y="0" type="line"/>
      <point x="159" y="0" type="line"/>
      <point x="159" y="509" type="line"/>
      <point x="59" y="509" type="line"/>
    </contour>
  </outline>
</glyph>
<glyph name="kgreenlandic" format="2">
  <advance width="524"/>
  <unicode hex="0138"/>
  <outline>
    <contour>
      <point x="59" y="0" type="line"/>
      <point x="159" y="0" type="line"/>
      <point x="159" y="239" type="line"/>
      <point x="405" y="0" type="line"/>
      <point x="537" y="0" type="line"/>
      <point x="260" y="271" type="line"/>
      <point x="523" y="509" type="line"/>
      <point x="406" y="509" type="line"/>
      <point x="159" y="286" type="line"/>
      <point x="159" y="509" type="line"/>
      <point x="59" y="509" type="line"/>
    </contour>
  </outline>
</glyph>
<glyph name="Lslash" format="2">
  <advance width="627"/>
  <unicode hex="0141"/>
  <outline>
    <contour>
      <point x="90" y="0" type="line"/>
      <point x="598" y="0" type="line"/>
      <point x="598" y="93" type="line"/>
      <point x="195" y="93" type="line"/>
      <point x="195" y="293" type="line"/>
      <point x="386" y="429" type="line"/>
      <point x="386" y="523" type="line"/>
      <point x="195" y="387" type="line"/>
      <point x="195" y="700" type="line"/>
      <point x="90" y="700" type="line"/>
      <point x="90" y="317" type="line"/>
      <point x="11" y="260" type="line"/>
      <point x="11" y="166" type="line"/>
      <point x="90" y="223" type="line"/>
    </contour>
  </outline>
</glyph>
<glyph name="lslash" format="2">
  <advance width="260"/>
  <unicode hex="0142"/>
  <outline>
    <contour>
      <point x="81" y="0" type="line"/>
      <point x="181" y="0" type="line"/>
      <point x="181" y="366" type="line"/>
      <point x="254" y="423" type="line"/>
      <point x="254" y="518" type="line"/>
      <point x="181" y="462" type="line"/>
      <point x="181" y="722" type="line"/>
      <point x="81" y="700" type="line"/>
      <point x="81" y="387" type="line"/>
      <point x="8" y="330" type="line"/>
      <point x="8" y="235" type="line"/>
      <point x="81" y="292" type="line"/>
    </contour>
  </outline>
</glyph>
<glyph name="Eng" format="2">
  <advance width="735"/>
  <unicode hex="014A"/>
  <outline>
    <contour>
      <point x="519" y="-210" type="curve" smooth="yes"/>
      <point x="611" y="-210"/>
      <point x="663" y="-160"/>
      <point x="663" y="-73" type="curve" smooth="yes"/>
      <point x="663" y="700" type="line"/>
      <point x="564" y="700" type="line"/>
      <point x="564" y="172" type="line"/>
      <point x="168" y="700" type="line"/>
      <point x="71" y="700" type="line"/>
      <point x="71" y="0" type="line"/>
      <point x="171" y="0" type="line"/>
      <point x="171" y="530" type="line"/>
      <point x="564" y="2" type="line"/>
      <point x="564" y="-65" type="line" smooth="yes"/>
      <point x="564" y="-108"/>
      <point x="545" y="-127"/>
      <point x="502" y="-127" type="curve" smooth="yes"/>
      <point x="485" y="-127"/>
      <point x="475" y="-126"/>
      <point x="462" y="-123" type="curve"/>
      <point x="462" y="-203" type="line"/>
      <point x="475" y="-206"/>
      <point x="501" y="-210"/>
    </contour>
  </outline>
</glyph>
<glyph name="eng" format="2">
  <advance width="567"/>
  <unicode hex="014B"/>
  <outline>
    <contour>
      <point x="366" y="-211" type="curve" smooth="yes"/>
      <point x="459" y="-211"/>
      <point x="511" y="-161"/>
      <point x="511" y="-74" type="curve" smooth="yes"/>
      <point x="511" y="320" type="line" smooth="yes"/>
      <point x="511" y="438"/>
      <point x="429" y="519"/>
      <point x="312" y="519" type="curve" smooth="yes"/>
      <point x="251" y="519"/>
      <point x="198" y="498"/>
      <point x="159" y="457" type="curve"/>
      <point x="159" y="509" type="line"/>
      <point x="59" y="509" type="line"/>
      <point x="59" y="0" type="line"/>
      <point x="159" y="0" type="line"/>
      <point x="159" y="366" type="line"/>
      <point x="187" y="408"/>
      <point x="230" y="432"/>
      <point x="284" y="432" type="curve" smooth="yes"/>
      <point x="362" y="432"/>
      <point x="411" y="382"/>
      <point x="411" y="303" type="curve" smooth="yes"/>
      <point x="411" y="-66" type="line" smooth="yes"/>
      <point x="411" y="-110"/>
      <point x="393" y="-128"/>
      <point x="351" y="-128" type="curve" smooth="yes"/>
      <point x="334" y="-128"/>
      <point x="323" y="-127"/>
      <point x="309" y="-124" type="curve"/>
      <point x="309" y="-204" type="line"/>
      <point x="324" y="-208"/>
      <point x="347" y="-211"/>
    </contour>
  </outline>
</glyph>
<glyph name="OE" format="2">
  <advance width="1091"/>
  <unicode hex="0152"/>
  <outline>
    <contour>
      <point x="396" y="0" type="curve" smooth="yes"/>
      <point x="1054" y="0" type="line"/>
      <point x="1054" y="92" type="line"/>
      <point x="626" y="92" type="line"/>
      <point x="693" y="143"/>
      <point x="737" y="221"/>
      <point x="746" y="309" type="curve"/>
      <point x="927" y="309" type="line"/>
      <point x="927" y="398" type="line"/>
      <point x="745" y="398" type="line"/>
      <point x="735" y="483"/>
      <point x="691" y="559"/>
      <point x="626" y="608" type="curve"/>
      <point x="1054" y="608" type="line"/>
      <point x="1054" y="700" type="line"/>
      <point x="396" y="700" type="line" smooth="yes"/>
      <point x="199" y="700"/>
      <point x="43" y="545"/>
      <point x="43" y="350" type="curve" smooth="yes"/>
      <point x="43" y="155"/>
      <point x="199" y="0"/>
    </contour>
    <contour>
      <point x="396" y="94" type="curve" smooth="yes"/>
      <point x="258" y="94"/>
      <point x="150" y="206"/>
      <point x="150" y="350" type="curve" smooth="yes"/>
      <point x="150" y="494"/>
      <point x="258" y="606"/>
      <point x="396" y="606" type="curve" smooth="yes"/>
      <point x="535" y="606"/>
      <point x="643" y="494"/>
      <point x="643" y="350" type="curve" smooth="yes"/>
      <point x="643" y="206"/>
      <point x="535" y="94"/>
    </contour>
  </outline>
</glyph>
<glyph name="oe" format="2">
  <advance width="1006"/>
  <unicode hex="0153"/>
  <outline>
    <contour>
      <point x="301" y="-10" type="curve" smooth="yes"/>
      <point x="392" y="-10"/>
      <point x="470" y="36"/>
      <point x="516" y="108" type="curve"/>
      <point x="561" y="37"/>
      <point x="642" y="-9"/>
      <point x="736" y="-9" type="curve" smooth="yes"/>
      <point x="812" y="-9"/>
      <point x="873" y="12"/>
      <point x="933" y="58" type="curve"/>
      <point x="869" y="121" type="line"/>
      <point x="837" y="92"/>
      <point x="790" y="76"/>
      <point x="740" y="76" type="curve" smooth="yes"/>
      <point x="652" y="76"/>
      <point x="583" y="138"/>
      <point x="569" y="222" type="curve"/>
      <point x="969" y="222" type="line"/>
      <point x="969" y="250" type="line"/>
      <point x="969" y="401"/>
      <point x="863" y="518"/>
      <point x="724" y="518" type="curve" smooth="yes"/>
      <point x="635" y="518"/>
      <point x="559" y="472"/>
      <point x="515" y="402" type="curve"/>
      <point x="470" y="473"/>
      <point x="391" y="519"/>
      <point x="301" y="519" type="curve" smooth="yes"/>
      <point x="153" y="519"/>
      <point x="36" y="403"/>
      <point x="36" y="255" type="curve" smooth="yes"/>
      <point x="36" y="106"/>
      <point x="153" y="-10"/>
    </contour>
    <contour>
      <point x="301" y="78" type="curve" smooth="yes"/>
      <point x="207" y="78"/>
      <point x="134" y="156"/>
      <point x="134" y="255" type="curve" smooth="yes"/>
      <point x="134" y="354"/>
      <point x="208" y="431"/>
      <point x="301" y="431" type="curve" smooth="yes"/>
      <point x="394" y="431"/>
      <point x="467" y="354"/>
      <point x="467" y="255" type="curve" smooth="yes"/>
      <point x="467" y="156"/>
      <point x="394" y="78"/>
    </contour>
    <contour>
      <point x="570" y="297" type="line"/>
      <point x="584" y="378"/>
      <point x="644" y="433"/>
      <point x="721" y="433" type="curve" smooth="yes"/>
      <point x="795" y="433"/>
      <point x="856" y="375"/>
      <point x="871" y="297" type="curve"/>
    </contour>
  </outline>
</glyph>
<glyph name="Scedilla" format="2">
  <advance width="613"/>
  <unicode hex="015E"/>
  <outline>
    <contour>
      <point x="280" y="-230" type="curve" smooth="yes"/>
      <point x="351" y="-230"/>
      <point x="403" y="-189"/>
      <point x="403" y="-135" type="curve" smooth="yes"/>
      <point x="403" y="-86"/>
      <point x="366" y="-54"/>
      <point x="308" y="-50" type="curve"/>
      <point x="319" y="-10" type="line"/>
      <point x="479" y="-7"/>
      <point x="587" y="79"/>
      <point x="587" y="205" type="curve" smooth="yes"/>
      <point x="587" y="314"/>
      <point x="520" y="375"/>
      <point x="372" y="399" type="curve" smooth="yes"/>
      <point x="259" y="418" type="line" smooth="yes"/>
      <point x="169" y="432"/>
      <point x="134" y="459"/>
      <point x="134" y="516" type="curve" smooth="yes"/>
      <point x="134" y="578"/>
      <point x="195" y="620"/>
      <point x="286" y="620" type="curve" smooth="yes"/>
      <point x="364" y="620"/>
      <point x="439" y="592"/>
      <point x="515" y="534" type="curve"/>
      <point x="573" y="614" type="line"/>
      <point x="494" y="675"/>
      <point x="391" y="709"/>
      <point x="291" y="709" type="curve" smooth="yes"/>
      <point x="135" y="709"/>
      <point x="33" y="629"/>
      <point x="33" y="508" type="curve" smooth="yes"/>
      <point x="33" y="407"/>
      <point x="96" y="348"/>
      <point x="224" y="326" type="curve" smooth="yes"/>
      <point x="341" y="307" type="line" smooth="yes"/>
      <point x="443" y="290"/>
      <point x="483" y="260"/>
      <point x="483" y="197" type="curve" smooth="yes"/>
      <point x="483" y="128"/>
      <point x="414" y="80"/>
      <point x="313" y="80" type="curve" smooth="yes"/>
      <point x="225" y="80"/>
      <point x="148" y="116"/>
      <point x="72" y="190" type="curve"/>
      <point x="8" y="116" type="line"/>
      <point x="77" y="45"/>
      <point x="169" y="2"/>
      <point x="267" y="-8" type="curve"/>
      <point x="242" y="-92" type="line"/>
      <point x="277" y="-92" type="line" smooth="yes"/>
      <point x="316" y="-92"/>
      <point x="340" y="-108"/>
      <point x="340" y="-135" type="curve" smooth="yes"/>
      <point x="340" y="-162"/>
      <point x="318" y="-179"/>
      <point x="280" y="-179" type="curve" smooth="yes"/>
      <point x="251" y="-179"/>
      <point x="223" y="-169"/>
      <point x="199" y="-149" type="curve"/>
      <point x="162" y="-187" type="line"/>
      <point x="194" y="-216"/>
      <point x="234" y="-230"/>
    </contour>
  </outline>
</glyph>
<glyph name="scedilla" format="2">
  <advance width="465"/>
  <unicode hex="015F"/>
  <outline>
    <contour>
      <point x="219" y="-231" type="curve" smooth="yes"/>
      <point x="289" y="-231"/>
      <point x="341" y="-191"/>
      <point x="341" y="-136" type="curve" smooth="yes"/>
      <point x="341" y="-87"/>
      <point x="304" y="-55"/>
      <point x="246" y="-51" type="curve"/>
      <point x="258" y="-8" type="line"/>
      <point x="367" y="0"/>
      <point x="447" y="66"/>
      <point x="447" y="151" type="curve" smooth="yes"/>
      <point x="447" y="230"/>
      <point x="394" y="278"/>
      <point x="293" y="293" type="curve" smooth="yes"/>
      <point x="201" y="306" type="line" smooth="yes"/>
      <point x="141" y="315"/>
      <point x="117" y="333"/>
      <point x="117" y="370" type="curve" smooth="yes"/>
      <point x="117" y="411"/>
      <point x="158" y="440"/>
      <point x="219" y="440" type="curve" smooth="yes"/>
      <point x="273" y="440"/>
      <point x="324" y="422"/>
      <point x="380" y="386" type="curve"/>
      <point x="431" y="452" type="line"/>
      <point x="368" y="496"/>
      <point x="301" y="517"/>
      <point x="227" y="517" type="curve" smooth="yes"/>
      <point x="107" y="517"/>
      <point x="27" y="454"/>
      <point x="27" y="364" type="curve" smooth="yes"/>
      <point x="27" y="284"/>
      <point x="77" y="237"/>
      <point x="179" y="222" type="curve" smooth="yes"/>
      <point x="271" y="209" type="line" smooth="yes"/>
      <point x="327" y="201"/>
      <point x="353" y="180"/>
      <point x="353" y="144" type="curve" smooth="yes"/>
      <point x="353" y="99"/>
      <point x="303" y="68"/>
      <point x="231" y="68" type="curve" smooth="yes"/>
      <point x="174" y="68"/>
      <point x="118" y="90"/>
      <point x="66" y="132" type="curve"/>
      <point x="11" y="66" type="line"/>
      <point x="61" y="23"/>
      <point x="129" y="-4"/>
      <point x="206" y="-8" type="curve"/>
      <point x="181" y="-93" type="line"/>
      <point x="215" y="-93" type="line" smooth="yes"/>
      <point x="254" y="-93"/>
      <point x="278" y="-110"/>
      <point x="278" y="-136" type="curve" smooth="yes"/>
      <point x="278" y="-163"/>
      <point x="256" y="-181"/>
      <point x="218" y="-181" type="curve" smooth="yes"/>
      <point x="189" y="-181"/>
      <point x="162" y="-170"/>
      <point x="137" y="-150" type="curve"/>
      <point x="101" y="-188" type="line"/>
      <point x="132" y="-217"/>
      <point x="173" y="-231"/>
    </contour>
  </outline>
</glyph>
<glyph name="Tcedilla" format="2">
  <advance width="631"/>
  <unicode hex="0162"/>
  <outline>
    <contour>
      <point x="300" y="-231" type="curve" smooth="yes"/>
      <point x="370" y="-231"/>
      <point x="422" y="-191"/>
      <point x="422" y="-136" type="curve" smooth="yes"/>
      <point x="422" y="-87"/>
      <point x="385" y="-55"/>
      <point x="327" y="-51" type="curve"/>
      <point x="341" y="0" type="line"/>
      <point x="368" y="0" type="line"/>
      <point x="368" y="607" type="line"/>
      <point x="614" y="607" type="line"/>
      <point x="614" y="700" type="line"/>
      <point x="17" y="700" type="line"/>
      <point x="17" y="607" type="line"/>
      <point x="263" y="607" type="line"/>
      <point x="263" y="0" type="line"/>
      <point x="288" y="0" type="line"/>
      <point x="262" y="-93" type="line"/>
      <point x="296" y="-93" type="line" smooth="yes"/>
      <point x="335" y="-93"/>
      <point x="359" y="-110"/>
      <point x="359" y="-136" type="curve" smooth="yes"/>
      <point x="359" y="-163"/>
      <point x="337" y="-181"/>
      <point x="299" y="-181" type="curve" smooth="yes"/>
      <point x="270" y="-181"/>
      <point x="243" y="-170"/>
      <point x="218" y="-150" type="curve"/>
      <point x="182" y="-188" type="line"/>
      <point x="213" y="-217"/>
      <point x="253" y="-231"/>
    </contour>
  </outline>
</glyph>
<glyph name="tcedilla" format="2">
  <advance width="389"/>
  <unicode hex="0163"/>
  <outline>
    <contour>
      <point x="229" y="-231" type="curve" smooth="yes"/>
      <point x="300" y="-231"/>
      <point x="351" y="-191"/>
      <point x="351" y="-136" type="curve" smooth="yes"/>
      <point x="351" y="-87"/>
      <point x="315" y="-55"/>
      <point x="256" y="-51" type="curve"/>
      <point x="269" y="-8" type="line"/>
      <point x="272" y="-8"/>
      <point x="274" y="-8"/>
      <point x="277" y="-8" type="curve" smooth="yes"/>
      <point x="306" y="-8"/>
      <point x="345" y="-4"/>
      <point x="372" y="5" type="curve"/>
      <point x="372" y="90" type="line"/>
      <point x="347" y="81"/>
      <point x="327" y="78"/>
      <point x="299" y="78" type="curve" smooth="yes"/>
      <point x="245" y="78"/>
      <point x="224" y="97"/>
      <point x="224" y="149" type="curve" smooth="yes"/>
      <point x="224" y="425" type="line"/>
      <point x="374" y="425" type="line"/>
      <point x="374" y="509" type="line"/>
      <point x="224" y="509" type="line"/>
      <point x="224" y="663" type="line"/>
      <point x="125" y="639" type="line"/>
      <point x="125" y="509" type="line"/>
      <point x="17" y="509" type="line"/>
      <point x="17" y="425" type="line"/>
      <point x="125" y="425" type="line"/>
      <point x="125" y="126" type="line" smooth="yes"/>
      <point x="125" y="58"/>
      <point x="157" y="14"/>
      <point x="218" y="-2" type="curve"/>
      <point x="191" y="-93" type="line"/>
      <point x="225" y="-93" type="line" smooth="yes"/>
      <point x="265" y="-93"/>
      <point x="289" y="-110"/>
      <point x="289" y="-136" type="curve" smooth="yes"/>
      <point x="289" y="-163"/>
      <point x="266" y="-181"/>
      <point x="228" y="-181" type="curve" smooth="yes"/>
      <point x="200" y="-181"/>
      <point x="172" y="-170"/>
      <point x="147" y="-150" type="curve"/>
      <point x="111" y="-188" type="line"/>
      <point x="142" y="-217"/>
      <point x="183" y="-231"/>
    </contour>
  </outline>
</glyph>
<glyph name="tcaron" format="2">
  <advance width="389"/>
  <unicode hex="0165"/>
  <outline>
    <contour>
      <point x="297" y="585" type="line"/>
      <point x="364" y="585" type="line"/>
      <point x="394" y="793" type="line"/>
      <point x="302" y="775" type="line"/>
    </contour>
    <contour>
      <point x="277" y="-8" type="curve" smooth="yes"/>
      <point x="306" y="-8"/>
      <point x="345" y="-4"/>
      <point x="372" y="5" type="curve"/>
      <point x="372" y="90" type="line"/>
      <point x="347" y="81"/>
      <point x="327" y="78"/>
      <point x="299" y="78" type="curve" smooth="yes"/>
      <point x="245" y="78"/>
      <point x="224" y="97"/>
      <point x="224" y="149" type="curve" smooth="yes"/>
      <point x="224" y="425" type="line"/>
      <point x="374" y="425" type="line"/>
      <point x="374" y="509" type="line"/>
      <point x="224" y="509" type="line"/>
      <point x="224" y="663" type="line"/>
      <point x="125" y="639" type="line"/>
      <point x="125" y="509" type="line"/>
      <point x="17" y="509" type="line"/>
      <point x="17" y="425" type="line"/>
      <point x="125" y="425" type="line"/>
      <point x="125" y="126" type="line" smooth="yes"/>
      <point x="125" y="38"/>
      <point x="178" y="-8"/>
    </contour>
  </outline>
</glyph>
<glyph name="Tbar" format="2">
  <advance width="631"/>
  <unicode hex="0166"/>
  <outline>
    <contour>
      <point x="263" y="0" type="line"/>
      <point x="368" y="0" type="line"/>
      <point x="368" y="295" type="line"/>
      <point x="512" y="295" type="line"/>
      <point x="512" y="381" type="line"/>
      <point x="368" y="381" type="line"/>
      <point x="368" y="607" type="line"/>
      <point x="614" y="607" type="line"/>
      <point x="614" y="700" type="line"/>
      <point x="17" y="700" type="line"/>
      <point x="17" y="607" type="line"/>
      <point x="263" y="607" type="line"/>
      <point x="263" y="381" type="line"/>
      <point x="119" y="381" type="line"/>
      <point x="119" y="295" type="line"/>
      <point x="263" y="295" type="line"/>
    </contour>
  </outline>
</glyph>
<glyph name="tbar" format="2">
  <advance width="389"/>
  <unicode hex="0167"/>
  <outline>
    <contour>
      <point x="277" y="-9" type="curve" smooth="yes"/>
      <point x="306" y="-9"/>
      <point x="345" y="-4"/>
      <point x="372" y="5" type="curve"/>
      <point x="372" y="89" type="line"/>
      <point x="347" y="80"/>
      <point x="327" y="77"/>
      <point x="299" y="77" type="curve" smooth="yes"/>
      <point x="245" y="77"/>
      <point x="224" y="97"/>
      <point x="224" y="149" type="curve" smooth="yes"/>
      <point x="224" y="249" type="line"/>
      <point x="376" y="249" type="line"/>
      <point x="376" y="324" type="line"/>
      <point x="224" y="324" type="line"/>
      <point x="224" y="425" type="line"/>
      <point x="374" y="425" type="line"/>
      <point x="374" y="509" type="line"/>
      <point x="224" y="509" type="line"/>
      <point x="224" y="663" type="line"/>
      <point x="125" y="639" type="line"/>
      <point x="125" y="509" type="line"/>
      <point x="17" y="509" type="line"/>
      <point x="17" y="425" type="line"/>
      <point x="125" y="425" type="line"/>
      <point x="125" y="324" type="line"/>
      <point x="17" y="324" type="line"/>
      <point x="17" y="249" type="line"/>
      <point x="125" y="249" type="line"/>
      <point x="125" y="126" type="line" smooth="yes"/>
      <point x="125" y="37"/>
      <point x="178" y="-9"/>
    </contour>
  </outline>
</glyph>
<glyph name="Uogonek" format="2">
  <advance width="713"/>
  <unicode hex="0172"/>
  <outline>
    <contour>
      <point x="377" y="-221" type="curve" smooth="yes"/>
      <point x="406" y="-221"/>
      <point x="433" y="-213"/>
      <point x="455" y="-199" type="curve"/>
      <point x="438" y="-151" type="line"/>
      <point x="425" y="-160"/>
      <point x="409" y="-164"/>
      <point x="394" y="-164" type="curve" smooth="yes"/>
      <point x="359" y="-164"/>
      <point x="339" y="-147"/>
      <point x="339" y="-116" type="curve" smooth="yes"/>
      <point x="339" y="-79"/>
      <point x="369" y="-44"/>
      <point x="435" y="-3" type="curve"/>
      <point x="571" y="28"/>
      <point x="654" y="139"/>
      <point x="654" y="299" type="curve" smooth="yes"/>
      <point x="654" y="700" type="line"/>
      <point x="549" y="700" type="line"/>
      <point x="549" y="299" type="line" smooth="yes"/>
      <point x="549" y="169"/>
      <point x="474" y="86"/>
      <point x="356" y="86" type="curve" smooth="yes"/>
      <point x="239" y="86"/>
      <point x="164" y="169"/>
      <point x="164" y="299" type="curve" smooth="yes"/>
      <point x="164" y="700" type="line"/>
      <point x="59" y="700" type="line"/>
      <point x="59" y="299" type="line" smooth="yes"/>
      <point x="59" y="107"/>
      <point x="176" y="-10"/>
      <point x="358" y="-11" type="curve"/>
      <point x="301" y="-52"/>
      <point x="276" y="-89"/>
      <point x="276" y="-133" type="curve" smooth="yes"/>
      <point x="276" y="-186"/>
      <point x="316" y="-221"/>
    </contour>
  </outline>
</glyph>
<glyph name="uogonek" format="2">
  <advance width="567"/>
  <unicode hex="0173"/>
  <outline>
    <contour>
      <point x="448" y="-221" type="curve" smooth="yes"/>
      <point x="477" y="-221"/>
      <point x="504" y="-213"/>
      <point x="526" y="-199" type="curve"/>
      <point x="509" y="-151" type="line"/>
      <point x="496" y="-160"/>
      <point x="480" y="-164"/>
      <point x="465" y="-164" type="curve" smooth="yes"/>
      <point x="430" y="-164"/>
      <point x="410" y="-147"/>
      <point x="410" y="-116" type="curve" smooth="yes"/>
      <point x="410" y="-78"/>
      <point x="440" y="-42"/>
      <point x="508" y="0" type="curve"/>
      <point x="508" y="509" type="line"/>
      <point x="408" y="509" type="line"/>
      <point x="408" y="144" type="line"/>
      <point x="381" y="101"/>
      <point x="337" y="77"/>
      <point x="283" y="77" type="curve" smooth="yes"/>
      <point x="205" y="77"/>
      <point x="156" y="127"/>
      <point x="156" y="207" type="curve" smooth="yes"/>
      <point x="156" y="509" type="line"/>
      <point x="57" y="509" type="line"/>
      <point x="57" y="190" type="line" smooth="yes"/>
      <point x="57" y="72"/>
      <point x="138" y="-10"/>
      <point x="256" y="-10" type="curve" smooth="yes"/>
      <point x="317" y="-10"/>
      <point x="369" y="11"/>
      <point x="408" y="52" type="curve"/>
      <point x="408" y="0" type="line"/>
      <point x="443" y="0" type="line"/>
      <point x="376" y="-45"/>
      <point x="347" y="-85"/>
      <point x="347" y="-133" type="curve" smooth="yes"/>
      <point x="347" y="-186"/>
      <point x="387" y="-221"/>
    </contour>
  </outline>
</glyph>
<glyph name="dotlessj" format="2">
  <advance width="218"/>
  <unicode hex="0237"/>
  <anchor x="109" y="509" name="top"/>
  <outline>
    <contour>
      <point x="15" y="-214" type="curve" smooth="yes"/>
      <point x="108" y="-214"/>
      <point x="159" y="-164"/>
      <point x="159" y="-77" type="curve" smooth="yes"/>
      <point x="159" y="509" type="line"/>
      <point x="59" y="509" type="line"/>
      <point x="59" y="-69" type="line" smooth="yes"/>
      <point x="59" y="-113"/>
      <point x="41" y="-131"/>
      <point x="-2" y="-131" type="curve" smooth="yes"/>
      <point x="-19" y="-131"/>
      <point x="-29" y="-130"/>
      <point x="-43" y="-127" type="curve"/>
      <point x="-43" y="-207" type="line"/>
      <point x="-28" y="-211"/>
      <point x="-6" y="-214"/>
    </contour>
  </outline>
</glyph>
<glyph name="circumflex" format="2">
  <advance width="600"/>
  <unicode hex="02C6"/>
  <outline>
    <contour>
      <point x="379" y="600" type="line"/>
      <point x="461" y="600" type="line"/>
      <point x="352" y="727" type="line"/>
      <point x="248" y="727" type="line"/>
      <point x="139" y="600" type="line"/>
      <point x="220" y="600" type="line"/>
      <point x="299" y="677" type="line"/>
    </contour>
  </outline>
</glyph>
<glyph name="caron" format="2">
  <advance width="600"/>
  <unicode hex="02C7"/>
  <outline>
    <contour>
      <point x="222" y="727" type="line"/>
      <point x="139" y="727" type="line"/>
      <point x="248" y="601" type="line"/>
      <point x="352" y="601" type="line"/>
      <point x="461" y="727" type="line"/>
      <point x="379" y="727" type="line"/>
      <point x="301" y="651" type="line"/>
    </contour>
  </outline>
</glyph>
<glyph name="breve" format="2">
  <advance width="600"/>
  <unicode hex="02D8"/>
  <outline>
    <contour>
      <point x="300" y="595" type="curve"/>
      <point x="384" y="595"/>
      <point x="443" y="642"/>
      <point x="463" y="723" type="curve"/>
      <point x="398" y="740" type="line"/>
      <point x="382" y="685"/>
      <point x="348" y="656"/>
      <point x="300" y="656" type="curve"/>
      <point x="250" y="656"/>
      <point x="217" y="684"/>
      <point x="202" y="740" type="curve"/>
      <point x="137" y="723" type="line"/>
      <point x="156" y="642"/>
      <point x="216" y="595"/>
    </contour>
  </outline>
</glyph>
<glyph name="dotaccent" format="2">
  <advance width="600"/>
  <unicode hex="02D9"/>
  <outline>
    <contour>
      <point x="300" y="602" type="curve" smooth="yes"/>
      <point x="333" y="602"/>
      <point x="360" y="628"/>
      <point x="360" y="661" type="curve" smooth="yes"/>
      <point x="360" y="694"/>
      <point x="333" y="719"/>
      <point x="300" y="719" type="curve" smooth="yes"/>
      <point x="267" y="719"/>
      <point x="240" y="694"/>
      <point x="240" y="661" type="curve" smooth="yes"/>
      <point x="240" y="628"/>
      <point x="267" y="602"/>
    </contour>
  </outline>
</glyph>
<glyph name="ring" format="2">
  <advance width="600"/>
  <unicode hex="02DA"/>
  <outline>
    <contour>
      <point x="300" y="584" type="curve" smooth="yes"/>
      <point x="364" y="584"/>
      <point x="416" y="636"/>
      <point x="416" y="699" type="curve" smooth="yes"/>
      <point x="416" y="762"/>
      <point x="364" y="814"/>
      <point x="300" y="814" type="curve" smooth="yes"/>
      <point x="236" y="814"/>
      <point x="184" y="762"/>
      <point x="184" y="699" type="curve" smooth="yes"/>
      <point x="184" y="636"/>
      <point x="236" y="584"/>
    </contour>
    <contour>
      <point x="300" y="632" type="curve" smooth="yes"/>
      <point x="263" y="632"/>
      <point x="233" y="661"/>
      <point x="233" y="699" type="curve"/>
      <point x="233" y="736"/>
      <point x="263" y="766"/>
      <point x="300" y="766" type="curve" smooth="yes"/>
      <point x="337" y="766"/>
      <point x="367" y="736"/>
      <point x="367" y="699" type="curve" smooth="yes"/>
      <point x="367" y="661"/>
      <point x="337" y="632"/>
    </contour>
  </outline>
</glyph>
<glyph name="ogonek" format="2">
  <advance width="600"/>
  <unicode hex="02DB"/>
  <outline>
    <contour>
      <point x="297" y="-221" type="curve" smooth="yes"/>
      <point x="326" y="-221"/>
      <point x="352" y="-213"/>
      <point x="375" y="-199" type="curve"/>
      <point x="358" y="-151" type="line"/>
      <point x="345" y="-160"/>
      <point x="329" y="-164"/>
      <point x="314" y="-164" type="curve" smooth="yes"/>
      <point x="279" y="-164"/>
      <point x="259" y="-147"/>
      <point x="259" y="-116" type="curve" smooth="yes"/>
      <point x="259" y="-78"/>
      <point x="290" y="-42"/>
      <point x="358" y="0" type="curve"/>
      <point x="320" y="18" type="line"/>
      <point x="233" y="-35"/>
      <point x="196" y="-79"/>
      <point x="196" y="-133" type="curve" smooth="yes"/>
      <point x="196" y="-186"/>
      <point x="236" y="-221"/>
    </contour>
  </outline>
</glyph>
<glyph name="tilde" format="2">
  <advance width="600"/>
  <unicode hex="02DC"/>
  <outline>
    <contour>
      <point x="187" y="595" type="line"/>
      <point x="195" y="635"/>
      <point x="207" y="651"/>
      <point x="230" y="651" type="curve"/>
      <point x="271" y="651"/>
      <point x="322" y="598"/>
      <point x="376" y="598" type="curve" smooth="yes"/>
      <point x="428" y="598"/>
      <point x="463" y="633"/>
      <point x="478" y="707" type="curve"/>
      <point x="414" y="720" type="line"/>
      <point x="404" y="679"/>
      <point x="392" y="664"/>
      <point x="370" y="664" type="curve"/>
      <point x="329" y="664"/>
      <point x="278" y="717"/>
      <point x="224" y="717" type="curve" smooth="yes"/>
      <point x="171" y="717"/>
      <point x="138" y="682"/>
      <point x="121" y="608" type="curve"/>
    </contour>
  </outline>
</glyph>
<glyph name="hungarumlaut" format="2">
  <advance width="600"/>
  <unicode hex="02DD"/>
  <outline>
    <contour>
      <point x="162" y="606" type="line"/>
      <point x="242" y="606" type="line"/>
      <point x="372" y="725" type="line"/>
      <point x="265" y="725" type="line"/>
    </contour>
    <contour>
      <point x="344" y="606" type="line"/>
      <point x="420" y="606" type="line"/>
      <point x="555" y="725" type="line"/>
      <point x="447" y="725" type="line"/>
    </contour>
  </outline>
</glyph>
<glyph name="bullet" format="2">
  <advance width="339"/>
  <unicode hex="2022"/>
  <outline>
    <contour>
      <point x="169" y="237" type="curve" smooth="yes"/>
      <point x="230" y="237"/>
      <point x="277" y="285"/>
      <point x="277" y="343" type="curve" smooth="yes"/>
      <point x="277" y="403"/>
      <point x="229" y="451"/>
      <point x="169" y="451" type="curve" smooth="yes"/>
      <point x="109" y="451"/>
      <point x="62" y="403"/>
      <point x="62" y="343" type="curve" smooth="yes"/>
      <point x="62" y="285"/>
      <point x="109" y="237"/>
    </contour>
  </outline>
</glyph>
<glyph name="guilsinglleft" format="2">
  <advance width="406"/>
  <unicode hex="2039"/>
  <outline>
    <contour>
      <point x="264" y="0" type="line"/>
      <point x="371" y="0" type="line"/>
      <point x="136" y="257" type="line"/>
      <point x="368" y="509" type="line"/>
      <point x="264" y="509" type="line"/>
      <point x="26" y="255" type="line"/>
    </contour>
  </outline>
</glyph>
<glyph name="fraction" format="2">
  <advance width="578"/>
  <unicode hex="2044"/>
  <outline>
    <contour>
      <point x="25" y="0" type="line"/>
      <point x="103" y="0" type="line"/>
      <point x="498" y="700" type="line"/>
      <point x="419" y="700" type="line"/>
    </contour>
  </outline>
</glyph>
<glyph name="uni2070" format="2">
  <advance width="355"/>
  <unicode hex="2070"/>
  <outline>
    <contour>
      <point x="178" y="345" type="curve" smooth="yes"/>
      <point x="269" y="345"/>
      <point x="330" y="417"/>
      <point x="331" y="525" type="curve" smooth="yes"/>
      <point x="330" y="633"/>
      <point x="269" y="705"/>
      <point x="178" y="705" type="curve" smooth="yes"/>
      <point x="86" y="705"/>
      <point x="25" y="633"/>
      <point x="25" y="525" type="curve" smooth="yes"/>
      <point x="25" y="417"/>
      <point x="86" y="345"/>
    </contour>
    <contour>
      <point x="178" y="402" type="curve" smooth="yes"/>
      <point x="123" y="402"/>
      <point x="90" y="449"/>
      <point x="89" y="525" type="curve" smooth="yes"/>
      <point x="90" y="601"/>
      <point x="123" y="649"/>
      <point x="178" y="649" type="curve" smooth="yes"/>
      <point x="233" y="649"/>
      <point x="267" y="601"/>
      <point x="267" y="525" type="curve" smooth="yes"/>
      <point x="267" y="449"/>
      <point x="233" y="402"/>
    </contour>
  </outline>
</glyph>
<glyph name="uni2074" format="2">
  <advance width="341"/>
  <unicode hex="2074"/>
  <outline>
    <contour>
      <point x="218" y="350" type="line"/>
      <point x="284" y="350" type="line"/>
      <point x="284" y="433" type="line"/>
      <point x="327" y="433" type="line"/>
      <point x="327" y="488" type="line"/>
      <point x="284" y="488" type="line"/>
      <point x="284" y="700" type="line"/>
      <point x="209" y="700" type="line"/>
      <point x="21" y="486" type="line"/>
      <point x="21" y="433" type="line"/>
      <point x="218" y="433" type="line"/>
    </contour>
    <contour>
      <point x="96" y="488" type="line"/>
      <point x="218" y="627" type="line"/>
      <point x="218" y="488" type="line"/>
    </contour>
  </outline>
</glyph>
<glyph name="uni2075" format="2">
  <advance width="315"/>
  <unicode hex="2075"/>
  <outline>
    <contour>
      <point x="150" y="345" type="curve" smooth="yes"/>
      <point x="234" y="345"/>
      <point x="292" y="392"/>
      <point x="292" y="461" type="curve" smooth="yes"/>
      <point x="292" y="527"/>
      <point x="240" y="571"/>
      <point x="162" y="571" type="curve" smooth="yes"/>
      <point x="140" y="571"/>
      <point x="119" y="568"/>
      <point x="97" y="560" type="curve"/>
      <point x="100" y="644" type="line"/>
      <point x="272" y="644" type="line"/>
      <point x="272" y="700" type="line"/>
      <point x="48" y="700" type="line"/>
      <point x="39" y="519" type="line"/>
      <point x="81" y="506" type="line"/>
      <point x="104" y="515"/>
      <point x="127" y="519"/>
      <point x="148" y="519" type="curve" smooth="yes"/>
      <point x="193" y="519"/>
      <point x="225" y="494"/>
      <point x="225" y="460" type="curve" smooth="yes"/>
      <point x="225" y="424"/>
      <point x="196" y="400"/>
      <point x="152" y="400" type="curve" smooth="yes"/>
      <point x="117" y="400"/>
      <point x="90" y="411"/>
      <point x="60" y="437" type="curve"/>
      <point x="20" y="392" type="line"/>
      <point x="55" y="361"/>
      <point x="100" y="345"/>
    </contour>
  </outline>
</glyph>
<glyph name="uni2076" format="2">
  <advance width="331"/>
  <unicode hex="2076"/>
  <outline>
    <contour>
      <point x="178" y="345" type="curve" smooth="yes"/>
      <point x="253" y="345"/>
      <point x="308" y="394"/>
      <point x="308" y="460" type="curve" smooth="yes"/>
      <point x="308" y="523"/>
      <point x="258" y="568"/>
      <point x="186" y="568" type="curve" smooth="yes"/>
      <point x="149" y="568"/>
      <point x="114" y="552"/>
      <point x="90" y="526" type="curve"/>
      <point x="94" y="604"/>
      <point x="129" y="647"/>
      <point x="192" y="647" type="curve" smooth="yes"/>
      <point x="218" y="647"/>
      <point x="241" y="640"/>
      <point x="261" y="625" type="curve"/>
      <point x="298" y="672" type="line"/>
      <point x="273" y="692"/>
      <point x="233" y="705"/>
      <point x="198" y="705" type="curve" smooth="yes"/>
      <point x="93" y="705"/>
      <point x="24" y="630"/>
      <point x="24" y="517" type="curve" smooth="yes"/>
      <point x="24" y="415"/>
      <point x="86" y="345"/>
    </contour>
    <contour>
      <point x="175" y="517" type="curve" smooth="yes"/>
      <point x="216" y="517"/>
      <point x="244" y="493"/>
      <point x="244" y="459" type="curve" smooth="yes"/>
      <point x="244" y="425"/>
      <point x="215" y="401"/>
      <point x="176" y="401" type="curve" smooth="yes"/>
      <point x="135" y="401"/>
      <point x="104" y="430"/>
      <point x="94" y="477" type="curve"/>
      <point x="116" y="502"/>
      <point x="144" y="517"/>
    </contour>
  </outline>
</glyph>
<glyph name="uni2077" format="2">
  <advance width="307"/>
  <unicode hex="2077"/>
  <outline>
    <contour>
      <point x="58" y="350" type="line"/>
      <point x="136" y="350" type="line"/>
      <point x="296" y="652" type="line"/>
      <point x="296" y="700" type="line"/>
      <point x="17" y="700" type="line"/>
      <point x="17" y="644" type="line"/>
      <point x="221" y="644" type="line"/>
    </contour>
  </outline>
</glyph>
<glyph name="uni2078" format="2">
  <advance width="331"/>
  <unicode hex="2078"/>
  <outline>
    <contour>
      <point x="166" y="345" type="curve" smooth="yes"/>
      <point x="247" y="345"/>
      <point x="304" y="387"/>
      <point x="304" y="447" type="curve" smooth="yes"/>
      <point x="304" y="485"/>
      <point x="279" y="516"/>
      <point x="242" y="531" type="curve"/>
      <point x="273" y="546"/>
      <point x="293" y="575"/>
      <point x="293" y="608" type="curve" smooth="yes"/>
      <point x="293" y="664"/>
      <point x="238" y="706"/>
      <point x="165" y="706" type="curve" smooth="yes"/>
      <point x="92" y="706"/>
      <point x="38" y="664"/>
      <point x="38" y="608" type="curve" smooth="yes"/>
      <point x="38" y="575"/>
      <point x="58" y="546"/>
      <point x="89" y="531" type="curve"/>
      <point x="51" y="516"/>
      <point x="26" y="485"/>
      <point x="26" y="447" type="curve" smooth="yes"/>
      <point x="26" y="387"/>
      <point x="83" y="345"/>
    </contour>
    <contour>
      <point x="166" y="555" type="curve" smooth="yes"/>
      <point x="129" y="555"/>
      <point x="102" y="575"/>
      <point x="102" y="604" type="curve" smooth="yes"/>
      <point x="102" y="632"/>
      <point x="129" y="653"/>
      <point x="166" y="653" type="curve" smooth="yes"/>
      <point x="201" y="653"/>
      <point x="228" y="632"/>
      <point x="228" y="604" type="curve" smooth="yes"/>
      <point x="228" y="575"/>
      <point x="201" y="555"/>
    </contour>
    <contour>
      <point x="166" y="399" type="curve" smooth="yes"/>
      <point x="122" y="399"/>
      <point x="92" y="421"/>
      <point x="92" y="451" type="curve" smooth="yes"/>
      <point x="92" y="483"/>
      <point x="122" y="505"/>
      <point x="166" y="505" type="curve" smooth="yes"/>
      <point x="208" y="505"/>
      <point x="239" y="483"/>
      <point x="239" y="451" type="curve" smooth="yes"/>
      <point x="239" y="421"/>
      <point x="208" y="399"/>
    </contour>
  </outline>
</glyph>
<glyph name="uni2079" format="2">
  <advance width="331"/>
  <unicode hex="2079"/>
  <outline>
    <contour>
      <point x="153" y="705" type="curve" smooth="yes"/>
      <point x="78" y="705"/>
      <point x="23" y="656"/>
      <point x="23" y="590" type="curve" smooth="yes"/>
      <point x="23" y="527"/>
      <point x="73" y="482"/>
      <point x="145" y="482" type="curve" smooth="yes"/>
      <point x="182" y="482"/>
      <point x="217" y="498"/>
      <point x="241" y="524" type="curve"/>
      <point x="237" y="446"/>
      <point x="202" y="403"/>
      <point x="139" y="403" type="curve" smooth="yes"/>
      <point x="113" y="403"/>
      <point x="90" y="410"/>
      <point x="70" y="425" type="curve"/>
      <point x="33" y="378" type="line"/>
      <point x="58" y="358"/>
      <point x="98" y="345"/>
      <point x="133" y="345" type="curve" smooth="yes"/>
      <point x="238" y="345"/>
      <point x="307" y="420"/>
      <point x="307" y="533" type="curve" smooth="yes"/>
      <point x="307" y="635"/>
      <point x="245" y="705"/>
    </contour>
    <contour>
      <point x="156" y="533" type="curve" smooth="yes"/>
      <point x="115" y="533"/>
      <point x="87" y="557"/>
      <point x="87" y="591" type="curve" smooth="yes"/>
      <point x="87" y="625"/>
      <point x="116" y="649"/>
      <point x="155" y="649" type="curve" smooth="yes"/>
      <point x="196" y="649"/>
      <point x="227" y="620"/>
      <point x="237" y="573" type="curve"/>
      <point x="215" y="548"/>
      <point x="187" y="533"/>
    </contour>
  </outline>
</glyph>
<glyph name="uni2080" format="2">
  <advance width="355"/>
  <unicode hex="2080"/>
  <outline>
    <contour>
      <point x="178" y="-5" type="curve" smooth="yes"/>
      <point x="269" y="-5"/>
      <point x="330" y="67"/>
      <point x="331" y="175" type="curve" smooth="yes"/>
      <point x="330" y="283"/>
      <point x="269" y="355"/>
      <point x="178" y="355" type="curve" smooth="yes"/>
      <point x="86" y="355"/>
      <point x="25" y="283"/>
      <point x="25" y="175" type="curve" smooth="yes"/>
      <point x="25" y="67"/>
      <point x="86" y="-5"/>
    </contour>
    <contour>
      <point x="178" y="52" type="curve" smooth="yes"/>
      <point x="123" y="52"/>
      <point x="90" y="99"/>
      <point x="89" y="175" type="curve" smooth="yes"/>
      <point x="90" y="251"/>
      <point x="123" y="299"/>
      <point x="178" y="299" type="curve" smooth="yes"/>
      <point x="233" y="299"/>
      <point x="267" y="251"/>
      <point x="267" y="175" type="curve" smooth="yes"/>
      <point x="267" y="99"/>
      <point x="233" y="52"/>
    </contour>
  </outline>
</glyph>
<glyph name="uni2081" format="2">
  <advance width="177"/>
  <unicode hex="2081"/>
  <outline>
    <contour>
      <point x="86" y="0" type="line"/>
      <point x="151" y="0" type="line"/>
      <point x="151" y="350" type="line"/>
      <point x="110" y="350" type="line"/>
      <point x="19" y="312" type="line"/>
      <point x="19" y="256" type="line"/>
      <point x="86" y="283" type="line"/>
    </contour>
  </outline>
</glyph>
<glyph name="uni2082" format="2">
  <advance width="297"/>
  <unicode hex="2082"/>
  <outline>
    <contour>
      <point x="26" y="0" type="line"/>
      <point x="277" y="0" type="line"/>
      <point x="277" y="55" type="line"/>
      <point x="119" y="55" type="line"/>
      <point x="205" y="132" type="line" smooth="yes"/>
      <point x="255" y="177"/>
      <point x="273" y="207"/>
      <point x="273" y="248" type="curve" smooth="yes"/>
      <point x="273" y="311"/>
      <point x="221" y="355"/>
      <point x="146" y="355" type="curve" smooth="yes"/>
      <point x="99" y="355"/>
      <point x="54" y="336"/>
      <point x="13" y="299" type="curve"/>
      <point x="50" y="256" type="line"/>
      <point x="85" y="287"/>
      <point x="111" y="299"/>
      <point x="144" y="299" type="curve" smooth="yes"/>
      <point x="182" y="299"/>
      <point x="209" y="276"/>
      <point x="209" y="244" type="curve" smooth="yes"/>
      <point x="209" y="220"/>
      <point x="196" y="201"/>
      <point x="164" y="170" type="curve" smooth="yes"/>
      <point x="26" y="47" type="line"/>
    </contour>
  </outline>
</glyph>
<glyph name="uni2083" format="2">
  <advance width="319"/>
  <unicode hex="2083"/>
  <outline>
    <contour>
      <point x="154" y="-5" type="curve" smooth="yes"/>
      <point x="235" y="-5"/>
      <point x="294" y="38"/>
      <point x="294" y="97" type="curve" smooth="yes"/>
      <point x="294" y="134"/>
      <point x="268" y="163"/>
      <point x="229" y="177" type="curve"/>
      <point x="262" y="193"/>
      <point x="283" y="223"/>
      <point x="282" y="258" type="curve" smooth="yes"/>
      <point x="283" y="315"/>
      <point x="229" y="356"/>
      <point x="155" y="356" type="curve" smooth="yes"/>
      <point x="103" y="356"/>
      <point x="55" y="334"/>
      <point x="20" y="298" type="curve"/>
      <point x="64" y="257" type="line"/>
      <point x="94" y="287"/>
      <point x="117" y="299"/>
      <point x="153" y="299" type="curve" smooth="yes"/>
      <point x="190" y="299"/>
      <point x="216" y="279"/>
      <point x="216" y="251" type="curve" smooth="yes"/>
      <point x="216" y="221"/>
      <point x="189" y="199"/>
      <point x="153" y="199" type="curve" smooth="yes"/>
      <point x="127" y="199" type="line"/>
      <point x="127" y="146" type="line"/>
      <point x="159" y="146" type="line" smooth="yes"/>
      <point x="200" y="146"/>
      <point x="227" y="129"/>
      <point x="227" y="102" type="curve" smooth="yes"/>
      <point x="227" y="72"/>
      <point x="198" y="51"/>
      <point x="154" y="51" type="curve" smooth="yes"/>
      <point x="114" y="51"/>
      <point x="89" y="61"/>
      <point x="61" y="90" type="curve"/>
      <point x="17" y="49" type="line"/>
      <point x="50" y="15"/>
      <point x="100" y="-5"/>
    </contour>
  </outline>
</glyph>
<glyph name="uni2084" format="2">
  <advance width="341"/>
  <unicode hex="2084"/>
  <outline>
    <contour>
      <point x="218" y="0" type="line"/>
      <point x="284" y="0" type="line"/>
      <point x="284" y="83" type="line"/>
      <point x="327" y="83" type="line"/>
      <point x="327" y="138" type="line"/>
      <point x="284" y="138" type="line"/>
      <point x="284" y="350" type="line"/>
      <point x="209" y="350" type="line"/>
      <point x="21" y="136" type="line"/>
      <point x="21" y="83" type="line"/>
      <point x="218" y="83" type="line"/>
    </contour>
    <contour>
      <point x="96" y="138" type="line"/>
      <point x="218" y="277" type="line"/>
      <point x="218" y="138" type="line"/>
    </contour>
  </outline>
</glyph>
<glyph name="uni2085" format="2">
  <advance width="315"/>
  <unicode hex="2085"/>
  <outline>
    <contour>
      <point x="150" y="-5" type="curve" smooth="yes"/>
      <point x="234" y="-5"/>
      <point x="292" y="42"/>
      <point x="292" y="111" type="curve" smooth="yes"/>
      <point x="292" y="177"/>
      <point x="240" y="221"/>
      <point x="162" y="221" type="curve" smooth="yes"/>
      <point x="140" y="221"/>
      <point x="119" y="218"/>
      <point x="97" y="210" type="curve"/>
      <point x="100" y="294" type="line"/>
      <point x="272" y="294" type="line"/>
      <point x="272" y="350" type="line"/>
      <point x="48" y="350" type="line"/>
      <point x="39" y="169" type="line"/>
      <point x="81" y="156" type="line"/>
      <point x="104" y="165"/>
      <point x="127" y="169"/>
      <point x="148" y="169" type="curve" smooth="yes"/>
      <point x="193" y="169"/>
      <point x="225" y="144"/>
      <point x="225" y="110" type="curve" smooth="yes"/>
      <point x="225" y="74"/>
      <point x="196" y="50"/>
      <point x="152" y="50" type="curve" smooth="yes"/>
      <point x="117" y="50"/>
      <point x="90" y="61"/>
      <point x="60" y="87" type="curve"/>
      <point x="20" y="42" type="line"/>
      <point x="55" y="11"/>
      <point x="100" y="-5"/>
    </contour>
  </outline>
</glyph>
<glyph name="uni2086" format="2">
  <advance width="331"/>
  <unicode hex="2086"/>
  <outline>
    <contour>
      <point x="178" y="-5" type="curve" smooth="yes"/>
      <point x="253" y="-5"/>
      <point x="308" y="44"/>
      <point x="308" y="110" type="curve" smooth="yes"/>
      <point x="308" y="173"/>
      <point x="258" y="218"/>
      <point x="186" y="218" type="curve" smooth="yes"/>
      <point x="149" y="218"/>
      <point x="114" y="202"/>
      <point x="90" y="176" type="curve"/>
      <point x="94" y="254"/>
      <point x="129" y="297"/>
      <point x="192" y="297" type="curve" smooth="yes"/>
      <point x="218" y="297"/>
      <point x="241" y="290"/>
      <point x="261" y="275" type="curve"/>
      <point x="298" y="322" type="line"/>
      <point x="273" y="342"/>
      <point x="233" y="355"/>
      <point x="198" y="355" type="curve" smooth="yes"/>
      <point x="93" y="355"/>
      <point x="24" y="280"/>
      <point x="24" y="167" type="curve" smooth="yes"/>
      <point x="24" y="65"/>
      <point x="86" y="-5"/>
    </contour>
    <contour>
      <point x="175" y="167" type="curve" smooth="yes"/>
      <point x="216" y="167"/>
      <point x="244" y="143"/>
      <point x="244" y="109" type="curve" smooth="yes"/>
      <point x="244" y="75"/>
      <point x="215" y="51"/>
      <point x="176" y="51" type="curve" smooth="yes"/>
      <point x="135" y="51"/>
      <point x="104" y="80"/>
      <point x="94" y="127" type="curve"/>
      <point x="116" y="152"/>
      <point x="144" y="167"/>
    </contour>
  </outline>
</glyph>
<glyph name="uni2087" format="2">
  <advance width="307"/>
  <unicode hex="2087"/>
  <outline>
    <contour>
      <point x="58" y="0" type="line"/>
      <point x="136" y="0" type="line"/>
      <point x="296" y="302" type="line"/>
      <point x="296" y="350" type="line"/>
      <point x="17" y="350" type="line"/>
      <point x="17" y="294" type="line"/>
      <point x="221" y="294" type="line"/>
    </contour>
  </outline>
</glyph>
<glyph name="uni2088" format="2">
  <advance width="331"/>
  <unicode hex="2088"/>
  <outline>
    <contour>
      <point x="166" y="-5" type="curve" smooth="yes"/>
      <point x="247" y="-5"/>
      <point x="304" y="37"/>
      <point x="304" y="97" type="curve" smooth="yes"/>
      <point x="304" y="135"/>
      <point x="279" y="166"/>
      <point x="242" y="181" type="curve"/>
      <point x="273" y="196"/>
      <point x="293" y="225"/>
      <point x="293" y="258" type="curve" smooth="yes"/>
      <point x="293" y="314"/>
      <point x="238" y="356"/>
      <point x="165" y="356" type="curve" smooth="yes"/>
      <point x="92" y="356"/>
      <point x="38" y="314"/>
      <point x="38" y="258" type="curve" smooth="yes"/>
      <point x="38" y="225"/>
      <point x="58" y="196"/>
      <point x="89" y="181" type="curve"/>
      <point x="51" y="166"/>
      <point x="26" y="135"/>
      <point x="26" y="97" type="curve" smooth="yes"/>
      <point x="26" y="37"/>
      <point x="83" y="-5"/>
    </contour>
    <contour>
      <point x="166" y="205" type="curve" smooth="yes"/>
      <point x="129" y="205"/>
      <point x="102" y="225"/>
      <point x="102" y="254" type="curve" smooth="yes"/>
      <point x="102" y="282"/>
      <point x="129" y="303"/>
      <point x="166" y="303" type="curve" smooth="yes"/>
      <point x="201" y="303"/>
      <point x="228" y="282"/>
      <point x="228" y="254" type="curve" smooth="yes"/>
      <point x="228" y="225"/>
      <point x="201" y="205"/>
    </contour>
    <contour>
      <point x="166" y="49" type="curve" smooth="yes"/>
      <point x="122" y="49"/>
      <point x="92" y="71"/>
      <point x="92" y="101" type="curve" smooth="yes"/>
      <point x="92" y="133"/>
      <point x="122" y="155"/>
      <point x="166" y="155" type="curve" smooth="yes"/>
      <point x="208" y="155"/>
      <point x="239" y="133"/>
      <point x="239" y="101" type="curve" smooth="yes"/>
      <point x="239" y="71"/>
      <point x="208" y="49"/>
    </contour>
  </outline>
</glyph>
<glyph name="Euro" format="2">
  <advance width="781"/>
  <unicode hex="20AC"/>
  <outline>
    <contour>
      <point x="467" y="-11" type="curve" smooth="yes"/>
      <point x="580" y="-11"/>
      <point x="676" y="35"/>
      <point x="738" y="117" type="curve"/>
      <point x="671" y="169" type="line"/>
      <point x="627" y="109"/>
      <point x="551" y="73"/>
      <point x="467" y="73" type="curve" smooth="yes"/>
      <point x="348" y="73"/>
      <point x="260" y="144"/>
      <point x="229" y="255" type="curve"/>
      <point x="431" y="255" type="line"/>
      <point x="453" y="314" type="line"/>
      <point x="217" y="314" type="line"/>
      <point x="216" y="326"/>
      <point x="216" y="337"/>
      <point x="216" y="350" type="curve" smooth="yes"/>
      <point x="216" y="363"/>
      <point x="216" y="376"/>
      <point x="217" y="388" type="curve"/>
      <point x="479" y="388" type="line"/>
      <point x="501" y="447" type="line"/>
      <point x="229" y="447" type="line"/>
      <point x="261" y="558"/>
      <point x="349" y="627"/>
      <point x="468" y="627" type="curve" smooth="yes"/>
      <point x="553" y="627"/>
      <point x="626" y="593"/>
      <point x="671" y="531" type="curve"/>
      <point x="741" y="585" type="line"/>
      <point x="679" y="667"/>
      <point x="584" y="711"/>
      <point x="469" y="711" type="curve" smooth="yes"/>
      <point x="298" y="711"/>
      <point x="168" y="606"/>
      <point x="131" y="447" type="curve"/>
      <point x="34" y="447" type="line"/>
      <point x="34" y="388" type="line"/>
      <point x="122" y="388" type="line"/>
      <point x="121" y="376"/>
      <point x="120" y="363"/>
      <point x="120" y="350" type="curve" smooth="yes"/>
      <point x="120" y="337"/>
      <point x="121" y="326"/>
      <point x="122" y="314" type="curve"/>
      <point x="34" y="314" type="line"/>
      <point x="34" y="255" type="line"/>
      <point x="131" y="255" type="line"/>
      <point x="168" y="95"/>
      <point x="296" y="-11"/>
    </contour>
  </outline>
</glyph>
<glyph name="trademark" format="2">
  <advance width="681"/>
  <unicode hex="2122"/>
  <outline>
    <contour>
      <point x="325" y="421" type="line"/>
      <point x="377" y="421" type="line"/>
      <point x="376" y="632" type="line"/>
      <point x="475" y="439" type="line"/>
      <point x="574" y="635" type="line"/>
      <point x="572" y="421" type="line"/>
      <point x="624" y="421" type="line"/>
      <point x="624" y="700" type="line"/>
      <point x="557" y="700" type="line"/>
      <point x="475" y="533" type="line"/>
      <point x="393" y="700" type="line"/>
      <point x="325" y="700" type="line"/>
    </contour>
    <contour>
      <point x="127" y="421" type="line"/>
      <point x="181" y="421" type="line"/>
      <point x="181" y="653" type="line"/>
      <point x="278" y="653" type="line"/>
      <point x="278" y="700" type="line"/>
      <point x="30" y="700" type="line"/>
      <point x="30" y="653" type="line"/>
      <point x="127" y="653" type="line"/>
    </contour>
  </outline>
</glyph>
<glyph name="minus" format="2">
  <advance width="600"/>
  <unicode hex="2212"/>
  <outline>
    <contour>
      <point x="94" y="319" type="line"/>
      <point x="506" y="319" type="line"/>
      <point x="506" y="397" type="line"/>
      <point x="94" y="397" type="line"/>
    </contour>
  </outline>
</glyph>
<glyph name="uni2215" format="2">
  <advance width="578"/>
  <unicode hex="2215"/>
  <outline>
    <contour>
      <point x="26" y="0" type="line"/>
      <point x="103" y="0" type="line"/>
      <point x="497" y="700" type="line"/>
      <point x="420" y="700" type="line"/>
    </contour>
  </outline>
</glyph>
<glyph name="notequal" format="2">
  <advance width="600"/>
  <unicode hex="2260"/>
  <outline>
    <contour>
      <point x="102" y="111" type="line"/>
      <point x="178" y="111" type="line"/>
      <point x="257" y="229" type="line"/>
      <point x="506" y="229" type="line"/>
      <point x="506" y="307" type="line"/>
      <point x="306" y="307" type="line"/>
      <point x="371" y="404" type="line"/>
      <point x="506" y="404" type="line"/>
      <point x="506" y="481" type="line"/>
      <point x="421" y="481" type="line"/>
      <point x="498" y="598" type="line"/>
      <point x="422" y="598" type="line"/>
      <point x="345" y="481" type="line"/>
      <point x="94" y="481" type="line"/>
      <point x="94" y="404" type="line"/>
      <point x="295" y="404" type="line"/>
      <point x="230" y="307" type="line"/>
      <point x="94" y="307" type="line"/>
      <point x="94" y="229" type="line"/>
      <point x="181" y="229" type="line"/>
    </contour>
  </outline>
</glyph>
<glyph name="uniFFFD" format="2">
  <advance width="575"/>
  <unicode hex="FFFD"/>
  <outline>
    <contour>
      <point x="90" y="-100" type="line"/>
      <point x="484" y="-100" type="line"/>
      <point x="484" y="750" type="line"/>
      <point x="90" y="750" type="line"/>
    </contour>
  </outline>
</glyph>
<glyph name="a.school" format="2">
  <advance width="607"/>
  <anchor x="303" y="509" name="top"/>
  <anchor x="548" y="0" name="bottom"/>
  <outline>
    <contour>
      <point x="293" y="-8" type="curve" smooth="yes"/>
      <point x="353" y="-8"/>
      <point x="407" y="12"/>
      <point x="449" y="49" type="curve"/>
      <point x="449" y="0" type="line"/>
      <point x="548" y="0" type="line"/>
      <point x="548" y="509" type="line"/>
      <point x="448" y="509" type="line"/>
      <point x="448" y="466" type="line"/>
      <point x="404" y="499"/>
      <point x="351" y="517"/>
      <point x="295" y="517" type="curve" smooth="yes"/>
      <point x="149" y="517"/>
      <point x="36" y="402"/>
      <point x="36" y="255" type="curve" smooth="yes"/>
      <point x="36" y="107"/>
      <point x="149" y="-8"/>
    </contour>
    <contour>
      <point x="306" y="79" type="curve" smooth="yes"/>
      <point x="209" y="79"/>
      <point x="134" y="156"/>
      <point x="134" y="256" type="curve" smooth="yes"/>
      <point x="134" y="356"/>
      <point x="209" y="431"/>
      <point x="306" y="431" type="curve" smooth="yes"/>
      <point x="363" y="431"/>
      <point x="415" y="408"/>
      <point x="448" y="370" type="curve"/>
      <point x="448" y="141" type="line"/>
      <point x="415" y="101"/>
      <point x="364" y="79"/>
    </contour>
  </outline>
</glyph>
<glyph name="acutecomb" format="2">
  <anchor x="300" y="509" name="_top"/>
  <outline>
    <contour>
      <point x="232" y="603" type="line"/>
      <point x="316" y="603" type="line"/>
      <point x="444" y="725" type="line"/>
      <point x="324" y="725" type="line"/>
    </contour>
  </outline>
</glyph>
<glyph name="aogonek.school" format="2">
  <advance width="607"/>
  <outline>
    <contour>
      <point x="487" y="-221" type="curve" smooth="yes"/>
      <point x="516" y="-221"/>
      <point x="542" y="-213"/>
      <point x="564" y="-199" type="curve"/>
      <point x="548" y="-151" type="line"/>
      <point x="535" y="-160"/>
      <point x="519" y="-164"/>
      <point x="503" y="-164" type="curve" smooth="yes"/>
      <point x="469" y="-164"/>
      <point x="448" y="-147"/>
      <point x="448" y="-116" type="curve" smooth="yes"/>
      <point x="448" y="-78"/>
      <point x="479" y="-42"/>
      <point x="548" y="0" type="curve"/>
      <point x="548" y="509" type="line"/>
      <point x="448" y="509" type="line"/>
      <point x="448" y="466" type="line"/>
      <point x="404" y="499"/>
      <point x="351" y="517"/>
      <point x="295" y="517" type="curve" smooth="yes"/>
      <point x="149" y="517"/>
      <point x="36" y="402"/>
      <point x="36" y="255" type="curve" smooth="yes"/>
      <point x="36" y="107"/>
      <point x="149" y="-8"/>
      <point x="293" y="-8" type="curve" smooth="yes"/>
      <point x="353" y="-8"/>
      <point x="407" y="12"/>
      <point x="449" y="49" type="curve"/>
      <point x="449" y="0" type="line"/>
      <point x="481" y="0" type="line"/>
      <point x="414" y="-45"/>
      <point x="386" y="-85"/>
      <point x="386" y="-133" type="curve" smooth="yes"/>
      <point x="386" y="-186"/>
      <point x="426" y="-221"/>
    </contour>
    <contour>
      <point x="134" y="256" type="curve" smooth="yes"/>
      <point x="134" y="356"/>
      <point x="209" y="431"/>
      <point x="306" y="431" type="curve" smooth="yes"/>
      <point x="363" y="431"/>
      <point x="415" y="408"/>
      <point x="448" y="370" type="curve"/>
      <point x="448" y="141" type="line"/>
      <point x="415" y="101"/>
      <point x="364" y="79"/>
      <point x="306" y="79" type="curve" smooth="yes"/>
      <point x="209" y="79"/>
      <point x="134" y="156"/>
    </contour>
  </outline>
</glyph>
<glyph name="caronSlovak" format="2">
  <advance width="600"/>
  <outline>
    <contour>
      <point x="283" y="505" type="line"/>
      <point x="349" y="505" type="line"/>
      <point x="378" y="715" type="line"/>
      <point x="288" y="700" type="line"/>
    </contour>
  </outline>
</glyph>
<glyph name="commaaccent" format="2">
  <advance width="600"/>
  <guideline x="300" y="-11" angle="90.0" identifier="TB9epO5wox"/>
  <outline>
    <contour>
      <point x="206" y="-273" type="line"/>
      <point x="280" y="-273" type="line"/>
      <point x="348" y="-84" type="line"/>
      <point x="252" y="-84" type="line"/>
    </contour>
  </outline>
</glyph>
